<svg xmlns="http://www.w3.org/2000/svg" width="101.622" height="102.552" viewBox="0 0 101.622 102.552">
  <g id="Grupo_17" data-name="Grupo 17" transform="translate(-474.731 -84.275)">
    <path id="Trazado_57" data-name="Trazado 57" d="M575.817,134.376a10.905,10.905,0,0,1-6.468,10.045,5.184,5.184,0,0,1-2.081.7c-.493.017-.587.409-.7.789a42.6,42.6,0,0,1-3.539,8.554,43.327,43.327,0,0,1-19.816,18.477c-1.758.816-3.609,1.438-5.44,2.086a1.064,1.064,0,0,0-.783.923,13.037,13.037,0,0,1-4.265,7.568,11.459,11.459,0,0,1-4.018,2.168,10.111,10.111,0,0,1-4.181.6,11.983,11.983,0,0,1-8.342-4.13,10.6,10.6,0,0,1-2.761-6.1c-.055-.8-.67-1.089-1.3-1.267a30.61,30.61,0,0,1-4.3-1.616,43.415,43.415,0,0,1-10.358-6.556,42.535,42.535,0,0,1-8.258-9.432,39.7,39.7,0,0,1-4.736-9.937c-.171-.562-.4-1.1-.535-1.682-.167-.721-.991-.68-1.517-.879a10.631,10.631,0,0,1-6.738-7.345,10.983,10.983,0,0,1,5.1-12.636,5.471,5.471,0,0,1,1.86-.784,2.179,2.179,0,0,0,1.751-1.762,40.616,40.616,0,0,1,6.7-12.984,42.355,42.355,0,0,1,12.753-11.233,41.4,41.4,0,0,1,7.137-3.292,8.933,8.933,0,0,1,1.756-.544c1.286-.148,1.772-.9,2.15-1.978a10.2,10.2,0,0,1,4.053-5.241,11.072,11.072,0,0,1,9.157-1.775,10.889,10.889,0,0,1,8.109,7.169,3.2,3.2,0,0,0,2.407,2.148,41.1,41.1,0,0,1,17.854,11.238,43.3,43.3,0,0,1,8.523,13.051,15.564,15.564,0,0,1,1.209,3.5c.215,1.292,1.31,1.4,2.2,1.695a10.367,10.367,0,0,1,6.492,5.976A8.693,8.693,0,0,1,575.817,134.376ZM513.873,99.529a5.627,5.627,0,0,0-.634.156,37.909,37.909,0,0,0-9.126,4.605,38.807,38.807,0,0,0-10.5,10.916,33.529,33.529,0,0,0-3.763,7.975c-.127.4-.147.64.337.8a9.39,9.39,0,0,1,3.737,2.3c3.221,3.294,4.311,7.189,2.824,11.617a10.383,10.383,0,0,1-6.454,6.727c-.615.229-.694.652-.477,1.208.418,1.067.818,2.142,1.243,3.207a31.785,31.785,0,0,0,5.033,8.293,38.276,38.276,0,0,0,9.042,8.165,40.467,40.467,0,0,0,8.436,4.013c.445.156.747,0,.975-.478a11.8,11.8,0,0,1,13.5-6.219,11.512,11.512,0,0,1,7.65,6.1.969.969,0,0,0,1.383.536c1.207-.466,2.429-.885,3.61-1.425a35.987,35.987,0,0,0,8.864-5.638,38.293,38.293,0,0,0,8.166-9.727,44.32,44.32,0,0,0,3.2-7.176.617.617,0,0,0-.4-.913,9.614,9.614,0,0,1-2.3-1.318,10.772,10.772,0,0,1-4.437-7.847,9.832,9.832,0,0,1,.457-4.449,10.775,10.775,0,0,1,3.947-5.512c.757-.51,1.555-.963,2.354-1.408.267-.149.491-.28.3-.593a6.521,6.521,0,0,1-.411-1.254,35.645,35.645,0,0,0-4.8-8.941,36.779,36.779,0,0,0-17.9-13.329c-1.055-.353-1.176-.284-1.621.782a11.479,11.479,0,0,1-13.5,6.66,12.063,12.063,0,0,1-5.81-3.68,11.04,11.04,0,0,1-1.942-3.251C514.7,100.028,514.579,99.481,513.873,99.529Zm17.538,74.939a6.331,6.331,0,1,0-12.659-.017A6.433,6.433,0,0,0,525,180.687C528.276,180.856,531.812,177.541,531.411,174.468Zm-5.838-84.051c-2.937-.449-6.126,2.962-5.952,5.792.211,3.42,2.477,5.943,5.8,5.947a5.861,5.861,0,0,0,6.042-5.8C531.68,93.244,528.31,89.975,525.573,90.417ZM491.8,134.275a5.5,5.5,0,0,0-11,.027,5.56,5.56,0,0,0,5.52,5.62A5.5,5.5,0,0,0,491.8,134.275Zm78.47.073a5.326,5.326,0,0,0-5.477-5.517,5.385,5.385,0,0,0-5.521,5.4,5.5,5.5,0,1,0,11,.118Z" transform="translate(0)" fill="#0065a5"/>
    <path id="Trazado_57_-_Contorno" data-name="Trazado 57 - Contorno" d="M525.414,84.275a11.648,11.648,0,0,1,2.806.354,11.4,11.4,0,0,1,8.458,7.484,2.7,2.7,0,0,0,2.083,1.841,39.948,39.948,0,0,1,9.785,4.512,44.943,44.943,0,0,1,8.284,6.858,43.97,43.97,0,0,1,8.621,13.2l.13.3a14.445,14.445,0,0,1,1.112,3.309c.126.758.61.933,1.454,1.177.135.039.276.08.413.125a10.908,10.908,0,0,1,6.794,6.249,9.233,9.233,0,0,1,.96,4.724,11.388,11.388,0,0,1-6.746,10.458l-.121.06a5.281,5.281,0,0,1-2.163.694c-.089,0-.112,0-.225.382l-.015.051a42.761,42.761,0,0,1-3.581,8.653,43.517,43.517,0,0,1-4.855,7.087,44.31,44.31,0,0,1-15.187,11.6c-1.549.719-3.182,1.294-4.762,1.849l-.722.255a.584.584,0,0,0-.46.552,13.445,13.445,0,0,1-4.429,7.847,13.507,13.507,0,0,1-7.775,2.927,7.57,7.57,0,0,1-.8-.042,12.4,12.4,0,0,1-8.673-4.307,10.985,10.985,0,0,1-2.876-6.387c-.029-.418-.274-.633-.938-.82a30.825,30.825,0,0,1-4.367-1.641A44.161,44.161,0,0,1,497.143,167a43.262,43.262,0,0,1-8.355-9.542,40.046,40.046,0,0,1-4.794-10.062c-.062-.2-.131-.4-.2-.612a10.533,10.533,0,0,1-.339-1.1c-.047-.2-.208-.27-.7-.383a3.875,3.875,0,0,1-.506-.141,11.145,11.145,0,0,1-7.041-7.673,11.333,11.333,0,0,1,.419-7.65,11.713,11.713,0,0,1,4.913-5.558,5.943,5.943,0,0,1,2.031-.845c.679-.109,1.1-.544,1.35-1.41a40.786,40.786,0,0,1,6.777-13.143,43,43,0,0,1,12.9-11.365,42.092,42.092,0,0,1,7.224-3.331c.137-.048.275-.1.421-.154a6.265,6.265,0,0,1,1.442-.414c1.015-.117,1.393-.669,1.735-1.647a10.63,10.63,0,0,1,4.249-5.493A12.029,12.029,0,0,1,525.414,84.275Zm-.14,101.552a12.528,12.528,0,0,0,7.125-2.686,12.482,12.482,0,0,0,4.1-7.288,1.559,1.559,0,0,1,1.106-1.294l.724-.255c1.557-.548,3.167-1.114,4.672-1.813a43.316,43.316,0,0,0,14.846-11.34,42.532,42.532,0,0,0,4.743-6.927,41.771,41.771,0,0,0,3.5-8.454l.014-.048a1.251,1.251,0,0,1,1.148-1.1,4.45,4.45,0,0,0,1.753-.591l.123-.061a10.451,10.451,0,0,0,6.19-9.613l0-.037a8.31,8.31,0,0,0-.879-4.233,9.82,9.82,0,0,0-6.19-5.7c-.12-.039-.246-.076-.379-.114-.814-.235-1.928-.557-2.163-1.974a13.7,13.7,0,0,0-1.045-3.078l-.131-.306a42.972,42.972,0,0,0-8.424-12.9A40.815,40.815,0,0,0,538.47,94.909a3.679,3.679,0,0,1-2.731-2.456,10.45,10.45,0,0,0-7.76-6.854,10.648,10.648,0,0,0-2.565-.324,11.063,11.063,0,0,0-6.2,2.032,9.651,9.651,0,0,0-3.856,4.989,2.929,2.929,0,0,1-2.565,2.31,5.574,5.574,0,0,0-1.205.357c-.145.054-.3.111-.443.162a41.088,41.088,0,0,0-7.051,3.252,42.008,42.008,0,0,0-12.6,11.1,39.806,39.806,0,0,0-6.617,12.824,2.656,2.656,0,0,1-2.151,2.115,5.011,5.011,0,0,0-1.688.722,10.516,10.516,0,0,0-4.874,12.064,10.19,10.19,0,0,0,6.435,7.018,3.129,3.129,0,0,0,.376.1,1.616,1.616,0,0,1,1.451,1.132,9.624,9.624,0,0,0,.309,1c.073.211.149.429.217.651a39.068,39.068,0,0,0,4.679,9.812,42.262,42.262,0,0,0,8.162,9.322,43.16,43.16,0,0,0,10.239,6.48,29.869,29.869,0,0,0,4.227,1.59,1.966,1.966,0,0,1,1.664,1.714,10.044,10.044,0,0,0,2.646,5.815,11.449,11.449,0,0,0,8.011,3.953A6.567,6.567,0,0,0,525.274,185.826Zm.81-95.949h0a5.882,5.882,0,0,1,4.088,2.023,6.128,6.128,0,0,1,1.79,4.5,6.352,6.352,0,0,1-6.532,6.261h-.01a5.968,5.968,0,0,1-4.429-1.848,7.237,7.237,0,0,1-1.87-4.569,6.114,6.114,0,0,1,1.811-4.362,5.831,5.831,0,0,1,4.107-2,4.055,4.055,0,0,1,.531.035A3.738,3.738,0,0,1,526.084,89.877Zm-.654,11.78a5.337,5.337,0,0,0,5.534-5.33,5.2,5.2,0,0,0-1.523-3.744,4.88,4.88,0,0,0-3.357-1.706h0a2.718,2.718,0,0,0-.432.034l-.078.013-.078-.012a3.037,3.037,0,0,0-.457-.034,4.839,4.839,0,0,0-3.379,1.687,5.11,5.11,0,0,0-1.541,3.615c.2,3.273,2.332,5.474,5.3,5.478Zm-11.473-2.631a1.375,1.375,0,0,1,1.319,1.108c.015.041.03.082.045.121a10.482,10.482,0,0,0,1.855,3.106,11.577,11.577,0,0,0,5.578,3.529,9.777,9.777,0,0,0,2.851.438,11.2,11.2,0,0,0,5.947-1.886,10.281,10.281,0,0,0,4.1-4.926c.275-.658.534-1.281,1.281-1.281a3.157,3.157,0,0,1,.96.217,35.334,35.334,0,0,1,10.136,5.353,41.32,41.32,0,0,1,8.009,8.15,36.313,36.313,0,0,1,4.866,9.065,4.34,4.34,0,0,1,.155.543,2.1,2.1,0,0,0,.214.624.83.83,0,0,1,.124.661,1.073,1.073,0,0,1-.6.632c-.8.447-1.582.889-2.318,1.386a10.145,10.145,0,0,0-3.758,5.271,9.268,9.268,0,0,0-.428,4.227,10.278,10.278,0,0,0,4.239,7.495,9.057,9.057,0,0,0,2.181,1.251,1.107,1.107,0,0,1,.688,1.548,44.336,44.336,0,0,1-3.236,7.256,38.623,38.623,0,0,1-8.271,9.855,36.225,36.225,0,0,1-8.986,5.717c-.871.4-1.77.734-2.639,1.059-.328.123-.668.25-1,.377a1.91,1.91,0,0,1-.692.142,1.438,1.438,0,0,1-1.319-.922,11.017,11.017,0,0,0-7.334-5.843,10.522,10.522,0,0,0-2.763-.366A11.381,11.381,0,0,0,515,169.249a1.22,1.22,0,0,1-1.118.823,1.44,1.44,0,0,1-.475-.087,40.78,40.78,0,0,1-8.539-4.064,38.982,38.982,0,0,1-9.16-8.27,32.122,32.122,0,0,1-5.11-8.424c-.251-.629-.5-1.271-.735-1.891-.166-.433-.338-.88-.509-1.318a1.466,1.466,0,0,1-.044-1.166,1.348,1.348,0,0,1,.812-.693,9.893,9.893,0,0,0,6.154-6.418c1.383-4.119.473-7.856-2.707-11.108a8.831,8.831,0,0,0-3.539-2.174,1,1,0,0,1-.654-1.428,34.2,34.2,0,0,1,3.818-8.094,39.479,39.479,0,0,1,10.635-11.056,38.293,38.293,0,0,1,9.245-4.667,3.793,3.793,0,0,1,.529-.137c.056-.011.109-.022.157-.034l.041-.01.042,0C513.879,99.027,513.919,99.026,513.957,99.026Zm11.647,9.3a10.776,10.776,0,0,1-3.142-.481,12.548,12.548,0,0,1-6.043-3.831,11.466,11.466,0,0,1-2.03-3.4c-.018-.046-.035-.093-.052-.14-.156-.427-.2-.456-.395-.452l-.142.03a2.911,2.911,0,0,0-.391.1A37.311,37.311,0,0,0,504.4,104.7a38.483,38.483,0,0,0-10.368,10.776,33.2,33.2,0,0,0-3.708,7.857c-.023.072-.036.122-.044.157.017.007.038.015.064.024a9.82,9.82,0,0,1,3.934,2.422,12.4,12.4,0,0,1,3.3,5.61,11.432,11.432,0,0,1-.364,6.515,10.851,10.851,0,0,1-6.753,7.037.449.449,0,0,0-.248.164c-.011.026-.041.129.063.393.173.441.345.89.511,1.324.237.617.482,1.256.731,1.879a31.145,31.145,0,0,0,4.956,8.162,37.985,37.985,0,0,0,8.924,8.06,39.8,39.8,0,0,0,8.332,3.963.448.448,0,0,0,.143.031c.063,0,.135-.084.214-.251a11.9,11.9,0,0,1,4.569-5.034,12.413,12.413,0,0,1,6.49-1.854,11.522,11.522,0,0,1,3.026.4,11.979,11.979,0,0,1,7.967,6.363c.182.367.345.367.423.367a.957.957,0,0,0,.332-.075c.336-.13.678-.258,1.009-.381.853-.319,1.735-.649,2.573-1.032a35.241,35.241,0,0,0,8.742-5.559,37.645,37.645,0,0,0,8.062-9.6,43.373,43.373,0,0,0,3.162-7.1.479.479,0,0,0,.041-.2.41.41,0,0,0-.146-.08,10.035,10.035,0,0,1-2.423-1.385,11.242,11.242,0,0,1-4.635-8.2,10.223,10.223,0,0,1,.486-4.671,11.072,11.072,0,0,1,4.136-5.752c.769-.518,1.569-.972,2.39-1.43l.042-.024a3.317,3.317,0,0,1-.263-.789,3.551,3.551,0,0,0-.117-.421,34.835,34.835,0,0,0-4.73-8.817A36.009,36.009,0,0,0,537.569,100.4a2.826,2.826,0,0,0-.642-.165h-.02a3.018,3.018,0,0,0-.338.665,11.261,11.261,0,0,1-4.492,5.392A12.166,12.166,0,0,1,525.6,108.327Zm-39.3,20h.038a6.07,6.07,0,0,1,4.349,10.193,6.15,6.15,0,0,1-4.366,1.9h-.041a6.064,6.064,0,0,1-4.3-1.867,5.849,5.849,0,0,1-1.682-4.266,6.218,6.218,0,0,1,1.74-4.255A5.942,5.942,0,0,1,486.3,128.33Zm-.02,11.091h.034a5.144,5.144,0,0,0,3.651-1.589,4.822,4.822,0,0,0,1.337-3.539v-.018a4.868,4.868,0,0,0-4.968-4.945H486.3a5.041,5.041,0,0,0-3.6,8.526A5.129,5.129,0,0,0,486.279,139.421Zm78.489-11.091h.027a5.824,5.824,0,0,1,5.975,6.009,5.663,5.663,0,0,1-1.6,4.169,6.184,6.184,0,0,1-4.358,1.912H564.8a6.113,6.113,0,0,1-4.355-1.859,5.933,5.933,0,0,1-1.673-4.347,6.116,6.116,0,0,1,1.749-4.188A5.951,5.951,0,0,1,564.768,128.33Zm.033,11.091h.008a5.166,5.166,0,0,0,3.637-1.6,4.671,4.671,0,0,0,1.325-3.448v-.025a4.826,4.826,0,0,0-4.979-5.013h-.023a4.89,4.89,0,0,0-5,4.913,4.941,4.941,0,0,0,1.391,3.621A5.108,5.108,0,0,0,564.8,139.42Zm-39.663,28.093a6.911,6.911,0,0,1,5.054,2.2,6.3,6.3,0,0,1,1.722,4.738,5.571,5.571,0,0,1-1.527,4.223,7.163,7.163,0,0,1-5.146,2.515c-.09,0-.18,0-.269-.007a7.237,7.237,0,0,1-4.77-2.107,6.516,6.516,0,0,1-1.949-4.629,7.018,7.018,0,0,1,1.929-4.923,6.829,6.829,0,0,1,4.938-2.014Zm.1,12.68a6.14,6.14,0,0,0,4.395-2.175,4.56,4.56,0,0,0,1.28-3.485l-.007-.051,0-.051a5.3,5.3,0,0,0-1.455-4.033,5.908,5.908,0,0,0-4.321-1.884h-.015a5.731,5.731,0,0,0-5.869,5.939,5.9,5.9,0,0,0,5.771,5.735C525.095,180.191,525.168,180.193,525.24,180.193Z" transform="translate(0)" fill="#fff"/>
    <path id="Trazado_58" data-name="Trazado 58" d="M573.009,164.48q0,4.571,0,9.142a7.46,7.46,0,0,1-1.585,4.954,7.3,7.3,0,0,1-5.666,2.868c-6.183.065-12.368.081-18.551,0a7.457,7.457,0,0,1-7.093-6.473c-.094-.976-.126-1.946-.126-2.921q0-7.234,0-14.468c0-1.236.148-1.419,1.318-1.48.639-.033.8-.346.794-.906-.01-2.012-.02-4.024.006-6.036a13.417,13.417,0,0,1,2.638-7.567,14.3,14.3,0,0,1,6.527-5.13,15.1,15.1,0,0,1,5.971-.876,12.906,12.906,0,0,1,6.61,1.954,14.836,14.836,0,0,1,6.116,7.243c1.022,2.429.968,4.962.9,7.5-.022.879.109,1.428,1.18,1.34.876-.071.954.595.954,1.268Q573,159.687,573.009,164.48Zm-16.422-5.214q-4.967,0-9.934,0c-1.1,0-1.152.058-1.153,1.159q-.006,6.208,0,12.417a6.42,6.42,0,0,0,.076.97,2.13,2.13,0,0,0,2.429,2.117q8.47.023,16.94,0c1.79-.005,2.547-.781,2.551-2.559q.016-6.474,0-12.949c0-1.1-.061-1.154-1.158-1.155Q561.465,159.26,556.586,159.266ZM556.5,153.6c2.63,0,5.26-.017,7.889.011.733.008,1.006-.267.98-.99-.037-1.033-.06-2.071,0-3.1a6.36,6.36,0,0,0-.754-3.235,8.882,8.882,0,0,0-11.779-4.466c-2.585,1.048-5.22,4.439-5.207,7.534,0,1.064.036,2.129-.015,3.19-.04.82.281,1.082,1.084,1.071C551.3,153.577,553.9,153.6,556.5,153.6Z" transform="translate(-30.954 -24.288)" fill="#0065a5"/>
    <path id="Trazado_58_-_Contorno" data-name="Trazado 58 - Contorno" d="M556.031,182c-3.111,0-6-.019-8.829-.057a7.852,7.852,0,0,1-5.014-2.034,7.567,7.567,0,0,1-2.57-4.89c-.087-.9-.128-1.846-.128-2.969,0-4.722,0-9.606,0-14.469a2.211,2.211,0,0,1,.345-1.51,1.936,1.936,0,0,1,1.446-.468c.181-.009.256-.046.27-.064s.052-.08.051-.341v-.08c-.01-1.954-.02-3.975.007-5.964a13.81,13.81,0,0,1,2.728-7.846A14.839,14.839,0,0,1,551.087,136a15.009,15.009,0,0,1,5.732-.915l.432,0a13.351,13.351,0,0,1,6.861,2.025,15.233,15.233,0,0,1,6.32,7.479c1.073,2.551,1.007,5.173.943,7.709,0,.155-.016.628.107.754a.794.794,0,0,0,.532.075c.056,0,.112-.007.165-.007a1.2,1.2,0,0,1,1.152.683,2.558,2.558,0,0,1,.177,1.09c0,2.548,0,5.139,0,7.644v1.942q0,1.532,0,3.064c0,1.992,0,4.052,0,6.077a7.92,7.92,0,0,1-1.7,5.273,7.822,7.822,0,0,1-6.046,3.049C562.249,181.981,559.065,182,556.031,182Zm.788-45.915a14.1,14.1,0,0,0-5.357.842,13.855,13.855,0,0,0-6.3,4.952,12.845,12.845,0,0,0-2.549,7.288c-.026,1.98-.016,4-.007,5.946v.08a1.223,1.223,0,0,1-1.269,1.408c-.548.028-.709.086-.747.13a2.391,2.391,0,0,0-.1.851c-.006,4.862,0,9.745,0,14.467,0,1.09.039,2,.123,2.873a6.95,6.95,0,0,0,6.6,6.021c2.826.038,5.71.057,8.816.057,3.03,0,6.21-.018,9.723-.055a6.765,6.765,0,0,0,5.286-2.686,6.965,6.965,0,0,0,1.47-4.635c0-2.026,0-4.087,0-6.079q0-1.532,0-3.064v-1.942c0-2.506,0-5.1,0-7.645a1.909,1.909,0,0,0-.082-.662c-.026-.054-.052-.11-.248-.11-.026,0-.054,0-.084,0-.087.007-.172.011-.251.011a1.426,1.426,0,0,1-1.079-.384,1.97,1.97,0,0,1-.391-1.478c.061-2.43.125-4.943-.865-7.3a14.267,14.267,0,0,0-5.912-7.008,12.378,12.378,0,0,0-6.358-1.883Zm-.067,40.36c-2.832,0-5.775,0-8.747-.012a2.61,2.61,0,0,1-2.922-2.541,6.926,6.926,0,0,1-.082-1.046c-.005-4.288-.006-8.466,0-12.417a1.805,1.805,0,0,1,.312-1.344c.311-.313.766-.314,1.341-.315q3.553-.005,7.105,0h5.607q3.489,0,6.979,0A1.307,1.307,0,0,1,568,160.422v.852c0,3.965.007,8.066,0,12.1a2.685,2.685,0,0,1-3.05,3.058C562.283,176.439,559.525,176.443,556.752,176.443ZM546.03,159.8a4.275,4.275,0,0,0-.03.63c0,3.951,0,8.128,0,12.416a5.927,5.927,0,0,0,.07.895c.194,1.262.682,1.689,1.936,1.693,2.971.008,5.913.012,8.744.012,2.772,0,5.529,0,8.193-.012,1.512,0,2.049-.544,2.053-2.06.01-4.032.007-8.131,0-12.1v-.852a4.153,4.153,0,0,0-.03-.625,4.176,4.176,0,0,0-.629-.031q-3.488-.005-6.977,0h-5.608q-3.552,0-7.1,0A4.242,4.242,0,0,0,546.03,159.8Zm2.624-5.684a1.6,1.6,0,0,1-1.194-.4,1.574,1.574,0,0,1-.342-1.195c.038-.788.029-1.6.021-2.384,0-.26-.005-.52-.007-.78a8.447,8.447,0,0,1,1.723-4.828,9.213,9.213,0,0,1,3.8-3.171,10.544,10.544,0,0,1,3.967-.806,8.964,8.964,0,0,1,4.885,1.433,10.239,10.239,0,0,1,3.562,4.077,6.824,6.824,0,0,1,.806,3.49c-.058.959-.042,1.914,0,3.053a1.5,1.5,0,0,1-.34,1.128,1.464,1.464,0,0,1-1.11.379h-.035c-1.033-.011-2.167-.016-3.569-.016l-2.157,0-2.158,0h-.088q-1.06,0-2.12,0t-2.118,0c-1.36,0-2.462.007-3.466.021Zm7.965-12.565a9.55,9.55,0,0,0-3.591.733c-2.326.942-4.908,4.077-4.895,7.068,0,.258,0,.516.007.774.008.8.017,1.625-.022,2.443-.017.341.047.436.067.457s.114.09.47.09h.04c1.009-.014,2.115-.021,3.48-.021q1.06,0,2.12,0t2.118,0h.088l2.157,0,2.159,0c1.405,0,2.543.005,3.579.016h.025c.3,0,.378-.061.39-.074s.071-.09.06-.4c-.042-1.168-.057-2.151,0-3.149a5.843,5.843,0,0,0-.7-2.98A8.377,8.377,0,0,0,556.618,141.549Z" transform="translate(-30.954 -24.288)" fill="#fff"/>
    <path id="Trazado_59" data-name="Trazado 59" d="M568.367,189.445c1.808-.278,3.459,1.7,3.456,3.449a3.48,3.48,0,1,1-6.958-.091C564.891,191.16,566.44,189.211,568.367,189.445Z" transform="translate(-42.846 -50.022)" fill="#0065a5"/>
    <path id="Trazado_59_-_Contorno" data-name="Trazado 59 - Contorno" d="M568.711,188.918a3.341,3.341,0,0,1,2.338,1.055,4.253,4.253,0,0,1,1.273,2.921,4.226,4.226,0,0,1-3.993,3.97h-.066a3.965,3.965,0,0,1-2.717-1.283,4.019,4.019,0,0,1-1.182-2.786,4.185,4.185,0,0,1,1.06-2.593,3.45,3.45,0,0,1,2.934-1.261A2.779,2.779,0,0,1,568.711,188.918Zm-.382,6.946a3.235,3.235,0,0,0,2.993-2.971,3.28,3.28,0,0,0-.981-2.213,2.247,2.247,0,0,0-1.9-.742l-.068.01-.068-.008a2.13,2.13,0,0,0-.256-.016,3.027,3.027,0,0,0-2.686,2.885,3.245,3.245,0,0,0,2.919,3.054Z" transform="translate(-42.846 -50.022)" fill="#fff"/>
  </g>
</svg>
