<svg xmlns="http://www.w3.org/2000/svg" width="14.365" height="14.367" viewBox="0 0 14.365 14.367">
  <g id="Grupo_22977" data-name="Grupo 22977" transform="translate(-11867.721 -1267.206)">
    <g id="Grupo_22919" data-name="Grupo 22919" transform="translate(10496.494 1241.834)">
      <g id="Grupo_22918" data-name="Grupo 22918" transform="translate(1371.226 25.372)">
        <path id="Trazado_17551" data-name="Trazado 17551" d="M-909.534-8.677q-1.9,0-3.8,0c-.51,0-.735-.218-.8-.731q-.378-3.035-.765-6.069c-.138-1.1-.279-2.2-.4-3.3-.027-.238-.114-.335-.35-.312a2.884,2.884,0,0,1-.363,0,.655.655,0,0,1-.694-.677.665.665,0,0,1,.688-.691c.568-.014,1.137,0,1.706-.005.392,0,.784-.013,1.174,0,.256.011.32-.1.313-.331-.013-.447-.005-.895,0-1.342,0-.679.235-.913.9-.913h4.894a.71.71,0,0,1,.807.78q.02.741,0,1.482c-.006.242.075.327.321.324.932-.011,1.865-.008,2.8,0a.682.682,0,0,1,.763.73.651.651,0,0,1-.618.638,3.688,3.688,0,0,1-.475,0c-.2-.012-.284.063-.309.265q-.5,4.089-1.015,8.176-.081.651-.166,1.3a.687.687,0,0,1-.772.668Q-907.619-8.676-909.534-8.677Zm0-10.41h-4.083c-.325,0-.35.034-.308.356.107.822.214,1.643.316,2.466q.371,2.979.736,5.96a.252.252,0,0,0,.289.259q3.048,0,6.1,0a.251.251,0,0,0,.29-.259c.07-.6.148-1.2.223-1.8q.414-3.312.829-6.623c.041-.323.017-.357-.307-.357Zm0-1.375c.559,0,1.117,0,1.676,0,.159,0,.242-.034.231-.217-.015-.241-.01-.484,0-.726,0-.184-.061-.273-.258-.273q-1.648.007-3.3,0c-.175,0-.258.068-.254.247,0,.233.014.466,0,.7-.016.208.049.278.262.272C-910.628-20.471-910.078-20.462-909.529-20.462Z" transform="translate(916.713 23.044)" fill="#0065a5"/>
      </g>
    </g>
  </g>
</svg>
