<svg xmlns="http://www.w3.org/2000/svg" width="18.508" height="18.512" viewBox="0 0 18.508 18.512">
  <g id="Grupo_22976" data-name="Grupo 22976" transform="translate(-11825.212 -1264.581)">
    <g id="Grupo_22917" data-name="Grupo 22917" transform="translate(10441.574 1241.729)">
      <g id="Grupo_22915" data-name="Grupo 22915" transform="translate(1383.638 22.852)">
        <path id="Trazado_17549" data-name="Trazado 17549" d="M-880.445-203.125q-2.739,0-5.478,0a2.111,2.111,0,0,1-2.225-2.206q0-5.514,0-11.028a2.145,2.145,0,0,1,2.193-2.225c2.1-.016,4.2-.007,6.307,0,.515,0,.784.237.778.648-.005.39-.274.606-.774.607q-3.063,0-6.127,0c-.814,0-1.167.345-1.168,1.159q0,5.316,0,10.632c0,.863.313,1.167,1.175,1.167H-875.1c.853,0,1.151-.3,1.152-1.144q0-2.973,0-5.947a2.385,2.385,0,0,1,.011-.4.576.576,0,0,1,.537-.541.577.577,0,0,1,.659.436,1.063,1.063,0,0,1,.048.318c0,2.126.015,4.253,0,6.379a2.151,2.151,0,0,1-1.7,2.1,2.571,2.571,0,0,1-.537.039Q-877.688-203.123-880.445-203.125Z" transform="translate(888.149 221.637)" fill="#0065a5"/>
        <path id="Trazado_17550" data-name="Trazado 17550" d="M-790.3-258.629a2.038,2.038,0,0,1-.661,1.544q-3.891,3.9-7.791,7.8a1.168,1.168,0,0,1-.627.326c-.824.16-1.647.33-2.472.486a.619.619,0,0,1-.777-.768c.159-.837.334-1.67.495-2.506a1.154,1.154,0,0,1,.336-.62q3.863-3.855,7.722-7.713a2.167,2.167,0,0,1,3.721.883A2.3,2.3,0,0,1-790.3-258.629Zm-10.624,8.706a6.352,6.352,0,0,1,.668-.13,1.73,1.73,0,0,0,1.11-.587c1.089-1.119,2.2-2.214,3.306-3.318.764-.764,1.522-1.536,2.3-2.288.2-.191.2-.3,0-.483a9.406,9.406,0,0,1-.814-.815c-.189-.215-.308-.2-.509,0-1.818,1.833-3.621,3.684-5.488,5.466a3.237,3.237,0,0,0-.822,1.924C-801.216-249.993-801.146-249.9-800.928-249.923Zm9.391-8.737a.891.891,0,0,0-1.16-.866,2.322,2.322,0,0,0-.932.764c-.106.107,0,.2.074.275q.468.473.941.941c.066.066.13.138.248.093A1.981,1.981,0,0,0-791.537-258.66Z" transform="translate(808.811 260.806)" fill="#0065a5"/>
      </g>
    </g>
  </g>
</svg>
