<svg id="Grupo_1331" data-name="Grupo 1331" xmlns="http://www.w3.org/2000/svg" width="21.16" height="21.145" viewBox="0 0 21.16 21.145">
  <path id="Trazado_476" data-name="Trazado 476" d="M-1559.421-109.347a5.072,5.072,0,0,1,.527.176,2.389,2.389,0,0,1,1.494,2.256c.029,1.285.008,2.571.006,3.856a.713.713,0,0,1-.427.716.635.635,0,0,1-.7-.1.718.718,0,0,1-.256-.6q0-1.866,0-3.733a1.108,1.108,0,0,0-1.222-1.231c-1.762,0-3.525,0-5.295.028.395.132.788.264,1.183.4a1.849,1.849,0,0,1,1.423,1.97q0,6.537,0,13.075c0,.342,0,.342.351.342q1.167,0,2.335,0a1.108,1.108,0,0,0,1.225-1.228q0-1.835,0-3.671a1.794,1.794,0,0,1,.007-.226.693.693,0,0,1,.66-.6.686.686,0,0,1,.683.547,1.311,1.311,0,0,1,.028.265c0,1.258.007,2.516,0,3.774a2.455,2.455,0,0,1-2.05,2.462,2.1,2.1,0,0,1-.391.027c-.868,0-1.736.006-2.6,0-.192,0-.253.057-.248.246a4.12,4.12,0,0,1-.044.986,1.77,1.77,0,0,1-2.257,1.34c-1.8-.576-3.6-1.181-5.388-1.79a1.785,1.785,0,0,1-1.155-1.33v-16.54a1.888,1.888,0,0,1,1.405-1.4Zm-4.64,11.435q0-3.9,0-7.8c0-.324-.081-.452-.365-.546q-2.556-.853-5.113-1.7a.528.528,0,0,0-.323-.031c-.232.067-.331.227-.331.57q0,7.754,0,15.508c0,.373.09.493.452.614l2.88.957c.731.243,1.461.492,2.2.727a.429.429,0,0,0,.6-.446c0-.069,0-.137,0-.206Z" transform="translate(1571.53 109.347)" fill="#b7b7b7"/>
  <path id="Trazado_477" data-name="Trazado 477" d="M-1285.054,22.073a.985.985,0,0,1-.216.323l-3.2,3.191a.76.76,0,0,1-.461.251.67.67,0,0,1-.69-.351.691.691,0,0,1,.09-.771c.044-.053.094-.1.143-.149l1.825-1.822c.052-.052.1-.106.158-.166a.4.4,0,0,0-.257-.035q-3.2,0-6.4,0a.669.669,0,0,1-.652-.934.668.668,0,0,1,.674-.416c1.556,0,3.112,0,4.668,0h1.953c-.008-.1-.079-.138-.128-.188q-.94-.942-1.884-1.881a.752.752,0,0,1-.261-.519.637.637,0,0,1,.365-.641.669.669,0,0,1,.739.073,1.671,1.671,0,0,1,.167.154q1.571,1.566,3.142,3.132a1.031,1.031,0,0,1,.231.338Z" transform="translate(1306.213 -12.627)" fill="#b7b7b7"/>
</svg>
