<svg xmlns="http://www.w3.org/2000/svg" width="48" height="48" viewBox="0 0 48 48">
  <g id="Grupo_22993" data-name="Grupo 22993" transform="translate(135 683)">
    <rect id="Rectángulo_14111" data-name="Rectángulo 14111" width="48" height="48" transform="translate(-135 -683)" fill="#fff" opacity="0"/>
    <g id="Grupo_22991" data-name="Grupo 22991" transform="translate(-132.106 -677.838)">
      <path id="Trazado_37" data-name="Trazado 37" d="M111.237,828.075l-4.138-9.018-8.886-4.13,5.452,13.2Z" transform="translate(-98.213 -811.152)" fill="#00bdff"/>
      <path id="Trazado_38" data-name="Trazado 38" d="M103.665,909.048l-5.452,12.989,8.858-3.992L111.237,909Z" transform="translate(-98.213 -892.075)" fill="#0065a5"/>
      <path id="Trazado_39" data-name="Trazado 39" d="M181.766,858.133l-2.594-5.652-5.569-2.588,3.8,8.27Z" transform="translate(-163.065 -841.23)" fill="#00bdff"/>
      <path id="Trazado_40" data-name="Trazado 40" d="M177.4,908.88l-3.8,8.141,5.551-2.5,2.611-5.669Z" transform="translate(-163.065 -891.947)" fill="#0065a5"/>
      <path id="Trazado_41" data-name="Trazado 41" d="M154.144,787.924a28.567,28.567,0,0,0-15.413,4.153l.921.428a27.719,27.719,0,0,1,14.492-3.74Z" transform="translate(-133.068 -787.918)"/>
      <path id="Trazado_42" data-name="Trazado 42" d="M159.138,1002.4l-.008.005-13.649-7.817-.944.426,14.6,8.363Z" transform="translate(-138.061 -965.696)"/>
      <path id="Trazado_43" data-name="Trazado 43" d="M306.772,828.075l4.15-9.018,8.911-4.13-5.468,13.2Z" transform="translate(-277.621 -811.152)" fill="#00bdff"/>
      <path id="Trazado_44" data-name="Trazado 44" d="M314.366,909.048l5.468,12.989-8.883-3.992L306.772,909Z" transform="translate(-277.621 -892.075)" fill="#0065a5"/>
      <path id="Trazado_45" data-name="Trazado 45" d="M266.048,858.133l2.6-5.652,5.585-2.588-3.808,8.27Z" transform="translate(-242.589 -841.23)" fill="#00bdff"/>
      <path id="Trazado_46" data-name="Trazado 46" d="M270.426,908.88l3.808,8.141-5.567-2.5-2.619-5.669Z" transform="translate(-242.589 -891.947)" fill="#0065a5"/>
      <path id="Trazado_47" data-name="Trazado 47" d="M249,787.924a28.709,28.709,0,0,1,15.457,4.153l-.924.428A27.857,27.857,0,0,0,249,788.765Z" transform="translate(-227.923 -787.918)"/>
      <path id="Trazado_48" data-name="Trazado 48" d="M249,1002.4l.008.005,13.688-7.817.947.426L249,1003.371Z" transform="translate(-227.923 -965.696)"/>
    </g>
  </g>
</svg>
