<svg xmlns="http://www.w3.org/2000/svg" width="106.549" height="88.815" viewBox="0 0 106.549 88.815">
  <path id="Trazado_520" data-name="Trazado 520" d="M-510.774,1884.473c-1.407-2.579-3.626-3.474-6.5-3.471q-46.3.058-92.61-.019c-3.909-.01-7.051,1.988-7.029,7.007q.164,37.426.016,74.854c-.007,3.022.935,5.261,3.694,6.617a15.2,15.2,0,0,0,3.164.338q46.448-.016,92.9-.01c4.581,0,6.771-2.166,6.772-6.74q.01-37.642.007-75.285A11.4,11.4,0,0,0-510.774,1884.473Zm-6.751,80.888h-92.186c-2.576,0-2.724-.148-2.724-2.682,0-11.123.023-22.246-.031-33.369-.006-1.336.361-1.709,1.687-1.684,4.257.081,8.517-.016,12.774.053a5.037,5.037,0,0,0,4.011-1.587c1.57-1.629,3.274-3.128,5.038-4.793l4.149,11.289c.283.77.59,1.533.85,2.311.4,1.2,1.075,2.129,2.462,2.032s1.887-1.142,2.186-2.354c1.247-5.064,2.519-10.123,3.781-15.183.992-3.976,1.983-7.952,2.983-11.961.514.253.394.684.416,1.023q.928,14.109,1.832,28.221.616,9.479,1.247,18.957c.01.145.029.289.043.433.119,1.265.579,2.283,2,2.443s2.106-.691,2.51-1.915c1.15-3.485,2.32-6.963,3.474-10.447q3.482-10.519,6.956-21.04c.131-.4.276-.786.424-1.2.558.289.648.8.861,1.215q2.428,4.7,4.821,9.419c.538,1.067,1.073,2.142,2.466,2.138,1.473,0,1.985-1.157,2.5-2.283.865-1.888,1.8-3.746,2.625-5.651a1.6,1.6,0,0,1,1.774-1.1c1.4.067,2.807.057,4.209.007a6.306,6.306,0,0,1,4.537,1.26c2.278,1.8,6.406.993,7.655-1.165a6.176,6.176,0,0,0-2.243-8.345,5.42,5.42,0,0,0-7.557,2.627,1.639,1.639,0,0,1-1.829,1.153c-2.273-.059-4.548,0-6.823-.024a2.78,2.78,0,0,0-2.84,1.817c-.61,1.4-1.3,2.76-1.965,4.159-.592-.308-.678-.823-.891-1.233q-2.7-5.213-5.359-10.446c-.51-1-1.123-1.854-2.379-1.793-1.326.064-1.875,1-2.248,2.131q-4.208,12.721-8.438,25.435a2.021,2.021,0,0,1-.551.925c-.179-2.454-.372-4.907-.533-7.361q-.934-14.254-1.855-28.509c-.35-5.306-.737-10.61-1.08-15.916-.085-1.312-.571-2.256-1.96-2.468-1.223-.187-2.127.535-2.512,2.069q-3.617,14.4-7.2,28.8c-.491,1.966-.983,3.932-1.5,6.007a2.679,2.679,0,0,1-.814-1.512c-1-2.669-1.934-5.36-2.943-8.024-.873-2.306-2.561-2.685-4.351-1.006q-3.282,3.078-6.524,6.2a2.368,2.368,0,0,1-1.79.746c-4.258-.027-8.517-.042-12.775.008-1.023.012-1.305-.316-1.3-1.32.031-11.462.017-22.923.024-34.385,0-1.614.354-1.961,1.932-2.016.338-.012.677,0,1.016,0q45.875,0,91.75,0a14.019,14.019,0,0,1,1.595.042,1.308,1.308,0,0,1,1.312,1.434c0,.386.009.774.009,1.16q0,37.286,0,74.573C-514.817,1965.219-514.958,1965.361-517.525,1965.361Z" transform="translate(616.912 -1880.983)" fill="#0065a5"/>
</svg>
