<svg xmlns="http://www.w3.org/2000/svg" width="105" height="104.857" viewBox="0 0 105 104.857">
  <g id="Grupo_22" data-name="Grupo 22" transform="translate(-312.966 -716.777)">
    <path id="Trazado_497" data-name="Trazado 497" d="M417.965,753.613c.124,14.422-11.4,28.847-27.4,32.3a2.875,2.875,0,0,0-2.143,1.736,78.948,78.948,0,0,1-32.116,33.615,2.358,2.358,0,0,1-2.559-.02,79.707,79.707,0,0,1-26.672-24.313,78.779,78.779,0,0,1-13.111-33.487,109.2,109.2,0,0,1-.993-12.143,19.743,19.743,0,0,1,.129-2.5c.164-1.812.454-2.141,2.269-2.463a57.064,57.064,0,0,0,37.168-23.817c.309-.449.611-.9.947-1.332a1.853,1.853,0,0,1,3.192.046c.9,1.228,1.8,2.462,2.67,3.716.347.5.6.572,1.1.144a34.75,34.75,0,0,1,36-5.61A34.807,34.807,0,0,1,412.4,732.869C416.116,738.643,417.984,744.957,417.965,753.613Zm-69.279-9.175a3.108,3.108,0,0,0-1.342.9,47.839,47.839,0,0,1-20.971,11.3.957.957,0,0,0-.882,1.125c.092,1.666.086,3.341.255,5a57.035,57.035,0,0,0,7.47,23.357,55.982,55.982,0,0,0,20.945,20.619,1.616,1.616,0,0,0,1.812-.011c1.762-1.019,3.473-2.113,5.126-3.3a56.424,56.424,0,0,0,15.149-16.214c.441-.711.449-.968-.5-1.171a34.047,34.047,0,0,1-17.933-9.909c-7.565-7.952-10.667-17.445-9.6-28.332C348.329,746.7,348.522,745.607,348.686,744.438Zm-31.925,8.355c.186,2.286.276,5.075.612,7.855a77.227,77.227,0,0,0,6.577,23.272,74.3,74.3,0,0,0,14.678,21.089,80.837,80.837,0,0,0,15.292,12.029,1.8,1.8,0,0,0,2.167.019A76.383,76.383,0,0,0,380,794.664a75.613,75.613,0,0,0,4.245-6.979c.14-.26.6-.772,0-.851a12.349,12.349,0,0,0-3.147.01c-.665.085-.805.881-1.11,1.4a59.775,59.775,0,0,1-23.667,22.572,2.449,2.449,0,0,1-2.58,0c-1.222-.716-2.463-1.4-3.666-2.148a59.016,59.016,0,0,1-18.023-17.3,59.647,59.647,0,0,1-9.452-23.809,57.6,57.6,0,0,1-.82-11.6c.072-1.975.5-2.319,2.453-2.7,10.135-1.982,18.053-7.71,25.028-14.947a82.691,82.691,0,0,0,6.41-8.362c1.292-1.737,1.292-1.685.1-3.437-.546-.8-.86-.868-1.464-.046a59.226,59.226,0,0,1-11.127,11.45A61.111,61.111,0,0,1,319.21,749.4C316.791,749.98,316.779,749.93,316.762,752.792ZM382.445,720.5c-16.983.515-30.671,13.828-30.708,31.209a31.246,31.246,0,0,0,62.491.345C414.3,734.17,400.129,720.5,382.445,720.5Z" transform="translate(0 0)" fill="#0065a5"/>
    <path id="Trazado_498" data-name="Trazado 498" d="M533.683,749.068c15.037-.176,28.582,12.74,27.838,29.322a28.034,28.034,0,0,1-56.016-2.4C506.041,761.092,518.627,748.781,533.683,749.068ZM512.656,777c.021,1.885.021,1.889-1.429,1.887-1.8,0-2-.365-1.649,1.97a24.181,24.181,0,0,0,20.186,20.131c1.913.283,1.974.281,1.9-1.685-.041-1.106.315-1.44,1.417-1.417,2.694.057,2.248-.126,2.242,2.174,0,.924.306,1.22,1.219,1.107a24.418,24.418,0,0,0,20.927-20.321c.3-1.952.3-2.013-1.7-1.944-1.1.038-1.45-.3-1.427-1.407.058-2.739-.106-2.244,2.176-2.244,1.055,0,1.27-.429,1.044-1.326a4.782,4.782,0,0,1-.1-.535A24.108,24.108,0,0,0,537.2,753.112c-1.856-.257-1.856-.257-1.849,1.67,0,1.412-.007,1.445-1.359,1.425-2.705-.04-2.271.257-2.283-2.239,0-.922-.38-1.157-1.189-1.018a25.8,25.8,0,0,0-5.481,1.378c-8.472,3.479-13.683,9.67-15.43,18.7-.417,2.154-.4,2.157,1.83,2.193.145,0,.291.013.436.008.547-.02.8.239.785.788C512.646,776.346,512.656,776.674,512.656,777Z" transform="translate(-150.542 -25.247)" fill="#0065a5"/>
    <path id="Trazado_499" data-name="Trazado 499" d="M598.777,835.178a2.083,2.083,0,0,1-1.564-.693c-2.633-2.644-5.243-5.311-7.89-7.942-.56-.557-.457-.912.052-1.424,1.975-1.984,1.95-1.988,3.911.025,1.645,1.688,3.345,3.323,4.966,5.034.577.609.9.189,1.24-.152q2.938-2.909,5.847-5.846,3.647-3.661,7.288-7.327c.076-.077.152-.194.244-.211,1.394-.256,1.622,1.179,2.467,1.729.517.336.405.766-.01,1.175q-3.755,3.7-7.495,7.416-3.78,3.753-7.55,7.516A1.835,1.835,0,0,1,598.777,835.178Z" transform="translate(-215.805 -78.067)" fill="#0065a5"/>
  </g>
</svg>
