<svg xmlns="http://www.w3.org/2000/svg" width="20.204" height="20.17" viewBox="0 0 20.204 20.17">
  <g id="Grupo_22934" data-name="Grupo 22934" transform="translate(-107.497 -1999.108)">
    <path id="Trazado_17554" data-name="Trazado 17554" d="M117.6,2091.607a16.126,16.126,0,0,1-6.47-1.161,9.468,9.468,0,0,1-2.659-1.73,2.921,2.921,0,0,1-.113-4.245,8.638,8.638,0,0,1,5.125-2.588.947.947,0,0,1,1.089.818,1.021,1.021,0,0,1-.767,1.142,18.53,18.53,0,0,0-2.2.749,6.708,6.708,0,0,0-1.684,1.177.971.971,0,0,0,.028,1.594,5.645,5.645,0,0,0,1.662,1.1,16.232,16.232,0,0,0,11.977.017,5.381,5.381,0,0,0,1.4-.832c.9-.716.956-1.507.011-2.167a19.131,19.131,0,0,0-2.837-1.433c-.261-.123-.572-.138-.845-.242a.936.936,0,0,1-.654-1.143.885.885,0,0,1,1.053-.779,8.409,8.409,0,0,1,5.248,2.72,2.976,2.976,0,0,1-.1,4.027,6.8,6.8,0,0,1-2.748,1.833A17.686,17.686,0,0,1,117.6,2091.607Z" transform="translate(0 -72.329)" fill="#fff"/>
    <path id="Trazado_17555" data-name="Trazado 17555" d="M158.691,2010.449c0-.9-.025-1.8.01-2.7a.793.793,0,0,0-.582-.919,3.96,3.96,0,0,1-2.4-4.326,4.032,4.032,0,0,1,7.814-.609,3.966,3.966,0,0,1-2.249,4.936.8.8,0,0,0-.582.918c.024,1.845.012,3.69.009,5.535,0,.8-.364,1.267-.977,1.288-.637.022-1.037-.469-1.04-1.289C158.688,2012.337,158.691,2011.393,158.691,2010.449Zm.984-9.318a2.011,2.011,0,1,0,2.037,1.969A2.017,2.017,0,0,0,159.674,2001.132Z" transform="translate(-42.093)" fill="#fff"/>
  </g>
</svg>
