<svg xmlns="http://www.w3.org/2000/svg" width="288.116" height="86.212" viewBox="0 0 288.116 86.212">
  <g id="Grupo_22908" data-name="Grupo 22908" transform="translate(-98.213 -787.918)">
    <g id="Grupo_1" data-name="Grupo 1" transform="translate(199.366 795.549)">
      <path id="Trazado_1" data-name="Trazado 1" d="M414.464,819.134a7.693,7.693,0,0,1,.634-3.214,6.7,6.7,0,0,1,1.67-2.3,7.208,7.208,0,0,1,2.326-1.374,7.5,7.5,0,0,1,5.2,0,7.221,7.221,0,0,1,2.326,1.374,6.712,6.712,0,0,1,1.671,2.3,7.7,7.7,0,0,1,.635,3.214v1.522h-4.314v-1.522a2.87,2.87,0,0,0-.867-2.3,3.213,3.213,0,0,0-4.1,0,2.868,2.868,0,0,0-.867,2.3v15.9a2.866,2.866,0,0,0,.867,2.305,3.212,3.212,0,0,0,4.1,0,2.869,2.869,0,0,0,.867-2.305v-5.667h-3.426v-3.806h7.739v9.473a7.655,7.655,0,0,1-.635,3.235,6.751,6.751,0,0,1-1.671,2.284,7.189,7.189,0,0,1-2.326,1.374,7.5,7.5,0,0,1-5.2,0,7.177,7.177,0,0,1-2.326-1.374,6.742,6.742,0,0,1-1.67-2.284,7.651,7.651,0,0,1-.634-3.235Z" transform="translate(-414.464 -811.775)" fill="#fff"/>
      <path id="Trazado_2" data-name="Trazado 2" d="M483.688,861.115h-4.313v-2.072h-.085a6.128,6.128,0,0,1-1.628,1.67,4.2,4.2,0,0,1-2.432.656,4.932,4.932,0,0,1-1.607-.275,3.709,3.709,0,0,1-1.438-.909,4.576,4.576,0,0,1-1.015-1.628,6.826,6.826,0,0,1-.381-2.431V839.674H475.1v14.844a2.868,2.868,0,0,0,.55,1.861,1.9,1.9,0,0,0,1.564.677,1.82,1.82,0,0,0,1.692-.761,4.253,4.253,0,0,0,.465-2.2V839.674h4.313Z" transform="translate(-452.773 -830.75)" fill="#fff"/>
      <path id="Trazado_3" data-name="Trazado 3" d="M528.855,858.376h-.084a7.983,7.983,0,0,1-1.713,1.818,4.058,4.058,0,0,1-2.432.635,5.624,5.624,0,0,1-1.565-.233,3.906,3.906,0,0,1-1.5-.846,4.427,4.427,0,0,1-1.142-1.734,7.969,7.969,0,0,1-.444-2.9,15.279,15.279,0,0,1,.3-3.193,5.061,5.061,0,0,1,1.078-2.283,4.658,4.658,0,0,1,2.093-1.353,10.581,10.581,0,0,1,3.341-.444c.31,0,.62.015.93.042s.691.057,1.142.085v-2.242a3.291,3.291,0,0,0-.465-1.818,1.862,1.862,0,0,0-1.692-.719,2.435,2.435,0,0,0-1.544.55,2.61,2.61,0,0,0-.909,1.607h-4.187A7.044,7.044,0,0,1,522,840.7a6.118,6.118,0,0,1,2.03-1.332,6.96,6.96,0,0,1,2.664-.487,7.5,7.5,0,0,1,2.537.423,5.6,5.6,0,0,1,2.051,1.269,6.048,6.048,0,0,1,1.375,2.115,7.945,7.945,0,0,1,.507,2.96v14.928h-4.314Zm0-7.02a7.056,7.056,0,0,0-1.184-.127,4.24,4.24,0,0,0-2.389.655,2.649,2.649,0,0,0-.994,2.389,3.143,3.143,0,0,0,.592,1.988,1.971,1.971,0,0,0,1.649.761,2.129,2.129,0,0,0,1.713-.719,3.037,3.037,0,0,0,.613-2.03Z" transform="translate(-486.227 -830.21)" fill="#fff"/>
      <path id="Trazado_4" data-name="Trazado 4" d="M571.142,839.134h4.314v2.284a13.12,13.12,0,0,1,2.58-1.861,6.591,6.591,0,0,1,3.129-.677v4.567a3.5,3.5,0,0,0-1.311-.254,5.154,5.154,0,0,0-1.459.232,3.992,3.992,0,0,0-1.438.783,4.181,4.181,0,0,0-1.078,1.438,5.1,5.1,0,0,0-.423,2.2v12.729h-4.314Z" transform="translate(-521.029 -830.21)" fill="#fff"/>
      <path id="Trazado_5" data-name="Trazado 5" d="M616.484,840.734q-.423.466-.8.867a4.433,4.433,0,0,1-.846.7,3.986,3.986,0,0,1-1.057.465,5.127,5.127,0,0,1-1.4.17,3.924,3.924,0,0,1-3.764-2.03,5.73,5.73,0,0,1-.55-1.776,18.749,18.749,0,0,1-.169-2.834v-8.162a33.054,33.054,0,0,1,.127-3.426,4.258,4.258,0,0,1,.55-1.776,4.615,4.615,0,0,1,1.417-1.4,4.54,4.54,0,0,1,2.432-.55,4.463,4.463,0,0,1,2.263.571,5.227,5.227,0,0,1,1.713,1.628h.084V812.569H620.8v30.111h-4.314Zm-4.271-5.032a3.914,3.914,0,0,0,.507,2.114,1.761,1.761,0,0,0,1.607.8,1.906,1.906,0,0,0,1.565-.74,2.986,2.986,0,0,0,.592-1.924v-8.331a2.351,2.351,0,0,0-.613-1.67,2.025,2.025,0,0,0-1.544-.656,1.767,1.767,0,0,0-1.671.761,3.464,3.464,0,0,0-.444,1.776Z" transform="translate(-546.029 -812.315)" fill="#fff"/>
      <path id="Trazado_6" data-name="Trazado 6" d="M659.332,812.569h4.313v4.314h-4.313Zm0,8.67h4.313v21.441h-4.313Z" transform="translate(-581.011 -812.315)" fill="#fff"/>
      <path id="Trazado_7" data-name="Trazado 7" d="M690.557,858.376h-.084a7.966,7.966,0,0,1-1.713,1.818,4.057,4.057,0,0,1-2.432.635,5.625,5.625,0,0,1-1.565-.233,3.91,3.91,0,0,1-1.5-.846,4.427,4.427,0,0,1-1.141-1.734,7.959,7.959,0,0,1-.444-2.9,15.279,15.279,0,0,1,.3-3.193,5.06,5.06,0,0,1,1.079-2.283,4.657,4.657,0,0,1,2.093-1.353,10.578,10.578,0,0,1,3.341-.444c.31,0,.62.015.931.042s.691.057,1.141.085v-2.242a3.289,3.289,0,0,0-.465-1.818,1.861,1.861,0,0,0-1.692-.719,2.434,2.434,0,0,0-1.543.55,2.608,2.608,0,0,0-.909,1.607h-4.187a7.042,7.042,0,0,1,1.945-4.652,6.12,6.12,0,0,1,2.03-1.332,6.961,6.961,0,0,1,2.664-.487,7.493,7.493,0,0,1,2.537.423,5.6,5.6,0,0,1,2.052,1.269,6.048,6.048,0,0,1,1.374,2.115,7.932,7.932,0,0,1,.508,2.96v14.928h-4.314Zm0-7.02a7.05,7.05,0,0,0-1.184-.127,4.24,4.24,0,0,0-2.389.655,2.649,2.649,0,0,0-.994,2.389,3.144,3.144,0,0,0,.592,1.988,1.972,1.972,0,0,0,1.65.761,2.13,2.13,0,0,0,1.713-.719,3.038,3.038,0,0,0,.613-2.03Z" transform="translate(-596.208 -830.21)" fill="#fff"/>
      <path id="Trazado_8" data-name="Trazado 8" d="M732.843,839.134h4.314v2.072h.084a6.139,6.139,0,0,1,1.628-1.671,4.194,4.194,0,0,1,2.432-.656,4.953,4.953,0,0,1,1.607.275,3.726,3.726,0,0,1,1.438.909,4.6,4.6,0,0,1,1.015,1.628,6.839,6.839,0,0,1,.38,2.432v16.451h-4.313V845.731a2.87,2.87,0,0,0-.55-1.86,1.9,1.9,0,0,0-1.565-.677,1.819,1.819,0,0,0-1.692.761,4.251,4.251,0,0,0-.465,2.2v14.421h-4.314Z" transform="translate(-631.01 -830.21)" fill="#fff"/>
      <path id="Trazado_9" data-name="Trazado 9" d="M783.316,816.629h-4.99v-4.06H792.62v4.06h-4.99v26.051h-4.314Z" transform="translate(-661.945 -812.315)" fill="#fff"/>
      <path id="Trazado_10" data-name="Trazado 10" d="M819.974,839.134h4.314v2.284a13.122,13.122,0,0,1,2.58-1.861,6.6,6.6,0,0,1,3.13-.677v4.567a3.506,3.506,0,0,0-1.311-.254,5.151,5.151,0,0,0-1.458.232,3.991,3.991,0,0,0-1.438.783,4.186,4.186,0,0,0-1.078,1.438,5.1,5.1,0,0,0-.423,2.2v12.729h-4.314Z" transform="translate(-690.272 -830.21)" fill="#fff"/>
      <path id="Trazado_11" data-name="Trazado 11" d="M862.572,858.376h-.084a7.972,7.972,0,0,1-1.713,1.818,4.058,4.058,0,0,1-2.432.635,5.624,5.624,0,0,1-1.565-.233,3.907,3.907,0,0,1-1.5-.846,4.422,4.422,0,0,1-1.142-1.734,7.971,7.971,0,0,1-.444-2.9,15.3,15.3,0,0,1,.3-3.193,5.06,5.06,0,0,1,1.079-2.283,4.657,4.657,0,0,1,2.093-1.353,10.579,10.579,0,0,1,3.341-.444c.31,0,.62.015.931.042s.69.057,1.141.085v-2.242a3.285,3.285,0,0,0-.465-1.818,1.86,1.86,0,0,0-1.691-.719,2.435,2.435,0,0,0-1.544.55,2.608,2.608,0,0,0-.909,1.607h-4.187a7.043,7.043,0,0,1,1.945-4.652,6.121,6.121,0,0,1,2.03-1.332,6.961,6.961,0,0,1,2.664-.487,7.493,7.493,0,0,1,2.537.423A5.6,5.6,0,0,1,865,840.572a6.052,6.052,0,0,1,1.374,2.115,7.94,7.94,0,0,1,.508,2.96v14.928h-4.314Zm0-7.02a7.052,7.052,0,0,0-1.184-.127,4.24,4.24,0,0,0-2.389.655,2.649,2.649,0,0,0-.994,2.389,3.143,3.143,0,0,0,.592,1.988,1.971,1.971,0,0,0,1.649.761,2.129,2.129,0,0,0,1.713-.719,3.039,3.039,0,0,0,.613-2.03Z" transform="translate(-713.205 -830.21)" fill="#fff"/>
      <path id="Trazado_12" data-name="Trazado 12" d="M909.967,854.4a2.069,2.069,0,0,0,.571,1.565,2.13,2.13,0,0,0,1.543.55,1.7,1.7,0,0,0,1.628-.719,3.876,3.876,0,0,0,.486-1.438h4.313a7.16,7.16,0,0,1-.444,2.537,5.614,5.614,0,0,1-1.29,2.03,6.067,6.067,0,0,1-2.03,1.4,6.707,6.707,0,0,1-2.664.508,6.633,6.633,0,0,1-3.426-.846,5.687,5.687,0,0,1-2.833-4.187,15.867,15.867,0,0,1-.169-2.411v-7.063a15.875,15.875,0,0,1,.169-2.41,5.685,5.685,0,0,1,2.833-4.187,6.64,6.64,0,0,1,3.426-.846,6.861,6.861,0,0,1,2.685.508,5.664,5.664,0,0,1,2.03,1.417,6.288,6.288,0,0,1,1.269,2.178,8.264,8.264,0,0,1,.444,2.749H914.2a2.755,2.755,0,0,0-.571-1.924,2.25,2.25,0,0,0-3.087,0,2.616,2.616,0,0,0-.571,1.84Z" transform="translate(-748.547 -830.21)" fill="#fff"/>
      <path id="Trazado_13" data-name="Trazado 13" d="M952.194,812.569h4.314v18.016h.084l5.2-9.346h4.314l-5.117,8.712,6.174,12.729h-4.694l-3.891-9.261-2.072,3.256v6.005h-4.314Z" transform="translate(-780.201 -812.315)" fill="#fff"/>
    </g>
    <g id="Grupo_2" data-name="Grupo 2" transform="translate(200.403 834.546)">
      <path id="Trazado_14" data-name="Trazado 14" d="M417.706,938.43a4.95,4.95,0,0,1,.408-2.067,4.308,4.308,0,0,1,1.074-1.482,4.628,4.628,0,0,1,1.5-.884,4.818,4.818,0,0,1,3.345,0,4.634,4.634,0,0,1,1.5.884,4.313,4.313,0,0,1,1.074,1.482,4.95,4.95,0,0,1,.408,2.067v.979h-2.774v-.979a1.846,1.846,0,0,0-.557-1.482,2.066,2.066,0,0,0-2.638,0,1.845,1.845,0,0,0-.558,1.482v10.226a1.842,1.842,0,0,0,.558,1.482,2.065,2.065,0,0,0,2.638,0,1.843,1.843,0,0,0,.557-1.482v-3.644h-2.2v-2.448h4.977v6.092a4.926,4.926,0,0,1-.408,2.081,4.344,4.344,0,0,1-1.074,1.469,4.618,4.618,0,0,1-1.5.884,4.827,4.827,0,0,1-3.345,0,4.612,4.612,0,0,1-1.5-.884,4.338,4.338,0,0,1-1.074-1.469,4.926,4.926,0,0,1-.408-2.081Z" transform="translate(-417.706 -933.698)" fill="#fff"/>
      <path id="Trazado_15" data-name="Trazado 15" d="M454.439,934.209H458.6a6.188,6.188,0,0,1,2.012.3,3.869,3.869,0,0,1,1.577,1.06,4.153,4.153,0,0,1,.979,1.782,11.157,11.157,0,0,1,.272,2.76,13.734,13.734,0,0,1-.15,2.19,4.605,4.605,0,0,1-.639,1.7,4.048,4.048,0,0,1-1.523,1.482,5.129,5.129,0,0,1-2.5.53h-1.414v7.561h-2.774Zm2.774,9.192h1.333a2.835,2.835,0,0,0,1.305-.245,1.557,1.557,0,0,0,.68-.666,2.6,2.6,0,0,0,.258-1.02q.041-.6.041-1.333,0-.68-.041-1.292a3.033,3.033,0,0,0-.245-1.061,1.557,1.557,0,0,0-.639-.707,2.477,2.477,0,0,0-1.251-.258h-1.442Z" transform="translate(-442.69 -934.046)" fill="#fff"/>
      <path id="Trazado_16" data-name="Trazado 16" d="M496.865,939.437h-2.774v-.626a2.959,2.959,0,0,0-.449-1.645,1.659,1.659,0,0,0-1.509-.694,1.82,1.82,0,0,0-.938.217,1.61,1.61,0,0,0-.571.558,2.332,2.332,0,0,0-.286.788,5.241,5.241,0,0,0-.081.938q0,.572.041.966a1.718,1.718,0,0,0,.2.68,1.561,1.561,0,0,0,.476.5,4.335,4.335,0,0,0,.857.435l2.121.843a5.28,5.28,0,0,1,1.5.83,3.375,3.375,0,0,1,.884,1.115,4.739,4.739,0,0,1,.422,1.469,14.789,14.789,0,0,1,.109,1.89,9.954,9.954,0,0,1-.245,2.271,4.791,4.791,0,0,1-.8,1.8,3.852,3.852,0,0,1-1.482,1.183,5.279,5.279,0,0,1-2.257.435,4.942,4.942,0,0,1-1.877-.353,4.466,4.466,0,0,1-2.488-2.421,4.509,4.509,0,0,1-.367-1.822v-1.034h2.774v.87a2.268,2.268,0,0,0,.449,1.374,1.748,1.748,0,0,0,1.509.611,2.436,2.436,0,0,0,1.1-.2,1.408,1.408,0,0,0,.6-.571,2.356,2.356,0,0,0,.258-.911q.054-.544.054-1.2a11.757,11.757,0,0,0-.054-1.251,1.994,1.994,0,0,0-.231-.789,1.413,1.413,0,0,0-.49-.489,6.565,6.565,0,0,0-.829-.408l-1.986-.816a4.4,4.4,0,0,1-2.407-1.944,6.692,6.692,0,0,1-.612-3.033,7.031,7.031,0,0,1,.3-2.067,4.817,4.817,0,0,1,.884-1.686,4.21,4.21,0,0,1,1.482-1.129,4.88,4.88,0,0,1,2.094-.422,4.607,4.607,0,0,1,1.89.381,4.7,4.7,0,0,1,1.469,1.006,4.484,4.484,0,0,1,.938,1.4,4.064,4.064,0,0,1,.326,1.591Z" transform="translate(-465.072 -933.698)" fill="#fff"/>
      <path id="Trazado_17" data-name="Trazado 17" d="M549.037,953.573h-2.611L544.3,941.008h-.054l-2.094,12.565h-2.611l-2.883-19.364H539.6l1.387,12.293h.055l2.175-12.293h2.121L547.6,946.8h.054l1.333-12.592h2.937Z" transform="translate(-498.614 -934.046)" fill="#fff"/>
      <path id="Trazado_18" data-name="Trazado 18" d="M592.032,963.668h-.054a5.128,5.128,0,0,1-1.1,1.17,2.606,2.606,0,0,1-1.564.408,3.622,3.622,0,0,1-1.006-.15,2.511,2.511,0,0,1-.966-.544,2.843,2.843,0,0,1-.734-1.115,5.122,5.122,0,0,1-.286-1.863,9.815,9.815,0,0,1,.191-2.053,3.258,3.258,0,0,1,.694-1.469,3,3,0,0,1,1.346-.87,6.813,6.813,0,0,1,2.149-.286q.3,0,.6.027t.734.054v-1.442a2.116,2.116,0,0,0-.3-1.169,1.2,1.2,0,0,0-1.088-.463,1.567,1.567,0,0,0-.992.354,1.679,1.679,0,0,0-.585,1.034h-2.692a4.531,4.531,0,0,1,1.251-2.992,3.929,3.929,0,0,1,1.306-.856,4.47,4.47,0,0,1,1.713-.313,4.826,4.826,0,0,1,1.632.272,3.6,3.6,0,0,1,1.319.816,3.884,3.884,0,0,1,.884,1.36,5.11,5.11,0,0,1,.326,1.9v9.6h-2.774Zm0-4.514a4.568,4.568,0,0,0-.762-.082,2.733,2.733,0,0,0-1.536.422,1.705,1.705,0,0,0-.639,1.536,2.022,2.022,0,0,0,.381,1.279,1.267,1.267,0,0,0,1.061.49,1.369,1.369,0,0,0,1.1-.462,1.957,1.957,0,0,0,.394-1.306Z" transform="translate(-532.389 -945.554)" fill="#fff"/>
      <path id="Trazado_19" data-name="Trazado 19" d="M616.278,938.546h2.774v4.188h1.713v2.176h-1.713v7.642a2.39,2.39,0,0,0,.1.762.774.774,0,0,0,.3.408,1.11,1.11,0,0,0,.53.164q.326.027.788.027v2.611h-1.143a3.74,3.74,0,0,1-1.591-.3,2.861,2.861,0,0,1-1.02-.762,2.973,2.973,0,0,1-.557-1.047,3.885,3.885,0,0,1-.177-1.129V944.91h-1.387v-2.176h1.387Z" transform="translate(-551.822 -936.995)" fill="#fff"/>
      <path id="Trazado_20" data-name="Trazado 20" d="M639.858,961.112a1.333,1.333,0,0,0,.367,1.006,1.371,1.371,0,0,0,.993.353,1.094,1.094,0,0,0,1.048-.462,2.488,2.488,0,0,0,.312-.925h2.774a4.6,4.6,0,0,1-.285,1.632,3.613,3.613,0,0,1-.829,1.306,3.909,3.909,0,0,1-1.306.9,4.314,4.314,0,0,1-1.713.326,4.267,4.267,0,0,1-2.2-.544,3.654,3.654,0,0,1-1.822-2.693,10.175,10.175,0,0,1-.109-1.55v-4.542a10.175,10.175,0,0,1,.109-1.55,3.656,3.656,0,0,1,1.822-2.693,4.269,4.269,0,0,1,2.2-.544,4.4,4.4,0,0,1,1.727.327,3.632,3.632,0,0,1,1.3.911,4.044,4.044,0,0,1,.816,1.4,5.309,5.309,0,0,1,.285,1.768h-2.774a1.771,1.771,0,0,0-.367-1.237,1.447,1.447,0,0,0-1.986,0,1.684,1.684,0,0,0-.367,1.183Z" transform="translate(-566.916 -945.554)" fill="#fff"/>
      <path id="Trazado_21" data-name="Trazado 21" d="M667.014,934.209h2.775v6.908h.054a3.933,3.933,0,0,1,1.047-1.074,2.7,2.7,0,0,1,1.564-.422,3.181,3.181,0,0,1,1.033.177,2.392,2.392,0,0,1,.925.585,2.945,2.945,0,0,1,.653,1.047,4.386,4.386,0,0,1,.245,1.564v10.579h-2.774v-9.546a1.848,1.848,0,0,0-.353-1.2,1.223,1.223,0,0,0-1.006-.435,1.169,1.169,0,0,0-1.088.49,2.732,2.732,0,0,0-.3,1.414v9.274h-2.775Z" transform="translate(-587.273 -934.046)" fill="#fff"/>
    </g>
    <g id="Grupo_3" data-name="Grupo 3" transform="translate(297.732 842.617)">
      <path id="Trazado_22" data-name="Trazado 22" d="M722.005,959.242h2.459a3.45,3.45,0,0,1,1.379.248,2.6,2.6,0,0,1,.933.66,2.467,2.467,0,0,1,.52.95,3.945,3.945,0,0,1,.157,1.114v.429a3.744,3.744,0,0,1-.074.809,1.94,1.94,0,0,1-.223.578,1.857,1.857,0,0,1-.363.437,3.146,3.146,0,0,1-.5.355,1.812,1.812,0,0,1,.875.834,3.283,3.283,0,0,1,.281,1.477v.66a3.414,3.414,0,0,1-.751,2.377,3.1,3.1,0,0,1-2.4.826h-2.294Zm1.684,4.82h.759a1.285,1.285,0,0,0,1.13-.421,2.168,2.168,0,0,0,.289-1.229,1.856,1.856,0,0,0-.322-1.189,1.433,1.433,0,0,0-1.164-.4h-.693Zm0,5.249h.726a1.773,1.773,0,0,0,.8-.149,1.026,1.026,0,0,0,.437-.413,1.544,1.544,0,0,0,.181-.627q.033-.363.033-.792a5.271,5.271,0,0,0-.05-.776,1.274,1.274,0,0,0-.206-.553.969.969,0,0,0-.437-.338,1.982,1.982,0,0,0-.743-.116h-.743Z" transform="translate(-722.005 -959.143)" fill="#fff"/>
      <path id="Trazado_23" data-name="Trazado 23" d="M743.244,969.822l1.155,5.216h.033l1.139-5.216H747.3l-2.41,9.822a2.981,2.981,0,0,1-.372.933,2.137,2.137,0,0,1-.553.594,2.011,2.011,0,0,1-.669.313,2.969,2.969,0,0,1-.734.091H742.1v-1.585h.38a1.263,1.263,0,0,0,.429-.066.665.665,0,0,0,.322-.289,2.471,2.471,0,0,0,.256-.66q.115-.438.264-1.164l-2.295-7.99Z" transform="translate(-735.238 -966.339)" fill="#fff"/>
      <path id="Trazado_24" data-name="Trazado 24" d="M776.893,968.159a2.682,2.682,0,0,1-.206,1.039,2.743,2.743,0,0,1-.57.867,2.81,2.81,0,0,1-.85.594,2.482,2.482,0,0,1-1.048.223,3.76,3.76,0,0,1-.974-.132,2.352,2.352,0,0,1-.891-.454,2.449,2.449,0,0,1-.652-.85,3.06,3.06,0,0,1-.256-1.337v-6.471a2.862,2.862,0,0,1,.2-1.073,2.524,2.524,0,0,1,.561-.858,2.622,2.622,0,0,1,.867-.57,2.909,2.909,0,0,1,1.114-.206,2.762,2.762,0,0,1,1.073.206,2.573,2.573,0,0,1,.858.578,2.676,2.676,0,0,1,.57.892,3.045,3.045,0,0,1,.206,1.131v.66h-1.683v-.561a1.363,1.363,0,0,0-.281-.859.911.911,0,0,0-.759-.363.856.856,0,0,0-.834.388,2.079,2.079,0,0,0-.206.983v6.009a1.553,1.553,0,0,0,.223.858.877.877,0,0,0,.8.346,1.216,1.216,0,0,0,.355-.057.963.963,0,0,0,.346-.19.952.952,0,0,0,.256-.363,1.464,1.464,0,0,0,.1-.577v-.578h1.683Z" transform="translate(-755.632 -958.931)" fill="#fff"/>
      <path id="Trazado_25" data-name="Trazado 25" d="M791.987,972.416a6.245,6.245,0,0,1,.066-.941,2.221,2.221,0,0,1,1.106-1.634,2.873,2.873,0,0,1,2.674,0,2.221,2.221,0,0,1,1.106,1.634,6.186,6.186,0,0,1,.066.941v2.757a6.174,6.174,0,0,1-.066.941,2.22,2.22,0,0,1-1.106,1.634,2.875,2.875,0,0,1-2.674,0,2.221,2.221,0,0,1-1.106-1.634,6.233,6.233,0,0,1-.066-.941Zm1.684,3.021a1.024,1.024,0,0,0,.222.718.88.88,0,0,0,1.206,0,1.024,1.024,0,0,0,.222-.718v-3.285a1.023,1.023,0,0,0-.222-.718.878.878,0,0,0-1.206,0,1.023,1.023,0,0,0-.222.718Z" transform="translate(-769.603 -966.127)" fill="#fff"/>
      <path id="Trazado_26" data-name="Trazado 26" d="M812.682,978.191H811.2l-2.179-8.369H810.8l1.122,5.348h.033l1.123-5.348h1.783Z" transform="translate(-781.187 -966.339)" fill="#fff"/>
      <path id="Trazado_27" data-name="Trazado 27" d="M830.313,974.43v1.139a.809.809,0,0,0,.223.611.833.833,0,0,0,.6.214.663.663,0,0,0,.636-.28,1.519,1.519,0,0,0,.19-.561h1.684a2.8,2.8,0,0,1-.173.99,2.2,2.2,0,0,1-.5.792,2.372,2.372,0,0,1-.793.545,2.854,2.854,0,0,1-2.377-.132,2.22,2.22,0,0,1-1.106-1.634,6.232,6.232,0,0,1-.066-.941v-2.757a6.244,6.244,0,0,1,.066-.941,2.22,2.22,0,0,1,1.106-1.634,2.592,2.592,0,0,1,1.337-.33,2.673,2.673,0,0,1,1.049.2,2.207,2.207,0,0,1,.793.553,2.49,2.49,0,0,1,.5.833,2.991,2.991,0,0,1,.173,1.024v2.311Zm0-1.321h1.651v-.958a1.021,1.021,0,0,0-.223-.718.878.878,0,0,0-1.205,0,1.021,1.021,0,0,0-.223.718Z" transform="translate(-794.525 -966.127)" fill="#fff"/>
      <path id="Trazado_28" data-name="Trazado 28" d="M848.188,969.61h1.684v.891a5.112,5.112,0,0,1,1.007-.726,2.574,2.574,0,0,1,1.222-.264v1.783a1.368,1.368,0,0,0-.512-.1,2.022,2.022,0,0,0-.57.091,1.56,1.56,0,0,0-.561.306,1.634,1.634,0,0,0-.421.561,1.985,1.985,0,0,0-.165.859v4.969h-1.684Z" transform="translate(-807.828 -966.127)" fill="#fff"/>
      <path id="Trazado_29" data-name="Trazado 29" d="M860.746,961.874h1.684v2.542h1.04v1.321h-1.04v4.639a1.453,1.453,0,0,0,.058.462.472.472,0,0,0,.182.248.669.669,0,0,0,.322.1c.132.011.291.016.478.016v1.585h-.693a2.272,2.272,0,0,1-.966-.182,1.743,1.743,0,0,1-.619-.462,1.811,1.811,0,0,1-.338-.635,2.356,2.356,0,0,1-.107-.686v-5.084H859.9v-1.321h.842Z" transform="translate(-815.797 -960.933)" fill="#fff"/>
      <path id="Trazado_30" data-name="Trazado 30" d="M882.974,959.242h2.707q2.971,0,2.971,3.45a4.359,4.359,0,0,1-.321,1.758,2.487,2.487,0,0,1-1.131,1.18L889.016,971h-1.782l-1.569-5.019h-1.007V971h-1.684Zm1.684,5.249h.957a1.7,1.7,0,0,0,.71-.124.916.916,0,0,0,.4-.355,1.512,1.512,0,0,0,.19-.57,6.22,6.22,0,0,0,0-1.568,1.421,1.421,0,0,0-.206-.578.937.937,0,0,0-.437-.355,1.982,1.982,0,0,0-.743-.116h-.875Z" transform="translate(-831.488 -959.143)" fill="#fff"/>
      <path id="Trazado_31" data-name="Trazado 31" d="M905.869,974.43v1.139a.809.809,0,0,0,.223.611.832.832,0,0,0,.6.214.663.663,0,0,0,.636-.28,1.518,1.518,0,0,0,.19-.561H909.2a2.809,2.809,0,0,1-.173.99,2.2,2.2,0,0,1-.5.792,2.372,2.372,0,0,1-.793.545,2.854,2.854,0,0,1-2.377-.132,2.219,2.219,0,0,1-1.107-1.634,6.263,6.263,0,0,1-.066-.941v-2.757a6.276,6.276,0,0,1,.066-.941,2.219,2.219,0,0,1,1.107-1.634,2.591,2.591,0,0,1,1.337-.33,2.673,2.673,0,0,1,1.048.2,2.208,2.208,0,0,1,.792.553,2.494,2.494,0,0,1,.5.833,3,3,0,0,1,.173,1.024v2.311Zm0-1.321h1.651v-.958a1.021,1.021,0,0,0-.222-.718.878.878,0,0,0-1.205,0,1.021,1.021,0,0,0-.223.718Z" transform="translate(-845.915 -966.127)" fill="#fff"/>
      <path id="Trazado_32" data-name="Trazado 32" d="M926.167,971.954a.84.84,0,0,0-.272-.643.889.889,0,0,0-.586-.215.754.754,0,0,0-.611.256.887.887,0,0,0-.215.586.971.971,0,0,0,.116.454,1.07,1.07,0,0,0,.594.4l.99.4a2.407,2.407,0,0,1,1.3.99,2.74,2.74,0,0,1,.355,1.371,2.523,2.523,0,0,1-.19.982,2.612,2.612,0,0,1-.52.8,2.361,2.361,0,0,1-.792.545,2.528,2.528,0,0,1-1.007.2,2.691,2.691,0,0,1-.941-.165,2.32,2.32,0,0,1-.784-.479,2.418,2.418,0,0,1-.553-.784,2.811,2.811,0,0,1-.231-1.1H924.4a1.611,1.611,0,0,0,.24.643.731.731,0,0,0,.668.3,1,1,0,0,0,.652-.239.822.822,0,0,0,.289-.669.977.977,0,0,0-.182-.594,1.43,1.43,0,0,0-.66-.429l-.809-.3a2.754,2.754,0,0,1-1.247-.883,2.261,2.261,0,0,1-.454-1.428,2.432,2.432,0,0,1,.2-.982,2.359,2.359,0,0,1,.537-.776,2.481,2.481,0,0,1,.784-.5,2.508,2.508,0,0,1,.958-.182,2.362,2.362,0,0,1,.949.19,2.323,2.323,0,0,1,.751.512,2.353,2.353,0,0,1,.5.776,2.581,2.581,0,0,1,.182.966Z" transform="translate(-858.587 -966.127)" fill="#fff"/>
      <path id="Trazado_33" data-name="Trazado 33" d="M946.946,978.191h-1.684v-.809h-.033a2.381,2.381,0,0,1-.635.652,1.635,1.635,0,0,1-.949.256,1.927,1.927,0,0,1-.627-.107,1.452,1.452,0,0,1-.562-.355,1.79,1.79,0,0,1-.4-.635,2.67,2.67,0,0,1-.149-.949v-6.421h1.684v5.794a1.12,1.12,0,0,0,.215.726.742.742,0,0,0,.611.264.71.71,0,0,0,.66-.3,1.66,1.66,0,0,0,.182-.858v-5.629h1.684Z" transform="translate(-871.574 -966.339)" fill="#fff"/>
      <path id="Trazado_34" data-name="Trazado 34" d="M961.678,959.242h1.684v9.392a.928.928,0,0,0,.173.652,1.1,1.1,0,0,0,.652.223v1.585a5.521,5.521,0,0,1-1.048-.091,1.792,1.792,0,0,1-.792-.346,1.617,1.617,0,0,1-.5-.718,3.431,3.431,0,0,1-.173-1.189Z" transform="translate(-885.019 -959.143)" fill="#fff"/>
      <path id="Trazado_35" data-name="Trazado 35" d="M969.8,961.874h1.684v2.542h1.04v1.321h-1.04v4.639a1.451,1.451,0,0,0,.058.462.471.471,0,0,0,.181.248.67.67,0,0,0,.322.1c.132.011.291.016.478.016v1.585h-.693a2.27,2.27,0,0,1-.966-.182,1.742,1.742,0,0,1-.619-.462,1.807,1.807,0,0,1-.339-.635,2.346,2.346,0,0,1-.108-.686v-5.084h-.842v-1.321h.842Z" transform="translate(-889.967 -960.933)" fill="#fff"/>
      <path id="Trazado_36" data-name="Trazado 36" d="M984.538,971.954a.838.838,0,0,0-.273-.643.887.887,0,0,0-.586-.215.752.752,0,0,0-.61.256.885.885,0,0,0-.215.586.972.972,0,0,0,.116.454,1.071,1.071,0,0,0,.594.4l.99.4a2.4,2.4,0,0,1,1.3.99,2.738,2.738,0,0,1,.355,1.371,2.523,2.523,0,0,1-.19.982,2.619,2.619,0,0,1-.52.8,2.368,2.368,0,0,1-.792.545,2.53,2.53,0,0,1-1.007.2,2.689,2.689,0,0,1-.941-.165,2.317,2.317,0,0,1-.784-.479,2.414,2.414,0,0,1-.553-.784,2.805,2.805,0,0,1-.231-1.1h1.585a1.6,1.6,0,0,0,.24.643.731.731,0,0,0,.668.3,1,1,0,0,0,.652-.239.821.821,0,0,0,.289-.669.975.975,0,0,0-.182-.594,1.429,1.429,0,0,0-.66-.429l-.809-.3a2.753,2.753,0,0,1-1.246-.883,2.259,2.259,0,0,1-.454-1.428,2.428,2.428,0,0,1,.2-.982A2.352,2.352,0,0,1,982,970.2a2.5,2.5,0,0,1,1.742-.685,2.362,2.362,0,0,1,.949.19,2.278,2.278,0,0,1,1.246,1.287,2.578,2.578,0,0,1,.182.966Z" transform="translate(-898.287 -966.127)" fill="#fff"/>
    </g>
    <g id="Grupo_4" data-name="Grupo 4" transform="translate(296.595 836.256)">
      <rect id="Rectángulo_3" data-name="Rectángulo 3" width="89.054" height="1.108" fill="#fff"/>
    </g>
    <path id="Trazado_37" data-name="Trazado 37" d="M128.016,845.014l-9.469-20.636-20.333-9.451,12.476,30.2Z" transform="translate(0 -18.37)" fill="#fff"/>
    <path id="Trazado_38" data-name="Trazado 38" d="M110.689,909.109,98.213,938.832l20.269-9.135,9.534-20.7Z" transform="translate(0 -82.354)" fill="#fff"/>
    <path id="Trazado_39" data-name="Trazado 39" d="M192.281,868.748l-5.935-12.933L173.6,849.892l8.689,18.924Z" transform="translate(-51.277 -42.152)" fill="#fff"/>
    <path id="Trazado_40" data-name="Trazado 40" d="M182.292,908.919,173.6,927.547l12.7-5.725,5.975-12.971Z" transform="translate(-51.277 -82.252)" fill="#fff"/>
    <path id="Trazado_41" data-name="Trazado 41" d="M174,787.931a65.368,65.368,0,0,0-35.269,9.5l2.107.98A63.427,63.427,0,0,1,174,789.857Z" transform="translate(-27.558)" fill="#fff"/>
    <path id="Trazado_42" data-name="Trazado 42" d="M177.949,1012.46l-.019.011L146.7,994.583l-2.161.974,33.413,19.136Z" transform="translate(-31.507 -140.563)" fill="#fff"/>
    <path id="Trazado_43" data-name="Trazado 43" d="M306.772,845.014l9.5-20.636,20.391-9.451-12.511,30.2Z" transform="translate(-141.852 -18.37)" fill="#fff"/>
    <path id="Trazado_44" data-name="Trazado 44" d="M324.148,909.109l12.511,29.723L316.333,929.7,306.772,909Z" transform="translate(-141.852 -82.354)" fill="#fff"/>
    <path id="Trazado_45" data-name="Trazado 45" d="M266.048,868.748,272,855.815l12.779-5.923-8.714,18.924Z" transform="translate(-114.153 -42.152)" fill="#fff"/>
    <path id="Trazado_46" data-name="Trazado 46" d="M276.065,908.919l8.714,18.628-12.739-5.725-5.992-12.971Z" transform="translate(-114.153 -82.252)" fill="#fff"/>
    <path id="Trazado_47" data-name="Trazado 47" d="M249,787.931a65.693,65.693,0,0,1,35.369,9.5l-2.114.98A63.745,63.745,0,0,0,249,789.857Z" transform="translate(-102.558)" fill="#fff"/>
    <path id="Trazado_48" data-name="Trazado 48" d="M249,1012.46l.019.011,31.321-17.888,2.167.974L249,1014.693Z" transform="translate(-102.558 -140.563)" fill="#fff"/>
  </g>
</svg>
