<svg xmlns="http://www.w3.org/2000/svg" width="254.924" height="76.28" viewBox="0 0 254.924 76.28">
  <g id="Grupo_61" data-name="Grupo 61" transform="translate(-98.213 -787.918)">
    <g id="Grupo_1" data-name="Grupo 1" transform="translate(187.713 794.67)">
      <path id="Trazado_1" data-name="Trazado 1" d="M414.464,818.286a6.806,6.806,0,0,1,.561-2.844A5.932,5.932,0,0,1,416.5,813.4a6.377,6.377,0,0,1,2.058-1.216,6.636,6.636,0,0,1,4.6,0,6.388,6.388,0,0,1,2.058,1.216,5.94,5.94,0,0,1,1.478,2.039,6.81,6.81,0,0,1,.561,2.844v1.347h-3.817v-1.347a2.539,2.539,0,0,0-.767-2.039,2.842,2.842,0,0,0-3.63,0,2.537,2.537,0,0,0-.767,2.039v14.069a2.536,2.536,0,0,0,.767,2.04,2.842,2.842,0,0,0,3.63,0,2.538,2.538,0,0,0,.767-2.04v-5.014h-3.031v-3.368h6.848v8.382a6.774,6.774,0,0,1-.561,2.863,5.973,5.973,0,0,1-1.478,2.021,6.362,6.362,0,0,1-2.058,1.216,6.637,6.637,0,0,1-4.6,0,6.351,6.351,0,0,1-2.058-1.216,5.965,5.965,0,0,1-1.478-2.021,6.77,6.77,0,0,1-.561-2.863Z" transform="translate(-414.464 -811.775)" fill="#fff"/>
      <path id="Trazado_2" data-name="Trazado 2" d="M482.2,858.645h-3.817v-1.833h-.075a5.42,5.42,0,0,1-1.44,1.478,3.712,3.712,0,0,1-2.152.58,4.364,4.364,0,0,1-1.422-.243,3.282,3.282,0,0,1-1.272-.8,4.048,4.048,0,0,1-.9-1.441,6.039,6.039,0,0,1-.337-2.151V839.674h3.817v13.134a2.537,2.537,0,0,0,.487,1.646,1.68,1.68,0,0,0,1.384.6,1.61,1.61,0,0,0,1.5-.674,3.763,3.763,0,0,0,.412-1.946v-12.76H482.2Z" transform="translate(-454.849 -831.779)" fill="#fff"/>
      <path id="Trazado_3" data-name="Trazado 3" d="M527.832,856.13h-.075a7.062,7.062,0,0,1-1.516,1.609,3.591,3.591,0,0,1-2.152.561,4.974,4.974,0,0,1-1.384-.206,3.456,3.456,0,0,1-1.328-.748,3.918,3.918,0,0,1-1.01-1.534,7.052,7.052,0,0,1-.393-2.563,13.519,13.519,0,0,1,.262-2.825,4.479,4.479,0,0,1,.954-2.02,4.121,4.121,0,0,1,1.852-1.2,9.359,9.359,0,0,1,2.956-.393c.274,0,.549.013.823.037s.611.05,1.01.075v-1.983a2.912,2.912,0,0,0-.411-1.609,1.648,1.648,0,0,0-1.5-.636,2.156,2.156,0,0,0-1.366.486,2.31,2.31,0,0,0-.8,1.422h-3.7a6.232,6.232,0,0,1,1.721-4.116,5.416,5.416,0,0,1,1.8-1.179,6.16,6.16,0,0,1,2.357-.43,6.631,6.631,0,0,1,2.245.374,4.95,4.95,0,0,1,1.815,1.122,5.353,5.353,0,0,1,1.216,1.871,7.03,7.03,0,0,1,.449,2.619v13.209h-3.817Zm0-6.211a6.25,6.25,0,0,0-1.048-.112,3.752,3.752,0,0,0-2.114.58,2.344,2.344,0,0,0-.88,2.114,2.782,2.782,0,0,0,.524,1.759,1.744,1.744,0,0,0,1.459.674,1.884,1.884,0,0,0,1.516-.636,2.688,2.688,0,0,0,.542-1.8Z" transform="translate(-490.114 -831.209)" fill="#fff"/>
      <path id="Trazado_4" data-name="Trazado 4" d="M571.142,839.1h3.817v2.021a11.6,11.6,0,0,1,2.283-1.647,5.831,5.831,0,0,1,2.769-.6v4.041a3.1,3.1,0,0,0-1.16-.224,4.559,4.559,0,0,0-1.291.206,3.533,3.533,0,0,0-1.272.692,3.7,3.7,0,0,0-.954,1.272,4.51,4.51,0,0,0-.374,1.946v11.263h-3.817Z" transform="translate(-526.802 -831.209)" fill="#fff"/>
      <path id="Trazado_5" data-name="Trazado 5" d="M615.5,837.49q-.374.412-.711.767a3.922,3.922,0,0,1-.748.617,3.532,3.532,0,0,1-.935.412,4.538,4.538,0,0,1-1.235.15,3.472,3.472,0,0,1-3.33-1.8,5.071,5.071,0,0,1-.487-1.571,16.589,16.589,0,0,1-.15-2.507v-7.222a29.277,29.277,0,0,1,.112-3.031,3.769,3.769,0,0,1,.487-1.572,4.084,4.084,0,0,1,1.253-1.235,4.018,4.018,0,0,1,2.152-.486,3.95,3.95,0,0,1,2,.505,4.625,4.625,0,0,1,1.516,1.441h.075v-9.392h3.817v26.642H615.5Zm-3.779-4.453a3.464,3.464,0,0,0,.449,1.871,1.558,1.558,0,0,0,1.422.711,1.686,1.686,0,0,0,1.384-.655,2.642,2.642,0,0,0,.524-1.7V825.89a2.081,2.081,0,0,0-.542-1.478,1.793,1.793,0,0,0-1.366-.58,1.563,1.563,0,0,0-1.478.673,3.064,3.064,0,0,0-.393,1.572Z" transform="translate(-553.157 -812.344)" fill="#fff"/>
      <path id="Trazado_6" data-name="Trazado 6" d="M659.332,812.569h3.816v3.817h-3.816Zm0,7.671h3.816v18.971h-3.816Z" transform="translate(-590.034 -812.344)" fill="#fff"/>
      <path id="Trazado_7" data-name="Trazado 7" d="M689.534,856.13h-.075a7.052,7.052,0,0,1-1.516,1.609,3.59,3.59,0,0,1-2.151.561,4.974,4.974,0,0,1-1.384-.206,3.46,3.46,0,0,1-1.329-.748,3.918,3.918,0,0,1-1.01-1.534,7.045,7.045,0,0,1-.393-2.563,13.519,13.519,0,0,1,.262-2.825,4.479,4.479,0,0,1,.954-2.02,4.12,4.12,0,0,1,1.852-1.2,9.357,9.357,0,0,1,2.956-.393c.275,0,.549.013.824.037s.611.05,1.01.075v-1.983a2.91,2.91,0,0,0-.411-1.609,1.647,1.647,0,0,0-1.5-.636,2.155,2.155,0,0,0-1.366.486,2.308,2.308,0,0,0-.8,1.422h-3.7a6.231,6.231,0,0,1,1.721-4.116,5.418,5.418,0,0,1,1.8-1.179,6.161,6.161,0,0,1,2.357-.43,6.629,6.629,0,0,1,2.245.374,4.953,4.953,0,0,1,1.815,1.122,5.353,5.353,0,0,1,1.216,1.871,7.018,7.018,0,0,1,.449,2.619v13.209h-3.817Zm0-6.211a6.243,6.243,0,0,0-1.047-.112,3.751,3.751,0,0,0-2.114.58,2.344,2.344,0,0,0-.88,2.114,2.782,2.782,0,0,0,.524,1.759,1.744,1.744,0,0,0,1.46.674,1.884,1.884,0,0,0,1.516-.636,2.689,2.689,0,0,0,.542-1.8Z" transform="translate(-606.055 -831.209)" fill="#fff"/>
      <path id="Trazado_8" data-name="Trazado 8" d="M732.843,839.1h3.817v1.834h.075a5.433,5.433,0,0,1,1.441-1.478,3.711,3.711,0,0,1,2.152-.58,4.381,4.381,0,0,1,1.422.243,3.3,3.3,0,0,1,1.272.8,4.066,4.066,0,0,1,.9,1.44,6.05,6.05,0,0,1,.336,2.152v14.556h-3.817V844.942a2.541,2.541,0,0,0-.486-1.646,1.682,1.682,0,0,0-1.384-.6,1.61,1.61,0,0,0-1.5.674,3.761,3.761,0,0,0-.412,1.946v12.76h-3.817Z" transform="translate(-642.741 -831.209)" fill="#fff"/>
      <path id="Trazado_9" data-name="Trazado 9" d="M782.741,816.161h-4.415v-3.592h12.647v3.592h-4.415v23.05h-3.817Z" transform="translate(-675.352 -812.344)" fill="#fff"/>
      <path id="Trazado_10" data-name="Trazado 10" d="M819.974,839.1h3.817v2.021a11.6,11.6,0,0,1,2.282-1.647,5.833,5.833,0,0,1,2.769-.6v4.041a3.1,3.1,0,0,0-1.16-.224,4.558,4.558,0,0,0-1.29.206,3.533,3.533,0,0,0-1.272.692,3.7,3.7,0,0,0-.954,1.272,4.509,4.509,0,0,0-.374,1.946v11.263h-3.817Z" transform="translate(-705.214 -831.209)" fill="#fff"/>
      <path id="Trazado_11" data-name="Trazado 11" d="M861.549,856.13h-.075a7.054,7.054,0,0,1-1.516,1.609,3.591,3.591,0,0,1-2.152.561,4.973,4.973,0,0,1-1.384-.206,3.457,3.457,0,0,1-1.328-.748,3.912,3.912,0,0,1-1.011-1.534,7.052,7.052,0,0,1-.393-2.563,13.535,13.535,0,0,1,.262-2.825,4.478,4.478,0,0,1,.954-2.02,4.12,4.12,0,0,1,1.852-1.2,9.359,9.359,0,0,1,2.956-.393c.274,0,.548.013.824.037s.611.05,1.01.075v-1.983a2.907,2.907,0,0,0-.412-1.609,1.646,1.646,0,0,0-1.5-.636,2.155,2.155,0,0,0-1.366.486,2.308,2.308,0,0,0-.8,1.422h-3.7a6.231,6.231,0,0,1,1.721-4.116,5.419,5.419,0,0,1,1.8-1.179,6.161,6.161,0,0,1,2.357-.43,6.629,6.629,0,0,1,2.245.374,4.954,4.954,0,0,1,1.815,1.122,5.356,5.356,0,0,1,1.216,1.871,7.023,7.023,0,0,1,.449,2.619v13.209h-3.817Zm0-6.211a6.246,6.246,0,0,0-1.048-.112,3.752,3.752,0,0,0-2.114.58,2.344,2.344,0,0,0-.879,2.114,2.781,2.781,0,0,0,.524,1.759,1.744,1.744,0,0,0,1.459.674,1.884,1.884,0,0,0,1.516-.636,2.689,2.689,0,0,0,.542-1.8Z" transform="translate(-729.389 -831.209)" fill="#fff"/>
      <path id="Trazado_12" data-name="Trazado 12" d="M909.47,852.613a1.831,1.831,0,0,0,.5,1.384,1.885,1.885,0,0,0,1.366.487,1.5,1.5,0,0,0,1.441-.636,3.432,3.432,0,0,0,.43-1.272h3.816a6.334,6.334,0,0,1-.393,2.245,4.966,4.966,0,0,1-1.141,1.8,5.368,5.368,0,0,1-1.8,1.235,5.934,5.934,0,0,1-2.357.449,5.869,5.869,0,0,1-3.031-.748,5.032,5.032,0,0,1-2.507-3.7,14.029,14.029,0,0,1-.15-2.133v-6.249a14.035,14.035,0,0,1,.15-2.133,5.031,5.031,0,0,1,2.507-3.7,5.874,5.874,0,0,1,3.031-.749,6.071,6.071,0,0,1,2.376.449,5.012,5.012,0,0,1,1.8,1.254,5.562,5.562,0,0,1,1.123,1.927,7.31,7.31,0,0,1,.393,2.432h-3.816a2.438,2.438,0,0,0-.505-1.7,1.99,1.99,0,0,0-2.731,0,2.314,2.314,0,0,0-.5,1.628Z" transform="translate(-766.646 -831.209)" fill="#fff"/>
      <path id="Trazado_13" data-name="Trazado 13" d="M952.194,812.569h3.817v15.94h.075l4.6-8.269H964.5l-4.528,7.708,5.463,11.263h-4.153l-3.443-8.195-1.833,2.881v5.313h-3.817Z" transform="translate(-800.015 -812.344)" fill="#fff"/>
    </g>
    <g id="Grupo_2" data-name="Grupo 2" transform="translate(188.63 829.174)">
      <path id="Trazado_14" data-name="Trazado 14" d="M417.706,937.885a4.38,4.38,0,0,1,.361-1.829,3.812,3.812,0,0,1,.951-1.311,4.093,4.093,0,0,1,1.323-.782,4.261,4.261,0,0,1,2.96,0,4.1,4.1,0,0,1,1.324.782,3.816,3.816,0,0,1,.951,1.311,4.38,4.38,0,0,1,.361,1.829v.867h-2.454v-.867a1.633,1.633,0,0,0-.493-1.311,1.828,1.828,0,0,0-2.334,0,1.632,1.632,0,0,0-.493,1.311v9.048a1.63,1.63,0,0,0,.493,1.311,1.827,1.827,0,0,0,2.334,0,1.631,1.631,0,0,0,.493-1.311v-3.224h-1.949v-2.166h4.4v5.39a4.358,4.358,0,0,1-.361,1.841,3.842,3.842,0,0,1-.951,1.3,4.087,4.087,0,0,1-1.324.782,4.272,4.272,0,0,1-2.96,0,4.083,4.083,0,0,1-1.323-.782,3.838,3.838,0,0,1-.951-1.3,4.358,4.358,0,0,1-.361-1.841Z" transform="translate(-417.706 -933.698)" fill="gray"/>
      <path id="Trazado_15" data-name="Trazado 15" d="M454.439,934.209h3.682a5.476,5.476,0,0,1,1.781.265,3.424,3.424,0,0,1,1.4.938,3.673,3.673,0,0,1,.866,1.576,9.871,9.871,0,0,1,.241,2.442,12.153,12.153,0,0,1-.132,1.937,4.075,4.075,0,0,1-.565,1.5,3.582,3.582,0,0,1-1.347,1.311,4.538,4.538,0,0,1-2.214.469h-1.251v6.69h-2.454Zm2.454,8.134h1.179a2.51,2.51,0,0,0,1.155-.217,1.378,1.378,0,0,0,.6-.589,2.3,2.3,0,0,0,.228-.9q.037-.529.036-1.179,0-.6-.036-1.143a2.684,2.684,0,0,0-.216-.938,1.378,1.378,0,0,0-.565-.626,2.191,2.191,0,0,0-1.107-.229h-1.276Z" transform="translate(-444.044 -934.064)" fill="gray"/>
      <path id="Trazado_16" data-name="Trazado 16" d="M495.768,938.776h-2.455v-.554a2.619,2.619,0,0,0-.4-1.456,1.468,1.468,0,0,0-1.335-.614,1.61,1.61,0,0,0-.83.193,1.424,1.424,0,0,0-.505.494,2.064,2.064,0,0,0-.253.7,4.642,4.642,0,0,0-.072.83q0,.506.036.854a1.518,1.518,0,0,0,.181.6,1.38,1.38,0,0,0,.421.445,3.829,3.829,0,0,0,.758.385l1.877.746a4.672,4.672,0,0,1,1.323.734,2.986,2.986,0,0,1,.782.987,4.19,4.19,0,0,1,.373,1.3,13.076,13.076,0,0,1,.1,1.672,8.807,8.807,0,0,1-.217,2.01,4.24,4.24,0,0,1-.71,1.588,3.411,3.411,0,0,1-1.311,1.047,4.672,4.672,0,0,1-2,.385,4.375,4.375,0,0,1-1.66-.313,3.952,3.952,0,0,1-2.2-2.142,3.991,3.991,0,0,1-.325-1.612v-.914H489.8v.77a2.006,2.006,0,0,0,.4,1.216,1.547,1.547,0,0,0,1.336.541,2.156,2.156,0,0,0,.975-.18,1.246,1.246,0,0,0,.529-.505,2.083,2.083,0,0,0,.229-.806q.048-.481.048-1.059a10.408,10.408,0,0,0-.048-1.107,1.765,1.765,0,0,0-.2-.7,1.251,1.251,0,0,0-.433-.433,5.783,5.783,0,0,0-.734-.361l-1.757-.722a3.889,3.889,0,0,1-2.13-1.72,5.92,5.92,0,0,1-.541-2.683,6.222,6.222,0,0,1,.265-1.829,4.262,4.262,0,0,1,.782-1.492,3.727,3.727,0,0,1,1.311-1,4.318,4.318,0,0,1,1.853-.373,4.076,4.076,0,0,1,1.672.337,4.163,4.163,0,0,1,1.3.89,3.966,3.966,0,0,1,.83,1.24,3.6,3.6,0,0,1,.289,1.408Z" transform="translate(-467.638 -933.698)" fill="gray"/>
      <path id="Trazado_17" data-name="Trazado 17" d="M547.611,951.342H545.3l-1.877-11.117h-.048l-1.853,11.117h-2.31l-2.551-17.133h2.6l1.227,10.877h.048l1.925-10.877h1.877l2,11.141h.048l1.179-11.141h2.6Z" transform="translate(-502.997 -934.064)" fill="gray"/>
      <path id="Trazado_18" data-name="Trazado 18" d="M591.374,962.223h-.048a4.539,4.539,0,0,1-.975,1.035,2.307,2.307,0,0,1-1.384.361,3.206,3.206,0,0,1-.89-.132,2.224,2.224,0,0,1-.854-.481,2.516,2.516,0,0,1-.65-.987,4.533,4.533,0,0,1-.253-1.648,8.68,8.68,0,0,1,.169-1.817,2.882,2.882,0,0,1,.614-1.3,2.651,2.651,0,0,1,1.191-.77,6.026,6.026,0,0,1,1.9-.253q.264,0,.529.024t.65.048v-1.276a1.872,1.872,0,0,0-.265-1.035,1.06,1.06,0,0,0-.963-.409,1.387,1.387,0,0,0-.878.313,1.485,1.485,0,0,0-.518.915h-2.382a4.009,4.009,0,0,1,1.107-2.647,3.477,3.477,0,0,1,1.155-.758,3.953,3.953,0,0,1,1.516-.277,4.271,4.271,0,0,1,1.444.241,3.185,3.185,0,0,1,1.167.722,3.438,3.438,0,0,1,.782,1.2,4.522,4.522,0,0,1,.289,1.684v8.495h-2.455Zm0-3.994a4.039,4.039,0,0,0-.674-.073,2.418,2.418,0,0,0-1.36.373,1.509,1.509,0,0,0-.565,1.359,1.789,1.789,0,0,0,.337,1.131,1.121,1.121,0,0,0,.938.433,1.212,1.212,0,0,0,.975-.409,1.731,1.731,0,0,0,.349-1.156Z" transform="translate(-538.602 -946.197)" fill="gray"/>
      <path id="Trazado_19" data-name="Trazado 19" d="M616.118,938.546h2.454v3.706h1.516v1.925h-1.516v6.762a2.115,2.115,0,0,0,.084.674.686.686,0,0,0,.265.361.983.983,0,0,0,.469.145q.288.024.7.024v2.31h-1.011a3.308,3.308,0,0,1-1.408-.265,2.531,2.531,0,0,1-.9-.674,2.633,2.633,0,0,1-.493-.926,3.44,3.44,0,0,1-.156-1v-7.411h-1.227v-1.925h1.227Z" transform="translate(-559.087 -937.174)" fill="gray"/>
      <path id="Trazado_20" data-name="Trazado 20" d="M639.539,959.962a1.179,1.179,0,0,0,.325.89,1.213,1.213,0,0,0,.878.313.968.968,0,0,0,.927-.409,2.2,2.2,0,0,0,.276-.818H644.4a4.07,4.07,0,0,1-.252,1.444,3.2,3.2,0,0,1-.734,1.155,3.457,3.457,0,0,1-1.155.794,3.817,3.817,0,0,1-1.516.288,3.774,3.774,0,0,1-1.949-.481,3.233,3.233,0,0,1-1.612-2.382,9.006,9.006,0,0,1-.1-1.372v-4.019a9.006,9.006,0,0,1,.1-1.372,3.234,3.234,0,0,1,1.612-2.383,3.777,3.777,0,0,1,1.949-.481,3.9,3.9,0,0,1,1.528.289,3.216,3.216,0,0,1,1.155.806,3.576,3.576,0,0,1,.722,1.239,4.7,4.7,0,0,1,.252,1.564h-2.454a1.567,1.567,0,0,0-.325-1.095,1.28,1.28,0,0,0-1.757,0,1.49,1.49,0,0,0-.325,1.047Z" transform="translate(-575 -946.197)" fill="gray"/>
      <path id="Trazado_21" data-name="Trazado 21" d="M667.014,934.209h2.455v6.112h.048a3.48,3.48,0,0,1,.926-.951,2.388,2.388,0,0,1,1.384-.373,2.815,2.815,0,0,1,.914.156,2.117,2.117,0,0,1,.818.517,2.607,2.607,0,0,1,.577.927,3.88,3.88,0,0,1,.217,1.384v9.36H671.9V942.9a1.635,1.635,0,0,0-.313-1.059,1.082,1.082,0,0,0-.89-.385,1.034,1.034,0,0,0-.962.433,2.417,2.417,0,0,0-.265,1.251v8.206h-2.455Z" transform="translate(-596.459 -934.064)" fill="gray"/>
    </g>
    <g id="Grupo_3" data-name="Grupo 3" transform="translate(274.747 836.315)">
      <path id="Trazado_22" data-name="Trazado 22" d="M722.005,959.242h2.176a3.053,3.053,0,0,1,1.22.219,2.3,2.3,0,0,1,.825.584,2.183,2.183,0,0,1,.46.84,3.49,3.49,0,0,1,.139.986v.38a3.308,3.308,0,0,1-.066.715,1.715,1.715,0,0,1-.2.511,1.648,1.648,0,0,1-.321.387,2.792,2.792,0,0,1-.438.314,1.6,1.6,0,0,1,.774.738,2.906,2.906,0,0,1,.248,1.307v.584a3.021,3.021,0,0,1-.665,2.1,2.745,2.745,0,0,1-2.125.73h-2.03Zm1.49,4.265h.672a1.138,1.138,0,0,0,1-.373,1.919,1.919,0,0,0,.256-1.088,1.642,1.642,0,0,0-.285-1.052,1.267,1.267,0,0,0-1.03-.351h-.613Zm0,4.644h.643a1.569,1.569,0,0,0,.708-.131.907.907,0,0,0,.387-.365,1.365,1.365,0,0,0,.161-.555q.029-.321.029-.7a4.658,4.658,0,0,0-.044-.686,1.126,1.126,0,0,0-.183-.489.858.858,0,0,0-.387-.3,1.756,1.756,0,0,0-.657-.1h-.657Z" transform="translate(-722.005 -959.154)" fill="gray"/>
      <path id="Trazado_23" data-name="Trazado 23" d="M743.038,969.822l1.022,4.615h.029l1.008-4.615h1.534l-2.132,8.69a2.635,2.635,0,0,1-.329.825,1.891,1.891,0,0,1-.489.526,1.779,1.779,0,0,1-.591.277,2.627,2.627,0,0,1-.65.08h-.409v-1.4h.336a1.117,1.117,0,0,0,.379-.059.589.589,0,0,0,.285-.256,2.191,2.191,0,0,0,.226-.584q.1-.388.234-1.03l-2.03-7.069Z" transform="translate(-735.955 -966.74)" fill="gray"/>
      <path id="Trazado_24" data-name="Trazado 24" d="M776.265,967.1a2.372,2.372,0,0,1-.182.92,2.427,2.427,0,0,1-.5.767,2.482,2.482,0,0,1-.752.526,2.2,2.2,0,0,1-.928.2,3.326,3.326,0,0,1-.862-.117,2.079,2.079,0,0,1-.788-.4,2.167,2.167,0,0,1-.577-.752,2.708,2.708,0,0,1-.226-1.183v-5.726a2.531,2.531,0,0,1,.175-.949,2.233,2.233,0,0,1,.5-.759,2.318,2.318,0,0,1,.767-.5,2.574,2.574,0,0,1,.986-.182,2.444,2.444,0,0,1,.949.182,2.276,2.276,0,0,1,.759.511,2.366,2.366,0,0,1,.5.789,2.694,2.694,0,0,1,.182,1V962h-1.489v-.5a1.206,1.206,0,0,0-.248-.76.806.806,0,0,0-.672-.321.757.757,0,0,0-.738.343,1.84,1.84,0,0,0-.183.869v5.316a1.374,1.374,0,0,0,.2.759.776.776,0,0,0,.709.307,1.078,1.078,0,0,0,.314-.051.853.853,0,0,0,.306-.168.842.842,0,0,0,.226-.322,1.3,1.3,0,0,0,.088-.511v-.511h1.489Z" transform="translate(-757.453 -958.931)" fill="gray"/>
      <path id="Trazado_25" data-name="Trazado 25" d="M791.987,972.082a5.517,5.517,0,0,1,.058-.833,2.019,2.019,0,0,1,.219-.672,2,2,0,0,1,.76-.774,2.542,2.542,0,0,1,2.366,0,1.964,1.964,0,0,1,.978,1.446,5.474,5.474,0,0,1,.059.833v2.44a5.465,5.465,0,0,1-.059.832,1.964,1.964,0,0,1-.978,1.446,2.545,2.545,0,0,1-2.366,0,1.966,1.966,0,0,1-.979-1.446,5.508,5.508,0,0,1-.058-.832Zm1.49,2.673a.905.905,0,0,0,.2.635.778.778,0,0,0,1.067,0,.905.905,0,0,0,.2-.635v-2.907a.905.905,0,0,0-.2-.635.777.777,0,0,0-1.067,0,.906.906,0,0,0-.2.635Z" transform="translate(-772.182 -966.517)" fill="gray"/>
      <path id="Trazado_26" data-name="Trazado 26" d="M812.26,977.227h-1.315l-1.928-7.405H810.6l.993,4.732h.029l.993-4.732h1.577Z" transform="translate(-784.393 -966.74)" fill="gray"/>
      <path id="Trazado_27" data-name="Trazado 27" d="M830.119,973.864v1.008a.715.715,0,0,0,.2.54.736.736,0,0,0,.533.19.586.586,0,0,0,.562-.248,1.344,1.344,0,0,0,.168-.5h1.49a2.476,2.476,0,0,1-.153.876,1.945,1.945,0,0,1-.445.7,2.1,2.1,0,0,1-.7.482,2.526,2.526,0,0,1-2.1-.117,1.964,1.964,0,0,1-.979-1.446,5.514,5.514,0,0,1-.058-.832v-2.44a5.524,5.524,0,0,1,.058-.833,1.964,1.964,0,0,1,.979-1.446,2.293,2.293,0,0,1,1.183-.292,2.368,2.368,0,0,1,.928.175,1.953,1.953,0,0,1,.7.489,2.2,2.2,0,0,1,.438.737,2.644,2.644,0,0,1,.153.906v2.045Zm0-1.168h1.461v-.847a.9.9,0,0,0-.2-.635.777.777,0,0,0-1.066,0,.9.9,0,0,0-.2.635Z" transform="translate(-798.454 -966.517)" fill="gray"/>
      <path id="Trazado_28" data-name="Trazado 28" d="M848.188,969.6h1.49v.788a4.521,4.521,0,0,1,.891-.642,2.276,2.276,0,0,1,1.081-.234v1.578A1.208,1.208,0,0,0,851.2,971a1.787,1.787,0,0,0-.5.08,1.378,1.378,0,0,0-.5.271,1.445,1.445,0,0,0-.372.5,1.756,1.756,0,0,0-.146.76V977h-1.49Z" transform="translate(-812.478 -966.517)" fill="gray"/>
      <path id="Trazado_29" data-name="Trazado 29" d="M860.649,961.874h1.49v2.249h.92v1.168h-.92v4.1a1.282,1.282,0,0,0,.051.409.418.418,0,0,0,.161.219.591.591,0,0,0,.285.087c.117.01.258.015.423.015v1.4h-.613a2.009,2.009,0,0,1-.854-.161,1.542,1.542,0,0,1-.548-.409,1.6,1.6,0,0,1-.3-.562,2.086,2.086,0,0,1-.1-.606v-4.5H859.9v-1.168h.745Z" transform="translate(-820.878 -961.041)" fill="gray"/>
      <path id="Trazado_30" data-name="Trazado 30" d="M882.974,959.242h2.4q2.629,0,2.629,3.052a3.858,3.858,0,0,1-.284,1.556,2.2,2.2,0,0,1-1,1.044l1.607,4.747h-1.577l-1.388-4.44h-.891v4.44h-1.49Zm1.49,4.644h.847a1.5,1.5,0,0,0,.628-.109.811.811,0,0,0,.358-.314,1.336,1.336,0,0,0,.168-.5,5.506,5.506,0,0,0,0-1.388,1.255,1.255,0,0,0-.182-.511.829.829,0,0,0-.387-.314,1.757,1.757,0,0,0-.657-.1h-.774Z" transform="translate(-837.419 -959.154)" fill="gray"/>
      <path id="Trazado_31" data-name="Trazado 31" d="M905.675,973.864v1.008a.715.715,0,0,0,.2.54.736.736,0,0,0,.533.19.586.586,0,0,0,.562-.248,1.341,1.341,0,0,0,.168-.5h1.49a2.482,2.482,0,0,1-.153.876,1.948,1.948,0,0,1-.445.7,2.1,2.1,0,0,1-.7.482,2.313,2.313,0,0,1-.92.175,2.289,2.289,0,0,1-1.183-.292,1.963,1.963,0,0,1-.979-1.446,5.522,5.522,0,0,1-.058-.832v-2.44a5.531,5.531,0,0,1,.058-.833,1.963,1.963,0,0,1,.979-1.446,2.292,2.292,0,0,1,1.183-.292,2.368,2.368,0,0,1,.928.175,1.952,1.952,0,0,1,.7.489,2.2,2.2,0,0,1,.438.737,2.65,2.65,0,0,1,.153.906v2.045Zm0-1.168h1.46v-.847a.9.9,0,0,0-.2-.635.777.777,0,0,0-1.066,0,.9.9,0,0,0-.2.635Z" transform="translate(-852.628 -966.517)" fill="gray"/>
      <path id="Trazado_32" data-name="Trazado 32" d="M925.781,971.673a.743.743,0,0,0-.241-.569.787.787,0,0,0-.519-.19.667.667,0,0,0-.54.226.785.785,0,0,0-.19.519.86.86,0,0,0,.1.4.947.947,0,0,0,.526.358l.876.351a2.129,2.129,0,0,1,1.147.876,2.423,2.423,0,0,1,.314,1.213,2.231,2.231,0,0,1-.168.869,2.313,2.313,0,0,1-.46.708,2.092,2.092,0,0,1-.7.482,2.238,2.238,0,0,1-.891.175,2.379,2.379,0,0,1-.833-.146,2.05,2.05,0,0,1-.694-.424,2.14,2.14,0,0,1-.489-.693,2.487,2.487,0,0,1-.2-.971h1.4a1.426,1.426,0,0,0,.212.569.647.647,0,0,0,.591.263.882.882,0,0,0,.577-.212.728.728,0,0,0,.256-.592.865.865,0,0,0-.161-.526,1.266,1.266,0,0,0-.584-.38l-.716-.263a2.436,2.436,0,0,1-1.1-.781,2,2,0,0,1-.4-1.264,2.15,2.15,0,0,1,.175-.869,2.086,2.086,0,0,1,.475-.686,2.2,2.2,0,0,1,.693-.445,2.22,2.22,0,0,1,.847-.161,2.088,2.088,0,0,1,.84.168,2.055,2.055,0,0,1,.665.453,2.083,2.083,0,0,1,.438.686,2.285,2.285,0,0,1,.161.854Z" transform="translate(-865.986 -966.517)" fill="gray"/>
      <path id="Trazado_33" data-name="Trazado 33" d="M946.366,977.227h-1.49v-.716h-.029a2.109,2.109,0,0,1-.562.577,1.447,1.447,0,0,1-.84.226,1.707,1.707,0,0,1-.555-.095,1.283,1.283,0,0,1-.5-.314,1.582,1.582,0,0,1-.35-.562,2.36,2.36,0,0,1-.132-.84v-5.682h1.49v5.126a.991.991,0,0,0,.19.643.657.657,0,0,0,.541.234.628.628,0,0,0,.584-.263,1.467,1.467,0,0,0,.161-.76v-4.98h1.49Z" transform="translate(-879.677 -966.74)" fill="gray"/>
      <path id="Trazado_34" data-name="Trazado 34" d="M961.678,959.242h1.49v8.31a.821.821,0,0,0,.153.577.971.971,0,0,0,.577.2v1.4a4.883,4.883,0,0,1-.927-.08,1.585,1.585,0,0,1-.7-.306,1.43,1.43,0,0,1-.438-.635,3.034,3.034,0,0,1-.153-1.052Z" transform="translate(-893.85 -959.154)" fill="gray"/>
      <path id="Trazado_35" data-name="Trazado 35" d="M969.7,961.874h1.49v2.249h.92v1.168h-.92v4.1a1.282,1.282,0,0,0,.052.409.417.417,0,0,0,.16.219.592.592,0,0,0,.285.087c.117.01.258.015.423.015v1.4H971.5a2.008,2.008,0,0,1-.854-.161,1.541,1.541,0,0,1-.548-.409,1.6,1.6,0,0,1-.3-.562,2.076,2.076,0,0,1-.1-.606v-4.5h-.745v-1.168h.745Z" transform="translate(-899.067 -961.041)" fill="gray"/>
      <path id="Trazado_36" data-name="Trazado 36" d="M984.151,971.673a.742.742,0,0,0-.241-.569.785.785,0,0,0-.518-.19.666.666,0,0,0-.54.226.782.782,0,0,0-.19.519.86.86,0,0,0,.1.4.947.947,0,0,0,.526.358l.876.351a2.126,2.126,0,0,1,1.146.876,2.421,2.421,0,0,1,.314,1.213,2.231,2.231,0,0,1-.168.869,2.319,2.319,0,0,1-.46.708,2.1,2.1,0,0,1-.7.482,2.238,2.238,0,0,1-.891.175,2.377,2.377,0,0,1-.832-.146,2.047,2.047,0,0,1-.694-.424,2.135,2.135,0,0,1-.489-.693,2.485,2.485,0,0,1-.2-.971h1.4a1.42,1.42,0,0,0,.212.569.647.647,0,0,0,.591.263.88.88,0,0,0,.577-.212.727.727,0,0,0,.256-.592.864.864,0,0,0-.161-.526,1.265,1.265,0,0,0-.584-.38l-.715-.263a2.435,2.435,0,0,1-1.1-.781,2,2,0,0,1-.4-1.264,2.148,2.148,0,0,1,.176-.869,2.084,2.084,0,0,1,.475-.686,2.215,2.215,0,0,1,1.541-.606,2.09,2.09,0,0,1,.84.168,2.016,2.016,0,0,1,1.1,1.139,2.283,2.283,0,0,1,.161.854Z" transform="translate(-907.837 -966.517)" fill="gray"/>
    </g>
    <g id="Grupo_4" data-name="Grupo 4" transform="translate(273.741 830.687)">
      <rect id="Rectángulo_3" data-name="Rectángulo 3" width="78.795" height="0.98" fill="gray"/>
    </g>
    <path id="Trazado_37" data-name="Trazado 37" d="M124.582,841.548,116.2,823.289l-17.991-8.362,11.039,26.717Z" transform="translate(0 -19.366)" fill="#00bdff"/>
    <path id="Trazado_38" data-name="Trazado 38" d="M109.252,909.1,98.213,935.4l17.934-8.083L124.582,909Z" transform="translate(0 -86.815)" fill="#0065a5"/>
    <path id="Trazado_39" data-name="Trazado 39" d="M190.13,866.576l-5.251-11.443L173.6,849.892l7.688,16.744Z" transform="translate(-54.055 -44.435)" fill="#00bdff"/>
    <path id="Trazado_40" data-name="Trazado 40" d="M181.291,908.911,173.6,925.393l11.24-5.066,5.287-11.477Z" transform="translate(-54.055 -86.708)" fill="#0065a5"/>
    <path id="Trazado_41" data-name="Trazado 41" d="M169.937,787.93a57.838,57.838,0,0,0-31.206,8.408l1.865.867a56.121,56.121,0,0,1,29.342-7.571Z" transform="translate(-29.051 0)" fill="#fff"/>
    <path id="Trazado_42" data-name="Trazado 42" d="M174.1,1010.4l-.016.01-27.635-15.827-1.912.862,29.563,16.932Z" transform="translate(-33.214 -148.178)" fill="#fff"/>
    <path id="Trazado_43" data-name="Trazado 43" d="M306.772,841.548l8.4-18.259,18.042-8.362-11.07,26.717Z" transform="translate(-149.537 -19.366)" fill="#00bdff"/>
    <path id="Trazado_44" data-name="Trazado 44" d="M322.146,909.1l11.07,26.3-17.985-8.083L306.772,909Z" transform="translate(-149.537 -86.815)" fill="#0065a5"/>
    <path id="Trazado_45" data-name="Trazado 45" d="M266.048,866.576l5.266-11.443,11.307-5.241-7.71,16.744Z" transform="translate(-120.337 -44.435)" fill="#00bdff"/>
    <path id="Trazado_46" data-name="Trazado 46" d="M274.911,908.911l7.71,16.482-11.271-5.066-5.3-11.477Z" transform="translate(-120.337 -86.708)" fill="#0065a5"/>
    <path id="Trazado_47" data-name="Trazado 47" d="M249,787.93a58.126,58.126,0,0,1,31.294,8.408l-1.87.867A56.4,56.4,0,0,0,249,789.634Z" transform="translate(-108.114 0)" fill="#fff"/>
    <path id="Trazado_48" data-name="Trazado 48" d="M249,1010.4l.017.01,27.713-15.827,1.917.862L249,1012.377Z" transform="translate(-108.114 -148.178)" fill="#fff"/>
  </g>
</svg>
