<svg xmlns="http://www.w3.org/2000/svg" width="632" height="189.111" viewBox="0 0 632 189.111">
  <g id="Grupo_22903" data-name="Grupo 22903" transform="translate(-98.213 -787.918)">
    <g id="Grupo_1" data-name="Grupo 1" transform="translate(320.097 804.656)">
      <path id="Trazado_1" data-name="Trazado 1" d="M414.464,827.917a16.872,16.872,0,0,1,1.392-7.05,14.706,14.706,0,0,1,3.664-5.056,15.812,15.812,0,0,1,5.1-3.015,16.451,16.451,0,0,1,11.41,0,15.84,15.84,0,0,1,5.1,3.015,14.725,14.725,0,0,1,3.665,5.056,16.882,16.882,0,0,1,1.392,7.05v3.34h-9.463v-3.34q0-3.431-1.9-5.056a7.047,7.047,0,0,0-9,0q-1.9,1.624-1.9,5.056V862.8q0,3.433,1.9,5.057a7.047,7.047,0,0,0,9,0q1.9-1.622,1.9-5.057V850.366h-7.514v-8.349h16.977V862.8a16.794,16.794,0,0,1-1.392,7.1,14.81,14.81,0,0,1-3.665,5.009,15.772,15.772,0,0,1-5.1,3.015,16.452,16.452,0,0,1-11.41,0,15.744,15.744,0,0,1-5.1-3.015,14.79,14.79,0,0,1-3.664-5.009,16.784,16.784,0,0,1-1.392-7.1Z" transform="translate(-414.464 -811.775)"/>
      <path id="Trazado_2" data-name="Trazado 2" d="M499.083,886.706h-9.462v-4.545h-.186a13.437,13.437,0,0,1-3.571,3.664,9.2,9.2,0,0,1-5.334,1.438,10.821,10.821,0,0,1-3.525-.6,8.139,8.139,0,0,1-3.154-1.995,10.039,10.039,0,0,1-2.227-3.571,14.974,14.974,0,0,1-.835-5.334V839.674h9.462v32.561a6.291,6.291,0,0,0,1.207,4.082,4.166,4.166,0,0,0,3.432,1.485q2.69,0,3.711-1.671a9.328,9.328,0,0,0,1.021-4.824V839.674h9.462Z" transform="translate(-431.271 -820.1)"/>
      <path id="Trazado_3" data-name="Trazado 3" d="M539.455,881.646h-.185a17.508,17.508,0,0,1-3.757,3.989,8.9,8.9,0,0,1-5.334,1.392,12.334,12.334,0,0,1-3.432-.511,8.567,8.567,0,0,1-3.293-1.855,9.714,9.714,0,0,1-2.5-3.8,17.483,17.483,0,0,1-.974-6.354,33.515,33.515,0,0,1,.649-7,11.1,11.1,0,0,1,2.366-5.009,10.216,10.216,0,0,1,4.592-2.969,23.2,23.2,0,0,1,7.328-.974c.68,0,1.36.032,2.041.092s1.515.125,2.5.186v-4.917a7.22,7.22,0,0,0-1.02-3.989q-1.023-1.577-3.711-1.577a5.344,5.344,0,0,0-3.386,1.206,5.726,5.726,0,0,0-1.995,3.525h-9.184a15.451,15.451,0,0,1,4.267-10.2,13.426,13.426,0,0,1,4.453-2.922,15.27,15.27,0,0,1,5.844-1.067,16.44,16.44,0,0,1,5.566.928,12.271,12.271,0,0,1,4.5,2.783,13.267,13.267,0,0,1,3.016,4.638,17.43,17.43,0,0,1,1.113,6.494v32.746h-9.462Zm0-15.4a15.488,15.488,0,0,0-2.6-.279,9.3,9.3,0,0,0-5.241,1.438q-2.182,1.44-2.181,5.241a6.9,6.9,0,0,0,1.3,4.36,4.324,4.324,0,0,0,3.618,1.67,4.67,4.67,0,0,0,3.757-1.577,6.663,6.663,0,0,0,1.345-4.453Z" transform="translate(-445.947 -819.863)"/>
      <path id="Trazado_4" data-name="Trazado 4" d="M571.142,839.437H580.6v5.01a28.762,28.762,0,0,1,5.659-4.082,14.456,14.456,0,0,1,6.865-1.484V848.9a7.683,7.683,0,0,0-2.876-.556,11.3,11.3,0,0,0-3.2.51,8.758,8.758,0,0,0-3.154,1.716,9.175,9.175,0,0,0-2.365,3.154,11.181,11.181,0,0,0-.928,4.824v27.922h-9.462Z" transform="translate(-461.215 -819.863)"/>
      <path id="Trazado_5" data-name="Trazado 5" d="M626.731,874.351q-.927,1.022-1.762,1.9a9.73,9.73,0,0,1-1.855,1.53,8.756,8.756,0,0,1-2.319,1.02,11.25,11.25,0,0,1-3.062.372q-5.845,0-8.257-4.453a12.571,12.571,0,0,1-1.206-3.9,41.134,41.134,0,0,1-.371-6.216v-17.9a72.54,72.54,0,0,1,.279-7.514,9.341,9.341,0,0,1,1.206-3.9,10.125,10.125,0,0,1,3.107-3.062,9.96,9.96,0,0,1,5.334-1.206,9.791,9.791,0,0,1,4.963,1.252,11.468,11.468,0,0,1,3.757,3.572h.185V812.569h9.462v66.049h-9.462Zm-9.369-11.039a8.586,8.586,0,0,0,1.112,4.638A3.863,3.863,0,0,0,622,869.714a4.181,4.181,0,0,0,3.432-1.624,6.549,6.549,0,0,0,1.3-4.221V845.594a5.158,5.158,0,0,0-1.345-3.664A4.444,4.444,0,0,0,622,840.492q-2.692,0-3.664,1.67a7.6,7.6,0,0,0-.974,3.9Z" transform="translate(-472.183 -812.012)"/>
      <path id="Trazado_6" data-name="Trazado 6" d="M659.332,812.569h9.461v9.462h-9.461Zm0,19.017h9.461v47.032h-9.461Z" transform="translate(-487.531 -812.012)"/>
      <path id="Trazado_7" data-name="Trazado 7" d="M701.156,881.646h-.185a17.479,17.479,0,0,1-3.757,3.989,8.9,8.9,0,0,1-5.334,1.392,12.334,12.334,0,0,1-3.432-.511,8.576,8.576,0,0,1-3.294-1.855,9.713,9.713,0,0,1-2.5-3.8,17.462,17.462,0,0,1-.974-6.354,33.515,33.515,0,0,1,.649-7,11.1,11.1,0,0,1,2.366-5.009,10.214,10.214,0,0,1,4.592-2.969,23.2,23.2,0,0,1,7.328-.974c.681,0,1.36.032,2.042.092s1.515.125,2.5.186v-4.917a7.216,7.216,0,0,0-1.02-3.989q-1.021-1.577-3.711-1.577a5.342,5.342,0,0,0-3.385,1.206,5.721,5.721,0,0,0-1.995,3.525h-9.184a15.448,15.448,0,0,1,4.267-10.2,13.43,13.43,0,0,1,4.452-2.922,15.274,15.274,0,0,1,5.845-1.067,16.433,16.433,0,0,1,5.566.928,12.278,12.278,0,0,1,4.5,2.783,13.269,13.269,0,0,1,3.014,4.638,17.4,17.4,0,0,1,1.113,6.494v32.746h-9.463Zm0-15.4a15.473,15.473,0,0,0-2.6-.279,9.3,9.3,0,0,0-5.241,1.438q-2.183,1.44-2.181,5.241a6.9,6.9,0,0,0,1.3,4.36,4.324,4.324,0,0,0,3.619,1.67,4.671,4.671,0,0,0,3.757-1.577,6.666,6.666,0,0,0,1.344-4.453Z" transform="translate(-494.198 -819.863)"/>
      <path id="Trazado_8" data-name="Trazado 8" d="M732.843,839.437h9.463v4.546h.185a13.471,13.471,0,0,1,3.572-3.664,9.2,9.2,0,0,1,5.334-1.438,10.861,10.861,0,0,1,3.526.6,8.173,8.173,0,0,1,3.154,1.995,10.083,10.083,0,0,1,2.226,3.571,15,15,0,0,1,.834,5.334v36.086h-9.462V853.908a6.3,6.3,0,0,0-1.206-4.081,4.17,4.17,0,0,0-3.432-1.485q-2.691,0-3.711,1.67a9.324,9.324,0,0,0-1.021,4.824v31.633h-9.463Z" transform="translate(-509.466 -819.863)"/>
      <path id="Trazado_9" data-name="Trazado 9" d="M789.273,821.474H778.326v-8.906h31.355v8.906H798.735v57.144h-9.462Z" transform="translate(-523.037 -812.012)"/>
      <path id="Trazado_10" data-name="Trazado 10" d="M819.974,839.437h9.463v5.01a28.754,28.754,0,0,1,5.658-4.082,14.462,14.462,0,0,1,6.865-1.484V848.9a7.688,7.688,0,0,0-2.876-.556,11.3,11.3,0,0,0-3.2.51,8.759,8.759,0,0,0-3.155,1.716,9.185,9.185,0,0,0-2.366,3.154,11.18,11.18,0,0,0-.928,4.824v27.922h-9.463Z" transform="translate(-535.465 -819.863)"/>
      <path id="Trazado_11" data-name="Trazado 11" d="M873.172,881.646h-.185a17.488,17.488,0,0,1-3.757,3.989,8.9,8.9,0,0,1-5.334,1.392,12.334,12.334,0,0,1-3.432-.511,8.57,8.57,0,0,1-3.293-1.855,9.7,9.7,0,0,1-2.505-3.8,17.481,17.481,0,0,1-.974-6.354,33.56,33.56,0,0,1,.649-7,11.1,11.1,0,0,1,2.366-5.009,10.214,10.214,0,0,1,4.592-2.969,23.2,23.2,0,0,1,7.328-.974c.68,0,1.36.032,2.042.092s1.514.125,2.5.186v-4.917a7.208,7.208,0,0,0-1.021-3.989q-1.021-1.577-3.71-1.577a5.343,5.343,0,0,0-3.386,1.206,5.722,5.722,0,0,0-1.994,3.525h-9.184a15.448,15.448,0,0,1,4.267-10.2,13.433,13.433,0,0,1,4.453-2.922,15.273,15.273,0,0,1,5.844-1.067,16.433,16.433,0,0,1,5.566.928,12.279,12.279,0,0,1,4.5,2.783,13.278,13.278,0,0,1,3.015,4.638,17.414,17.414,0,0,1,1.114,6.494v32.746h-9.463Zm0-15.4a15.48,15.48,0,0,0-2.6-.279,9.3,9.3,0,0,0-5.24,1.438q-2.182,1.44-2.18,5.241a6.9,6.9,0,0,0,1.3,4.36,4.323,4.323,0,0,0,3.618,1.67,4.67,4.67,0,0,0,3.757-1.577,6.667,6.667,0,0,0,1.345-4.453Z" transform="translate(-545.526 -819.863)"/>
      <path id="Trazado_12" data-name="Trazado 12" d="M915.116,872.926a4.54,4.54,0,0,0,1.252,3.432,4.672,4.672,0,0,0,3.386,1.207q2.69,0,3.572-1.577a8.51,8.51,0,0,0,1.067-3.154h9.461a15.7,15.7,0,0,1-.974,5.566,12.313,12.313,0,0,1-2.83,4.453,13.306,13.306,0,0,1-4.452,3.062,14.709,14.709,0,0,1-5.844,1.114,14.55,14.55,0,0,1-7.514-1.855,12.475,12.475,0,0,1-6.215-9.184,34.793,34.793,0,0,1-.371-5.288V855.207a34.812,34.812,0,0,1,.371-5.287,12.473,12.473,0,0,1,6.215-9.184,14.564,14.564,0,0,1,7.514-1.856,15.05,15.05,0,0,1,5.89,1.113A12.426,12.426,0,0,1,930.1,843.1a13.792,13.792,0,0,1,2.783,4.777,18.127,18.127,0,0,1,.974,6.03h-9.461a6.043,6.043,0,0,0-1.253-4.221,4.934,4.934,0,0,0-6.772,0,5.738,5.738,0,0,0-1.252,4.036Z" transform="translate(-561.031 -819.863)"/>
      <path id="Trazado_13" data-name="Trazado 13" d="M952.194,812.569h9.463v39.518h.185l11.41-20.5h9.463L971.49,850.7l13.544,27.922h-10.3L966.2,858.3l-4.545,7.143v13.173h-9.463Z" transform="translate(-574.918 -812.012)"/>
    </g>
    <g id="Grupo_2" data-name="Grupo 2" transform="translate(322.372 890.199)">
      <path id="Trazado_14" data-name="Trazado 14" d="M417.706,944.079a10.86,10.86,0,0,1,.895-4.534,9.45,9.45,0,0,1,2.357-3.251,10.149,10.149,0,0,1,3.281-1.938,10.565,10.565,0,0,1,7.338,0,10.159,10.159,0,0,1,3.281,1.938,9.46,9.46,0,0,1,2.357,3.251,10.86,10.86,0,0,1,.895,4.534v2.148h-6.085v-2.148a4.048,4.048,0,0,0-1.223-3.251,4.531,4.531,0,0,0-5.787,0,4.046,4.046,0,0,0-1.223,3.251v22.432a4.042,4.042,0,0,0,1.223,3.251,4.53,4.53,0,0,0,5.787,0,4.044,4.044,0,0,0,1.223-3.251v-7.994h-4.832v-5.37h10.917v13.364a10.8,10.8,0,0,1-.895,4.564,9.523,9.523,0,0,1-2.357,3.221,10.129,10.129,0,0,1-3.281,1.939,10.59,10.59,0,0,1-7.338,0,10.119,10.119,0,0,1-3.281-1.939,9.513,9.513,0,0,1-2.357-3.221,10.8,10.8,0,0,1-.895-4.564Z" transform="translate(-417.706 -933.698)" fill="gray"/>
      <path id="Trazado_15" data-name="Trazado 15" d="M454.439,934.209h9.128a13.571,13.571,0,0,1,4.414.656,8.488,8.488,0,0,1,3.46,2.326,9.107,9.107,0,0,1,2.148,3.908,24.473,24.473,0,0,1,.6,6.055,30.13,30.13,0,0,1-.328,4.8,10.1,10.1,0,0,1-1.4,3.729,8.882,8.882,0,0,1-3.34,3.251,11.251,11.251,0,0,1-5.489,1.163h-3.1v16.585h-6.085Zm6.085,20.164h2.924a6.22,6.22,0,0,0,2.863-.537,3.417,3.417,0,0,0,1.492-1.461,5.7,5.7,0,0,0,.566-2.237q.091-1.312.09-2.924,0-1.491-.09-2.834a6.653,6.653,0,0,0-.537-2.327,3.414,3.414,0,0,0-1.4-1.551,5.434,5.434,0,0,0-2.744-.567h-3.162Z" transform="translate(-428.667 -933.851)" fill="gray"/>
      <path id="Trazado_16" data-name="Trazado 16" d="M508.227,946.286h-6.086v-1.373a6.492,6.492,0,0,0-.984-3.609,3.639,3.639,0,0,0-3.311-1.521,3.992,3.992,0,0,0-2.058.477,3.532,3.532,0,0,0-1.253,1.224,5.114,5.114,0,0,0-.627,1.729,11.5,11.5,0,0,0-.179,2.059q0,1.253.089,2.118a3.765,3.765,0,0,0,.448,1.491,3.421,3.421,0,0,0,1.045,1.1,9.5,9.5,0,0,0,1.879.954l4.654,1.849a11.578,11.578,0,0,1,3.281,1.82,7.4,7.4,0,0,1,1.939,2.446,10.388,10.388,0,0,1,.925,3.222,32.428,32.428,0,0,1,.239,4.146,21.834,21.834,0,0,1-.537,4.982,10.513,10.513,0,0,1-1.76,3.938,8.453,8.453,0,0,1-3.251,2.595,11.58,11.58,0,0,1-4.952.954,10.844,10.844,0,0,1-4.116-.775,9.8,9.8,0,0,1-5.459-5.31,9.893,9.893,0,0,1-.805-4v-2.267h6.085v1.909a4.975,4.975,0,0,0,.984,3.014,3.835,3.835,0,0,0,3.311,1.341,5.346,5.346,0,0,0,2.416-.447,3.089,3.089,0,0,0,1.313-1.253,5.166,5.166,0,0,0,.567-2q.119-1.193.119-2.625a25.789,25.789,0,0,0-.119-2.744,4.375,4.375,0,0,0-.507-1.731,3.1,3.1,0,0,0-1.074-1.073,14.366,14.366,0,0,0-1.819-.895l-4.356-1.791q-3.937-1.61-5.28-4.265a14.678,14.678,0,0,1-1.342-6.652,15.425,15.425,0,0,1,.656-4.534,10.566,10.566,0,0,1,1.939-3.7,9.238,9.238,0,0,1,3.251-2.476,10.7,10.7,0,0,1,4.594-.926,10.108,10.108,0,0,1,4.146.836,10.323,10.323,0,0,1,3.222,2.207,9.831,9.831,0,0,1,2.058,3.073,8.914,8.914,0,0,1,.716,3.49Z" transform="translate(-438.486 -933.698)" fill="gray"/>
      <path id="Trazado_17" data-name="Trazado 17" d="M563.807,976.686H558.08l-4.654-27.562h-.119l-4.594,27.562h-5.727l-6.324-42.477h6.444l3.042,26.965h.12l4.772-26.965h4.653l4.952,27.621h.119l2.923-27.621h6.443Z" transform="translate(-453.201 -933.851)" fill="gray"/>
      <path id="Trazado_18" data-name="Trazado 18" d="M598.849,978.632h-.119a11.253,11.253,0,0,1-2.416,2.566,5.718,5.718,0,0,1-3.43.9,7.943,7.943,0,0,1-2.207-.328,5.511,5.511,0,0,1-2.118-1.193,6.237,6.237,0,0,1-1.611-2.446,11.237,11.237,0,0,1-.627-4.086,21.524,21.524,0,0,1,.418-4.5,7.146,7.146,0,0,1,1.521-3.222,6.573,6.573,0,0,1,2.953-1.909,14.946,14.946,0,0,1,4.713-.626q.656,0,1.312.06t1.611.119v-3.162a4.642,4.642,0,0,0-.656-2.565,2.629,2.629,0,0,0-2.387-1.015,3.438,3.438,0,0,0-2.177.775,3.682,3.682,0,0,0-1.283,2.268H586.44a9.939,9.939,0,0,1,2.744-6.563,8.617,8.617,0,0,1,2.864-1.878,9.8,9.8,0,0,1,3.758-.687,10.589,10.589,0,0,1,3.58.6,7.9,7.9,0,0,1,2.893,1.79,8.523,8.523,0,0,1,1.939,2.982,11.214,11.214,0,0,1,.716,4.176v21.059h-6.086Zm0-9.9a10.036,10.036,0,0,0-1.671-.18,5.994,5.994,0,0,0-3.371.925,3.74,3.74,0,0,0-1.4,3.37,4.436,4.436,0,0,0,.835,2.8,2.779,2.779,0,0,0,2.326,1.074,3,3,0,0,0,2.416-1.014,4.291,4.291,0,0,0,.865-2.865Z" transform="translate(-468.019 -938.9)" fill="gray"/>
      <path id="Trazado_19" data-name="Trazado 19" d="M617.933,938.546h6.085v9.187h3.759v4.773h-3.759V969.27a5.241,5.241,0,0,0,.209,1.671,1.7,1.7,0,0,0,.657.895,2.434,2.434,0,0,0,1.163.359q.715.059,1.729.059v5.727h-2.506a8.2,8.2,0,0,1-3.49-.656,6.272,6.272,0,0,1-2.236-1.671,6.523,6.523,0,0,1-1.223-2.3,8.527,8.527,0,0,1-.388-2.477V952.506h-3.042v-4.773h3.042Z" transform="translate(-476.544 -935.145)" fill="gray"/>
      <path id="Trazado_20" data-name="Trazado 20" d="M643.169,973.025a2.924,2.924,0,0,0,.8,2.207,3.007,3.007,0,0,0,2.178.775,2.4,2.4,0,0,0,2.3-1.014,5.457,5.457,0,0,0,.685-2.029h6.085a10.09,10.09,0,0,1-.626,3.58,7.926,7.926,0,0,1-1.819,2.864,8.573,8.573,0,0,1-2.864,1.969,9.461,9.461,0,0,1-3.759.715,9.357,9.357,0,0,1-4.832-1.193,8.016,8.016,0,0,1-4-5.906,22.331,22.331,0,0,1-.239-3.4V961.63a22.331,22.331,0,0,1,.239-3.4,8.019,8.019,0,0,1,4-5.907,9.363,9.363,0,0,1,4.832-1.193,9.661,9.661,0,0,1,3.789.716,7.973,7.973,0,0,1,2.862,2,8.869,8.869,0,0,1,1.791,3.072,11.647,11.647,0,0,1,.626,3.878h-6.085a3.885,3.885,0,0,0-.8-2.714,3.173,3.173,0,0,0-4.356,0,3.694,3.694,0,0,0-.8,2.6Z" transform="translate(-483.166 -938.9)" fill="gray"/>
      <path id="Trazado_21" data-name="Trazado 21" d="M667.014,934.209H673.1v15.153h.119a8.625,8.625,0,0,1,2.3-2.357,5.921,5.921,0,0,1,3.431-.925,6.976,6.976,0,0,1,2.266.388,5.246,5.246,0,0,1,2.029,1.283,6.46,6.46,0,0,1,1.431,2.3,9.619,9.619,0,0,1,.538,3.431v23.206h-6.086v-20.94a4.054,4.054,0,0,0-.775-2.625,2.683,2.683,0,0,0-2.207-.955,2.564,2.564,0,0,0-2.386,1.074,5.992,5.992,0,0,0-.656,3.1v20.343h-6.086Z" transform="translate(-492.097 -933.851)" fill="gray"/>
    </g>
    <g id="Grupo_3" data-name="Grupo 3" transform="translate(535.871 907.902)">
      <path id="Trazado_22" data-name="Trazado 22" d="M722,959.242H727.4a7.573,7.573,0,0,1,3.024.543,5.714,5.714,0,0,1,2.046,1.447,5.408,5.408,0,0,1,1.14,2.083,8.648,8.648,0,0,1,.345,2.443v.942a8.205,8.205,0,0,1-.164,1.774,4.25,4.25,0,0,1-.488,1.268,4.082,4.082,0,0,1-.8.959,6.9,6.9,0,0,1-1.087.779,3.975,3.975,0,0,1,1.92,1.829,7.2,7.2,0,0,1,.616,3.24V978a7.487,7.487,0,0,1-1.648,5.214q-1.648,1.813-5.268,1.811H722Zm3.693,10.573h1.666a2.82,2.82,0,0,0,2.479-.924,4.756,4.756,0,0,0,.634-2.7,4.072,4.072,0,0,0-.706-2.607,3.143,3.143,0,0,0-2.553-.87H725.7Zm0,11.514h1.594a3.887,3.887,0,0,0,1.756-.326,2.248,2.248,0,0,0,.959-.905,3.384,3.384,0,0,0,.4-1.376q.072-.8.073-1.738a11.566,11.566,0,0,0-.109-1.7,2.8,2.8,0,0,0-.453-1.213,2.127,2.127,0,0,0-.959-.742,4.352,4.352,0,0,0-1.63-.254H725.7Z" transform="translate(-722.005 -959.024)" fill="gray"/>
      <path id="Trazado_23" data-name="Trazado 23" d="M745.372,969.822l2.534,11.442h.073l2.5-11.442h3.8l-5.286,21.544a6.538,6.538,0,0,1-.815,2.046,4.691,4.691,0,0,1-1.213,1.3,4.415,4.415,0,0,1-1.466.688,6.519,6.519,0,0,1-1.611.2h-1.014v-3.476h.833a2.771,2.771,0,0,0,.941-.145,1.46,1.46,0,0,0,.707-.634,5.432,5.432,0,0,0,.561-1.447q.251-.961.579-2.553l-5.033-17.526Z" transform="translate(-727.81 -962.181)" fill="gray"/>
      <path id="Trazado_24" data-name="Trazado 24" d="M783.395,979.173a5.882,5.882,0,0,1-.452,2.28,6.02,6.02,0,0,1-1.25,1.9,6.164,6.164,0,0,1-1.864,1.3,5.446,5.446,0,0,1-2.3.489,8.247,8.247,0,0,1-2.136-.29,5.158,5.158,0,0,1-1.955-1A5.371,5.371,0,0,1,772.006,982a6.712,6.712,0,0,1-.561-2.933V964.869a6.278,6.278,0,0,1,.435-2.353,5.535,5.535,0,0,1,1.231-1.883,5.751,5.751,0,0,1,1.9-1.25,6.384,6.384,0,0,1,2.444-.452,6.061,6.061,0,0,1,2.354.452,5.644,5.644,0,0,1,1.883,1.268,5.869,5.869,0,0,1,1.25,1.955,6.678,6.678,0,0,1,.452,2.481v1.448H779.7V965.3a2.989,2.989,0,0,0-.616-1.883,2,2,0,0,0-1.666-.8,1.877,1.877,0,0,0-1.829.851,4.562,4.562,0,0,0-.453,2.156v13.18a3.407,3.407,0,0,0,.489,1.882,1.925,1.925,0,0,0,1.757.76,2.67,2.67,0,0,0,.778-.126,2.112,2.112,0,0,0,.76-.416,2.087,2.087,0,0,0,.561-.8,3.214,3.214,0,0,0,.218-1.267V977.58h3.693Z" transform="translate(-736.757 -958.931)" fill="gray"/>
      <path id="Trazado_25" data-name="Trazado 25" d="M791.987,975.884a13.679,13.679,0,0,1,.144-2.064,5,5,0,0,1,.544-1.665,4.953,4.953,0,0,1,1.883-1.92,6.3,6.3,0,0,1,5.866,0,4.87,4.87,0,0,1,2.425,3.585,13.568,13.568,0,0,1,.145,2.064v6.048a13.544,13.544,0,0,1-.145,2.063,4.87,4.87,0,0,1-2.425,3.585,6.308,6.308,0,0,1-5.866,0A4.873,4.873,0,0,1,792.131,984a13.655,13.655,0,0,1-.144-2.063Zm3.693,6.627a2.246,2.246,0,0,0,.488,1.575,1.93,1.93,0,0,0,2.645,0,2.245,2.245,0,0,0,.488-1.575V975.3a2.244,2.244,0,0,0-.488-1.575,1.926,1.926,0,0,0-2.645,0,2.245,2.245,0,0,0-.488,1.575Z" transform="translate(-742.887 -962.088)" fill="gray"/>
      <path id="Trazado_26" data-name="Trazado 26" d="M817.056,988.18H813.8l-4.779-18.358h3.911l2.461,11.731h.073l2.463-11.731h3.911Z" transform="translate(-747.969 -962.181)" fill="gray"/>
      <path id="Trazado_27" data-name="Trazado 27" d="M832.323,980.3v2.5a1.774,1.774,0,0,0,.489,1.339,1.825,1.825,0,0,0,1.321.47,1.454,1.454,0,0,0,1.394-.615,3.332,3.332,0,0,0,.417-1.23h3.693a6.141,6.141,0,0,1-.38,2.172,4.825,4.825,0,0,1-1.1,1.738,5.207,5.207,0,0,1-1.739,1.195,6.262,6.262,0,0,1-5.214-.289A4.869,4.869,0,0,1,828.773,984a13.667,13.667,0,0,1-.144-2.063v-6.048a13.692,13.692,0,0,1,.144-2.064,4.869,4.869,0,0,1,2.427-3.585,5.684,5.684,0,0,1,2.932-.724,5.867,5.867,0,0,1,2.3.435,4.841,4.841,0,0,1,1.739,1.213,5.462,5.462,0,0,1,1.086,1.828,6.556,6.556,0,0,1,.38,2.245v5.07Zm0-2.9h3.621v-2.1a2.241,2.241,0,0,0-.489-1.575,1.925,1.925,0,0,0-2.643,0,2.241,2.241,0,0,0-.489,1.575Z" transform="translate(-753.821 -962.088)" fill="gray"/>
      <path id="Trazado_28" data-name="Trazado 28" d="M848.188,969.729h3.693v1.955a11.2,11.2,0,0,1,2.209-1.593,5.643,5.643,0,0,1,2.68-.58v3.911a3,3,0,0,0-1.122-.218,4.434,4.434,0,0,0-1.25.2,3.417,3.417,0,0,0-1.231.671,3.584,3.584,0,0,0-.923,1.23,4.353,4.353,0,0,0-.363,1.883v10.9h-3.693Z" transform="translate(-759.657 -962.088)" fill="gray"/>
      <path id="Trazado_29" data-name="Trazado 29" d="M861.751,961.874h3.694v5.576h2.281v2.9h-2.281v10.175a3.182,3.182,0,0,0,.127,1.014,1.036,1.036,0,0,0,.4.543,1.464,1.464,0,0,0,.706.217c.29.025.639.036,1.05.036v3.477h-1.52a4.984,4.984,0,0,1-2.118-.4,3.825,3.825,0,0,1-1.358-1.014,3.974,3.974,0,0,1-.742-1.394,5.173,5.173,0,0,1-.236-1.5V970.347H859.9v-2.9h1.847Z" transform="translate(-763.153 -959.809)" fill="gray"/>
      <path id="Trazado_30" data-name="Trazado 30" d="M882.974,959.242h5.938q6.518,0,6.517,7.567a9.562,9.562,0,0,1-.705,3.856,5.457,5.457,0,0,1-2.481,2.589l3.983,11.769h-3.91l-3.441-11.008h-2.209v11.008h-3.693Zm3.693,11.514h2.1a3.721,3.721,0,0,0,1.557-.271,2.009,2.009,0,0,0,.888-.778,3.311,3.311,0,0,0,.416-1.25,13.646,13.646,0,0,0,0-3.44,3.111,3.111,0,0,0-.452-1.268,2.055,2.055,0,0,0-.959-.778,4.35,4.35,0,0,0-1.63-.254h-1.919Z" transform="translate(-770.037 -959.024)" fill="gray"/>
      <path id="Trazado_31" data-name="Trazado 31" d="M907.878,980.3v2.5a1.774,1.774,0,0,0,.489,1.339,1.824,1.824,0,0,0,1.321.47,1.454,1.454,0,0,0,1.394-.615,3.324,3.324,0,0,0,.417-1.23h3.694a6.157,6.157,0,0,1-.38,2.172,4.832,4.832,0,0,1-1.1,1.738,5.205,5.205,0,0,1-1.739,1.195,5.737,5.737,0,0,1-2.281.434,5.676,5.676,0,0,1-2.932-.723A4.867,4.867,0,0,1,904.329,984a13.707,13.707,0,0,1-.145-2.063v-6.048a13.731,13.731,0,0,1,.145-2.064,4.867,4.867,0,0,1,2.427-3.585,5.682,5.682,0,0,1,2.932-.724,5.867,5.867,0,0,1,2.3.435,4.839,4.839,0,0,1,1.738,1.213,5.463,5.463,0,0,1,1.087,1.828,6.574,6.574,0,0,1,.38,2.245v5.07Zm0-2.9H911.5v-2.1a2.241,2.241,0,0,0-.488-1.575,1.925,1.925,0,0,0-2.644,0,2.24,2.24,0,0,0-.489,1.575Z" transform="translate(-776.366 -962.088)" fill="gray"/>
      <path id="Trazado_32" data-name="Trazado 32" d="M930.167,974.87a1.843,1.843,0,0,0-.6-1.411,1.95,1.95,0,0,0-1.286-.471,1.653,1.653,0,0,0-1.339.562,1.945,1.945,0,0,0-.471,1.285,2.132,2.132,0,0,0,.254,1,2.348,2.348,0,0,0,1.3.887l2.172.869a5.278,5.278,0,0,1,2.843,2.172,6.008,6.008,0,0,1,.778,3.006,5.534,5.534,0,0,1-.416,2.154,5.737,5.737,0,0,1-1.142,1.756,5.185,5.185,0,0,1-1.737,1.195,5.549,5.549,0,0,1-2.209.434,5.9,5.9,0,0,1-2.064-.362,5.088,5.088,0,0,1-1.72-1.05,5.31,5.31,0,0,1-1.213-1.719,6.166,6.166,0,0,1-.507-2.408h3.476a3.533,3.533,0,0,0,.526,1.411,1.6,1.6,0,0,0,1.466.652,2.185,2.185,0,0,0,1.431-.525,1.8,1.8,0,0,0,.634-1.467,2.144,2.144,0,0,0-.4-1.3,3.139,3.139,0,0,0-1.448-.941l-1.774-.652A6.04,6.04,0,0,1,923.993,978a4.958,4.958,0,0,1-1-3.133,5.333,5.333,0,0,1,.435-2.154,5.175,5.175,0,0,1,1.178-1.7,5.443,5.443,0,0,1,1.719-1.1,5.5,5.5,0,0,1,2.1-.4,5.176,5.176,0,0,1,2.082.417,5.1,5.1,0,0,1,1.648,1.123,5.165,5.165,0,0,1,1.086,1.7,5.664,5.664,0,0,1,.4,2.118Z" transform="translate(-781.925 -962.088)" fill="gray"/>
      <path id="Trazado_33" data-name="Trazado 33" d="M952.956,988.18h-3.694v-1.775h-.073a5.228,5.228,0,0,1-1.394,1.43,3.586,3.586,0,0,1-2.083.561,4.231,4.231,0,0,1-1.375-.235,3.185,3.185,0,0,1-1.232-.779,3.925,3.925,0,0,1-.868-1.394,5.854,5.854,0,0,1-.326-2.082V969.822H945.6v12.709a2.457,2.457,0,0,0,.471,1.593,1.628,1.628,0,0,0,1.341.579,1.556,1.556,0,0,0,1.447-.651,3.637,3.637,0,0,0,.4-1.883V969.822h3.694Z" transform="translate(-787.623 -962.181)" fill="gray"/>
      <path id="Trazado_34" data-name="Trazado 34" d="M961.678,959.242h3.694v20.6a2.036,2.036,0,0,0,.38,1.431,2.408,2.408,0,0,0,1.43.488v3.476a12.11,12.11,0,0,1-2.3-.2,3.928,3.928,0,0,1-1.738-.76,3.548,3.548,0,0,1-1.087-1.575,7.52,7.52,0,0,1-.38-2.607Z" transform="translate(-793.521 -959.024)" fill="gray"/>
      <path id="Trazado_35" data-name="Trazado 35" d="M970.8,961.874h3.693v5.576h2.281v2.9h-2.281v10.175a3.18,3.18,0,0,0,.128,1.014,1.034,1.034,0,0,0,.4.543,1.467,1.467,0,0,0,.707.217c.289.025.639.036,1.049.036v3.477h-1.52a4.98,4.98,0,0,1-2.118-.4,3.824,3.824,0,0,1-1.359-1.014,3.967,3.967,0,0,1-.742-1.394,5.149,5.149,0,0,1-.236-1.5V970.347h-1.847v-2.9H970.8Z" transform="translate(-795.692 -959.809)" fill="gray"/>
      <path id="Trazado_36" data-name="Trazado 36" d="M988.537,974.87a1.838,1.838,0,0,0-.6-1.411,1.947,1.947,0,0,0-1.285-.471,1.651,1.651,0,0,0-1.339.562,1.939,1.939,0,0,0-.471,1.285,2.132,2.132,0,0,0,.254,1,2.349,2.349,0,0,0,1.3.887l2.172.869a5.274,5.274,0,0,1,2.843,2.172,6.005,6.005,0,0,1,.779,3.006,5.532,5.532,0,0,1-.416,2.154,5.751,5.751,0,0,1-1.141,1.756,5.2,5.2,0,0,1-1.737,1.195,5.552,5.552,0,0,1-2.209.434,5.894,5.894,0,0,1-2.063-.362,5.081,5.081,0,0,1-1.721-1.05,5.293,5.293,0,0,1-1.213-1.719,6.159,6.159,0,0,1-.507-2.408h3.477a3.517,3.517,0,0,0,.526,1.411,1.6,1.6,0,0,0,1.465.652,2.182,2.182,0,0,0,1.431-.525,1.8,1.8,0,0,0,.634-1.467,2.141,2.141,0,0,0-.4-1.3,3.134,3.134,0,0,0-1.448-.941l-1.774-.652A6.038,6.038,0,0,1,982.363,978a4.956,4.956,0,0,1-1-3.133,5.325,5.325,0,0,1,.435-2.154,5.165,5.165,0,0,1,1.177-1.7,5.493,5.493,0,0,1,3.82-1.5,5.18,5.18,0,0,1,2.082.417,5,5,0,0,1,2.734,2.824,5.654,5.654,0,0,1,.4,2.118Z" transform="translate(-799.342 -962.088)" fill="gray"/>
    </g>
    <g id="Grupo_4" data-name="Grupo 4" transform="translate(533.376 893.95)">
      <rect id="Rectángulo_3" data-name="Rectángulo 3" width="195.346" height="2.43" fill="gray"/>
    </g>
    <path id="Trazado_37" data-name="Trazado 37" d="M163.587,880.924l-20.772-45.266-44.6-20.731,27.367,66.236Z" transform="translate(0 -8.059)" fill="#00bdff"/>
    <path id="Trazado_38" data-name="Trazado 38" d="M125.58,909.24l-27.367,65.2L142.674,954.4,163.587,909Z" transform="translate(0 -36.13)" fill="#0065a5"/>
    <path id="Trazado_39" data-name="Trazado 39" d="M214.575,891.254l-13.018-28.369L173.6,849.892,192.664,891.4Z" transform="translate(-22.496 -18.492)" fill="#00bdff"/>
    <path id="Trazado_40" data-name="Trazado 40" d="M192.664,909,173.6,949.863,201.468,937.3l13.107-28.453Z" transform="translate(-22.496 -36.085)" fill="#0065a5"/>
    <path id="Trazado_41" data-name="Trazado 41" d="M216.1,787.947a143.388,143.388,0,0,0-77.366,20.846l4.623,2.149a139.133,139.133,0,0,1,72.743-18.77Z" transform="translate(-12.09 0)"/>
    <path id="Trazado_42" data-name="Trazado 42" d="M217.829,1033.8l-.041.025-68.512-39.239-4.74,2.136,73.293,41.977Z" transform="translate(-13.822 -61.667)"/>
    <path id="Trazado_43" data-name="Trazado 43" d="M306.772,880.924,327.6,835.658l44.728-20.731-27.444,66.236Z" transform="translate(-62.232 -8.059)" fill="#00bdff"/>
    <path id="Trazado_44" data-name="Trazado 44" d="M344.887,909.24l27.444,65.2L327.744,954.4,306.772,909Z" transform="translate(-62.232 -36.13)" fill="#0065a5"/>
    <path id="Trazado_45" data-name="Trazado 45" d="M266.048,891.254,279.1,862.885l28.032-12.993L288.021,891.4Z" transform="translate(-50.081 -18.492)" fill="#00bdff"/>
    <path id="Trazado_46" data-name="Trazado 46" d="M288.021,909l19.114,40.862L279.192,937.3,266.048,908.85Z" transform="translate(-50.081 -36.085)" fill="#0065a5"/>
    <path id="Trazado_47" data-name="Trazado 47" d="M249,787.947a144.1,144.1,0,0,1,77.584,20.846l-4.636,2.149A139.83,139.83,0,0,0,249,792.171Z" transform="translate(-44.994 0)"/>
    <path id="Trazado_48" data-name="Trazado 48" d="M249,1033.8l.041.025,68.705-39.239,4.754,2.136L249,1038.7Z" transform="translate(-44.994 -61.667)"/>
  </g>
</svg>
