<svg xmlns="http://www.w3.org/2000/svg" width="70.467" height="93.25" viewBox="0 0 70.467 93.25">
  <g id="Grupo_32" data-name="Grupo 32" transform="translate(351.797 -1760.481)">
    <path id="Trazado_535" data-name="Trazado 535" d="M-327.833,1760.522c2.847,0,5.693.007,8.54,0a4.335,4.335,0,0,1,4.729,4.437c.064,1.211.06,2.428.031,3.641-.02.845.3,1.255,1.172,1.21.5-.026,1.006.025,1.507-.005,5.247-.315,7.924,4.337,7.853,7.917-.079,3.976.008,7.954-.03,11.931a7.724,7.724,0,0,0,1.248,4.927,79.818,79.818,0,0,1,4.251,7.535q7.12,12.911,14.237,25.822c.787,1.429,1.583,2.855,2.32,4.31,1.62,3.2.082,6.023-3.457,6.5a33.913,33.913,0,0,1-4.379.012c-4.307.032-8.613.182-12.918-.037-1-.051-1.3.352-1.307,1.316a50.351,50.351,0,0,1-.129,7.4,7.02,7.02,0,0,1-7.084,6.225c-4.435-.144-8.862.253-13.294-.049-1.748-.119-3.513.041-5.267.06-4.973.055-9.948-.031-14.921-.1-4.235-.058-6.853-3.783-7.018-7.466-.077-1.707.241-3.436.124-5.137-.334-4.848-.029-9.7-.057-14.542-.028-4.882-.256-9.778.065-14.665.123-1.878-.212-3.776-.113-5.638.26-4.85-.236-9.7.112-14.543a45.455,45.455,0,0,0-.138-5.516c-.155-3.09.2-6.176.1-9.279-.11-3.763,3.485-7.022,7.273-7,3.586.021,3.138.428,3.115-3.11-.011-1.644-.047-3.255,1.239-4.577a4.83,4.83,0,0,1,3.779-1.619c2.8.064,5.609.018,8.414.018Zm-.179,14.589v0q-7.978,0-15.955,0c-1.565,0-2.4.605-2.316,1.98.186,3.146-.348,6.277-.13,9.41.337,4.847-.158,9.695.12,14.545.1,1.818-.265,3.68-.119,5.513.382,4.8-.186,9.611.122,14.42.12,1.86-.279,3.762-.125,5.638.388,4.721-.228,9.445.14,14.168.126,1.615-.154,3.258-.136,4.886.022,2,.778,2.75,2.766,2.753q15.892.029,31.784,0a2.175,2.175,0,0,0,2.5-2.456c.04-1.968-.017-3.938.052-5.9.037-1.073-.4-1.382-1.411-1.344-2.508.1-5.023.226-7.527.137a48.748,48.748,0,0,0-5.768-.052,16.993,16.993,0,0,1-4-.115,4.161,4.161,0,0,1-3.114-6.268c1.1-2.02,2.152-4.064,3.3-6.059,1.9-3.3,3.65-6.686,5.479-10.027,2.632-4.808,5.22-9.642,7.941-14.4,1.393-2.435,2.627-4.953,4.048-7.368a5.011,5.011,0,0,0,1.062-2.719c-.062-4.605-.015-9.212-.03-13.819-.007-2.191-.756-2.913-2.977-2.916Q-320.16,1775.1-328.011,1775.112Zm21.382,58.473v-.016q3.2,0,6.407,0,5.9.006,11.808.011c.318,0,.725.129.919-.222s-.135-.615-.3-.894c-.3-.5-.612-1-.892-1.512-2.844-5.216-5.658-10.449-8.53-15.65-2.832-5.128-5.719-10.225-8.587-15.333-.176-.313-.25-.793-.719-.769-.43.022-.564.464-.741.781q-3.943,7.071-7.866,14.152-5.025,9.125-10.007,18.273c-.172.315-.612.6-.382.986.218.364.691.185,1.051.186Q-315.548,1833.591-306.629,1833.584Zm-21.075-67.76c-1.922,0-3.845.02-5.767-.005-2.762-.036-2.411-.149-2.46,2.518-.02,1.084.347,1.476,1.443,1.466,4.095-.037,8.19.013,12.286,0,2.672-.01,2.516.407,2.535-2.578.007-1.134-.482-1.434-1.518-1.411C-323.358,1765.859-325.531,1765.826-327.7,1765.824Z" transform="translate(0 0)" fill="#0065a5"/>
    <path id="Trazado_536" data-name="Trazado 536" d="M-176.615,1953.535c0,1.758.018,3.516-.01,5.274a6.489,6.489,0,0,1-.226,1.731,2.6,2.6,0,0,1-2.826,1.793,2.61,2.61,0,0,1-2.225-2.646q-.055-6.278,0-12.556a2.482,2.482,0,0,1,2.523-2.574,2.472,2.472,0,0,1,2.627,2.331c.132,2.208.034,4.43.034,6.646Z" transform="translate(-127.185 -137.822)" fill="#0065a5"/>
    <path id="Trazado_537" data-name="Trazado 537" d="M-181.9,2021.5c.013-1.874,1.019-3.051,2.6-3.036a2.806,2.806,0,0,1,2.7,3.013c-.041,1.864-1.148,3.1-2.759,3.081S-181.911,2023.424-181.9,2021.5Z" transform="translate(-127.209 -193.164)" fill="#0065a5"/>
  </g>
</svg>
