<svg xmlns="http://www.w3.org/2000/svg" width="24.657" height="18.475" viewBox="0 0 24.657 18.475">
  <g id="Grupo_22933" data-name="Grupo 22933" transform="translate(453.197 -1779.198)">
    <path id="Trazado_538" data-name="Trazado 538" d="M-446.413,1911.486q-2.432,0-4.863,0a1.843,1.843,0,0,1-1.689-2.728c.712-1.33,1.493-2.624,2.244-3.934.873-1.525,1.75-3.047,2.618-4.575a1.887,1.887,0,0,1,2.2-1.026,1.7,1.7,0,0,1,1.084.8q1.4,2.427,2.8,4.856c.715,1.242,1.433,2.482,2.143,3.726a1.883,1.883,0,0,1-1.186,2.846,1.555,1.555,0,0,1-.381.035h-4.966Zm-.57-7.409h0c0,.579,0,1.159,0,1.738a.709.709,0,0,0,.258.61.6.6,0,0,0,.922-.545q.015-1.8,0-3.6a.569.569,0,0,0-.371-.563.594.594,0,0,0-.811.6C-446.989,1902.9-446.983,1903.489-446.983,1904.077Zm.6,4.9a.593.593,0,0,0,.581-.569.609.609,0,0,0-.577-.6.6.6,0,0,0-.595.584A.594.594,0,0,0-446.383,1908.981Z" transform="translate(0 -113.814)" fill="#131313"/>
    <path id="Trazado_539" data-name="Trazado 539" d="M-441.712,1779.2c2.518,0,5.035-.009,7.553,0a3.7,3.7,0,0,1,3.487,3.057,11.317,11.317,0,0,1,.049,1.584c0,.217.078.282.284.275.324-.012.649-.009.973,0a1.208,1.208,0,0,1,1.2,1.163q.029,1.318,0,2.637a1.213,1.213,0,0,1-1.168,1.144c-.341.013-.683.012-1.024,0-.2-.007-.259.073-.263.269a8.463,8.463,0,0,1-.1,1.835,3.708,3.708,0,0,1-3.484,2.812c-1.391.012-2.782,0-4.173.006a.362.362,0,0,1-.362-.216c-.246-.449-.512-.887-.764-1.332-.18-.317-.17-.331.183-.331,1.587,0,3.175,0,4.762,0a1.958,1.958,0,0,0,1.714-.791,1.938,1.938,0,0,0,.334-1.16c.006-.561.006-1.123,0-1.684s-.016-1.107-.016-1.66c0-.528.015-1.057.017-1.585,0-.758.024-1.516,0-2.273a1.864,1.864,0,0,0-2.03-1.872c-1.673,0-3.345,0-5.018,0q-4.634,0-9.268,0a1.922,1.922,0,0,0-1.8.876,2.006,2.006,0,0,0-.279,1.076q0,3.149,0,6.3a1.014,1.014,0,0,1-.136.534c-.386.664-.764,1.332-1.146,2-.033.057-.05.146-.125.151-.1.006-.107-.1-.136-.162a3.286,3.286,0,0,1-.334-1.329c0-2.637-.043-5.275.017-7.911a3.4,3.4,0,0,1,1.93-2.972,3.605,3.605,0,0,1,1.793-.44c2.441.011,4.882,0,7.322,0Z" transform="translate(-0.386 0)" fill="#131313"/>
  </g>
</svg>
