<svg xmlns="http://www.w3.org/2000/svg" width="43.005" height="54.424" viewBox="0 0 43.005 54.424">
  <g id="Grupo_22974" data-name="Grupo 22974" transform="translate(188.667 692.605)">
    <path id="Trazado_1340" data-name="Trazado 1340" d="M-69.328-572.563a5.367,5.367,0,0,0-5.367,5.306,5.389,5.389,0,0,0,5.311,5.372,5.389,5.389,0,0,0,5.367-5.315A5.372,5.372,0,0,0-69.328-572.563Z" transform="translate(-97.809 -103.018)"/>
    <path id="Trazado_1341" data-name="Trazado 1341" d="M-146.74-678.051a21.5,21.5,0,0,0-5.95-8.79c-6.02-5.473-13.012-7.013-20.788-4.773-5.059,1.457-8.838,4.712-11.781,8.994a18.751,18.751,0,0,0-3.366,9.536,23.434,23.434,0,0,0,1.943,10.547,48.376,48.376,0,0,0,6.78,11.168,107.05,107.05,0,0,0,8.023,9.045c1.371,1.4,2.708,2.843,4.183,4.143h1.062a11.9,11.9,0,0,0,1.275-1.2,123.848,123.848,0,0,0,11.607-12.877,42.959,42.959,0,0,0,6.837-12.273A20.317,20.317,0,0,0-146.74-678.051ZM-167.3-660.84a9.447,9.447,0,0,1-9.28-9.348,9.369,9.369,0,0,1,9.426-9.473,9.383,9.383,0,0,1,9.414,9.433A9.451,9.451,0,0,1-167.3-660.84Z"/>
  </g>
</svg>
