<svg xmlns="http://www.w3.org/2000/svg" width="17.076" height="16.298" viewBox="0 0 17.076 16.298">
  <g id="Grupo_22989" data-name="Grupo 22989" transform="translate(-14694.354 124.9)">
    <g id="Grupo_22986" data-name="Grupo 22986" transform="translate(1 0.774)">
      <line id="Línea_356" data-name="Línea 356" y1="4.974" transform="translate(14706.942 -122.774)" fill="none" stroke="#fff" stroke-linecap="round" stroke-width="2"/>
      <line id="Línea_357" data-name="Línea 357" y1="4.974" transform="translate(14709.43 -120.287) rotate(90)" fill="none" stroke="#fff" stroke-linecap="round" stroke-width="2"/>
    </g>
    <g id="Grupo_22988" data-name="Grupo 22988" transform="translate(0 -0.23)">
      <g id="Rectángulo_14110" data-name="Rectángulo 14110" transform="translate(14694.354 -121)" fill="none" stroke="#fff" stroke-linecap="round" stroke-linejoin="round" stroke-width="1.8">
        <rect width="8" height="9" rx="2" stroke="none"/>
        <rect x="0.9" y="0.9" width="6.2" height="7.2" rx="1.1" fill="none"/>
      </g>
      <g id="Grupo_22984" data-name="Grupo 22984" transform="translate(-20.261 2.665)">
        <path id="Trazado_17558" data-name="Trazado 17558" d="M14716.428-122.952l.64-2.991s.164-.492,1.036-.492h1.182" transform="translate(-0.141)" fill="none" stroke="#fff" stroke-linecap="round" stroke-linejoin="round" stroke-width="1.8"/>
        <path id="Trazado_17559" data-name="Trazado 17559" d="M14719.282-122.952l-.639-2.991s-.164-.492-1.035-.492h-1.18" transform="translate(1.659)" fill="none" stroke="#fff" stroke-linecap="round" stroke-linejoin="round" stroke-width="1.8"/>
      </g>
      <g id="Grupo_22985" data-name="Grupo 22985" transform="translate(29416.969 -235.707) rotate(180)">
        <path id="Trazado_17558-2" data-name="Trazado 17558" d="M14716.428-123.178l.64-2.8s.164-.46,1.036-.46h1.182" transform="translate(-0.141)" fill="none" stroke="#fff" stroke-linecap="round" stroke-linejoin="round" stroke-width="1.8"/>
        <path id="Trazado_17559-2" data-name="Trazado 17559" d="M14719.282-123.178l-.639-2.8s-.164-.46-1.035-.46h-1.18" transform="translate(1.659)" fill="none" stroke="#fff" stroke-linecap="round" stroke-linejoin="round" stroke-width="1.8"/>
      </g>
    </g>
  </g>
</svg>
