<svg xmlns="http://www.w3.org/2000/svg" width="77.996" height="99.29" viewBox="0 0 77.996 99.29">
  <g id="Grupo_30" data-name="Grupo 30" transform="translate(18 -1947.5)">
    <path id="Trazado_524" data-name="Trazado 524" d="M72.957,2027.824a14.657,14.657,0,0,1-7.218-1.257c-2.977-1.46-5.709-1.153-8.571.071a17.12,17.12,0,0,1-3.519,1.125c-2.427.456-4.026-1.153-3.574-3.593a15.625,15.625,0,0,1,1.108-3.525c1.344-2.989,1.143-5.765.009-8.9-4.557-12.59,2.915-26.3,16.1-30.013a23.466,23.466,0,1,1,5.662,46.088Zm.112-3.369a20.093,20.093,0,1,0-5.607-39.27c-10.93,3.348-16.747,14.626-12.912,25.864,1.249,3.66,1.522,6.9-.008,10.393-.293.668-1.042,1.6-.218,2.245.694.546,1.584-.052,2.306-.389a10.652,10.652,0,0,1,9.776-.107A13.907,13.907,0,0,0,73.069,2024.455Z" transform="translate(-37.46 -18.296)" fill="#0065a5"/>
    <path id="Trazado_524_-_Contorno" data-name="Trazado 524 - Contorno" d="M71.877,2028.355a14.347,14.347,0,0,1-6.359-1.34,8.505,8.505,0,0,0-3.813-.925,11.027,11.027,0,0,0-4.342,1.006,17.491,17.491,0,0,1-3.624,1.156,4.845,4.845,0,0,1-.89.086,3.3,3.3,0,0,1-2.6-1.13,3.738,3.738,0,0,1-.667-3.13,16.231,16.231,0,0,1,1.143-3.639c1.2-2.66,1.194-5.208,0-8.521a22.642,22.642,0,0,1-1.308-9.452,23.08,23.08,0,0,1,2.513-8.869,24.04,24.04,0,0,1,6.144-7.611,24.757,24.757,0,0,1,9.089-4.733,22.96,22.96,0,0,1,6.224-.858,24.366,24.366,0,0,1,14.941,5.224,24.092,24.092,0,0,1,5.417,5.928,23.021,23.021,0,0,1,3.157,7.607,23.87,23.87,0,0,1-4.725,20.142,24.42,24.42,0,0,1-19.142,9.027h-.06C72.605,2028.345,72.238,2028.355,71.877,2028.355Zm-10.172-3.265a9.482,9.482,0,0,1,4.253,1.027,13.362,13.362,0,0,0,5.919,1.238c.346,0,.7-.01,1.05-.031h.1a23.425,23.425,0,0,0,18.363-8.654A22.908,22.908,0,0,0,73.383,1981.4a21.957,21.957,0,0,0-5.953.821,23.62,23.62,0,0,0-14.614,11.838,21.76,21.76,0,0,0-1.154,17.523c1.279,3.532,1.271,6.392-.023,9.271a15.215,15.215,0,0,0-1.072,3.411,2.766,2.766,0,0,0,.452,2.309,2.287,2.287,0,0,0,1.832.77,3.84,3.84,0,0,0,.706-.069,16.515,16.515,0,0,0,3.415-1.093A12,12,0,0,1,61.706,2025.091Zm10.661-.121a14.077,14.077,0,0,1-6.181-1.332,9.876,9.876,0,0,0-4.439-1.086,11.5,11.5,0,0,0-4.9,1.2c-.1.046-.2.1-.31.152a3.621,3.621,0,0,1-1.562.5,1.508,1.508,0,0,1-.955-.328,1.388,1.388,0,0,1-.545-1.368,3.684,3.684,0,0,1,.436-1.113c.068-.13.132-.252.179-.358,1.346-3.07,1.344-6.07-.007-10.03a20.869,20.869,0,0,1,.994-16.371,20.216,20.216,0,0,1,12.245-10.132,20.812,20.812,0,0,1,18.222,2.989,20.329,20.329,0,0,1,4.574,4.527,20.007,20.007,0,0,1,2.972,5.928,20.552,20.552,0,0,1-19.926,26.8h-.078C72.842,2024.965,72.6,2024.97,72.366,2024.97Zm-10.621-3.418a10.854,10.854,0,0,1,4.881,1.189,13.076,13.076,0,0,0,5.74,1.229c.226,0,.455,0,.681-.015h.109a19.582,19.582,0,1,0-5.549-38.292,19.224,19.224,0,0,0-11.647,9.631,19.878,19.878,0,0,0-.938,15.593,17.608,17.608,0,0,1,1.065,5.412A12.442,12.442,0,0,1,55,2021.642c-.061.138-.136.282-.209.422-.409.778-.439,1.008-.158,1.229a.509.509,0,0,0,.336.114,2.959,2.959,0,0,0,1.114-.4c.111-.055.225-.113.336-.165A12.475,12.475,0,0,1,61.746,2021.552Z" transform="translate(-37.46 -18.296)" fill="#0065a5"/>
    <path id="Trazado_525" data-name="Trazado 525" d="M27.135,2039.113a10.722,10.722,0,0,0-3.361-1.034v6.079a4.385,4.385,0,0,1-4.38,4.38H-8.238a4.385,4.385,0,0,1-4.38-4.38v-37.4a4.385,4.385,0,0,1,4.38-4.38H11.338a26.93,26.93,0,0,1,2.95-4.882H-8.238a9.273,9.273,0,0,0-9.262,9.262v37.4a9.273,9.273,0,0,0,9.262,9.262H19.393a9.273,9.273,0,0,0,9.262-9.262v-4.428A12.908,12.908,0,0,1,27.135,2039.113Z" transform="translate(0 -27.532)" fill="#0065a5"/>
    <path id="Trazado_525_-_Contorno" data-name="Trazado 525 - Contorno" d="M19.393,2053.919H-8.238A9.773,9.773,0,0,1-18,2044.158v-37.4A9.773,9.773,0,0,1-8.238,1997H15.3l-.609.8a26.475,26.475,0,0,0-2.9,4.791l-.135.288H-8.238a3.884,3.884,0,0,0-3.88,3.88v37.4a3.884,3.884,0,0,0,3.88,3.88H19.393a3.884,3.884,0,0,0,3.88-3.88v-6.648l.564.073a11.155,11.155,0,0,1,3.517,1.081,12.279,12.279,0,0,0,1.462.592l.338.115v4.786A9.773,9.773,0,0,1,19.393,2053.919ZM-8.238,1998A8.772,8.772,0,0,0-17,2006.762v37.4a8.772,8.772,0,0,0,8.762,8.762H19.393a8.772,8.772,0,0,0,8.762-8.762v-4.074a12.371,12.371,0,0,1-1.241-.521,10.364,10.364,0,0,0-2.641-.9v5.493a4.886,4.886,0,0,1-4.88,4.88H-8.238a4.886,4.886,0,0,1-4.88-4.88v-37.4a4.886,4.886,0,0,1,4.88-4.88h19.26A27.466,27.466,0,0,1,13.3,1998Z" transform="translate(0 -27.532)" fill="#0065a5"/>
    <path id="Trazado_526" data-name="Trazado 526" d="M28.4,2118c-1.955,6.188-3.775,11.971-5.668,17.724-.591,1.8-2.228,2.321-4.02,2.321-4.419,0-8.838-.009-13.257.008-1.828.007-3.356-.608-3.946-2.408-1.873-5.721-3.7-11.464-5.659-17.644H-7.93q2.612,8.4,5.224,16.794c1.616,5.219,3.72,6.846,9.105,6.888,3.652.028,7.3.014,10.957.006,6.014-.012,7.847-1.626,9.845-7.305,1.881-5.349,3.12-10.945,4.781-16.382Z" transform="translate(-5.323 -95.409)" fill="#0065a5"/>
    <path id="Trazado_526_-_Contorno" data-name="Trazado 526 - Contorno" d="M-8.609,2117.5h4.828l.437,1.375c1.832,5.766,3.563,11.213,5.332,16.614.455,1.389,1.58,2.064,3.44,2.064h.029c1.918-.007,4.025-.01,6.63-.01l6.629,0c1.949,0,3.108-.647,3.545-1.977,1.775-5.4,3.49-10.828,5.306-16.579l.47-1.489h4.62l-.2.646c-.655,2.144-1.254,4.353-1.834,6.489-.89,3.276-1.81,6.664-2.953,9.914-1.118,3.177-2.156,4.918-3.585,6.009-1.507,1.151-3.457,1.624-6.731,1.63l-1.437,0c-1.519,0-3.091.007-4.636.007-1.859,0-3.412-.005-4.888-.016-2.9-.022-4.834-.517-6.264-1.6s-2.43-2.778-3.314-5.636c-1.141-3.686-2.308-7.431-3.436-11.054q-.894-2.87-1.787-5.74Zm4.1,1H-7.251q.792,2.546,1.585,5.091c1.129,3.623,2.3,7.369,3.437,11.055,1.557,5.03,3.493,6.5,8.631,6.536,1.473.011,3.024.016,4.881.016,1.545,0,3.115,0,4.634-.007l1.437,0c5.632-.011,7.384-1.314,9.374-6.971,1.131-3.215,2.046-6.585,2.931-9.844.524-1.93,1.064-3.919,1.648-5.872H28.769l-.249.79c-1.817,5.754-3.533,11.189-5.31,16.591A3.521,3.521,0,0,1,21.4,2138a5.969,5.969,0,0,1-2.684.541l-6.631,0c-2.6,0-4.71,0-6.627.01H5.427c-2.883,0-3.979-1.5-4.39-2.753-1.77-5.4-3.5-10.853-5.334-16.622Z" transform="translate(-5.323 -95.409)" fill="#0065a5"/>
    <g id="Grupo_29" data-name="Grupo 29" transform="translate(-13.253 1948)">
      <path id="Trazado_527" data-name="Trazado 527" d="M22.539,1954.055c1.031,3.148,2.047,6.306,3.079,9.536a28.219,28.219,0,0,1,3.24-1.934q-1.05-3.376-2.1-6.753c-1.616-5.219-3.72-6.846-9.105-6.888-3.652-.028-7.3-.013-10.957-.006-6.014.012-7.847,1.626-9.845,7.306-1.882,5.348-3.12,10.945-4.781,16.382h3.578c1.955-6.188,3.776-11.971,5.668-17.724.591-1.8,2.227-2.321,4.02-2.321,4.419,0,8.838.009,13.257-.007C20.421,1951.639,21.95,1952.254,22.539,1954.055Z" transform="translate(7.93 -1948)" fill="#0065a5"/>
      <path id="Trazado_527_-_Contorno" data-name="Trazado 527 - Contorno" d="M12.8,1947.5c1.848,0,3.39.005,4.853.016,2.9.022,4.834.517,6.264,1.6s2.43,2.778,3.314,5.636c.482,1.557.976,3.141,1.453,4.672l.648,2.08.125.4-.376.191A27.856,27.856,0,0,0,25.9,1964l-.555.383-.205-.642c-1.195-3.74-2.173-6.77-3.078-9.533-.455-1.389-1.58-2.064-3.44-2.064H18.6c-1.953.007-4.088.011-6.72.011l-4.2,0H5.336c-1.949,0-3.108.647-3.545,1.977C.026,1959.5-1.68,1964.9-3.486,1970.618l-.5,1.58h-4.62l.2-.646c.655-2.143,1.254-4.352,1.834-6.487.89-3.276,1.81-6.665,2.953-9.914,1.118-3.178,2.156-4.919,3.584-6.01,1.507-1.151,3.457-1.624,6.731-1.63l1.586,0C9.763,1947.5,11.3,1947.5,12.8,1947.5Zm15.453,13.906-.523-1.68c-.477-1.532-.97-3.115-1.453-4.674-1.557-5.03-3.493-6.5-8.631-6.536-1.46-.011-3-.016-4.845-.016-1.507,0-3.039,0-4.521.007l-1.586,0c-5.633.012-7.385,1.315-9.374,6.972-1.131,3.215-2.046,6.585-2.931,9.845-.524,1.93-1.064,3.919-1.648,5.871h2.538l.278-.882c1.807-5.722,3.514-11.126,5.281-16.5a3.522,3.522,0,0,1,1.809-2.124,5.969,5.969,0,0,1,2.685-.541h2.34l4.2,0c2.63,0,4.765,0,6.716-.011h.033c2.883,0,3.979,1.5,4.39,2.753.854,2.608,1.773,5.451,2.877,8.905C26.664,1962.3,27.456,1961.829,28.256,1961.406Z" transform="translate(7.93 -1948)" fill="#0065a5"/>
    </g>
    <circle id="Elipse_9" data-name="Elipse 9" cx="3" cy="3" r="3" transform="translate(24 1983.587)" fill="#0065a5"/>
    <path id="Elipse_9_-_Contorno" data-name="Elipse 9 - Contorno" d="M3,1A2,2,0,1,0,5,3,2,2,0,0,0,3,1M3,0A3,3,0,1,1,0,3,3,3,0,0,1,3,0Z" transform="translate(24 1983.587)" fill="#0065a5"/>
    <circle id="Elipse_10" data-name="Elipse 10" cx="3" cy="3" r="3" transform="translate(33 1983.587)" fill="#0065a5"/>
    <path id="Elipse_10_-_Contorno" data-name="Elipse 10 - Contorno" d="M3,1A2,2,0,1,0,5,3,2,2,0,0,0,3,1M3,0A3,3,0,1,1,0,3,3,3,0,0,1,3,0Z" transform="translate(33 1983.587)" fill="#0065a5"/>
    <circle id="Elipse_11" data-name="Elipse 11" cx="3" cy="3" r="3" transform="translate(42 1983.587)" fill="#0065a5"/>
    <path id="Elipse_11_-_Contorno" data-name="Elipse 11 - Contorno" d="M3,1A2,2,0,1,0,5,3,2,2,0,0,0,3,1M3,0A3,3,0,1,1,0,3,3,3,0,0,1,3,0Z" transform="translate(42 1983.587)" fill="#0065a5"/>
  </g>
</svg>
