<svg xmlns="http://www.w3.org/2000/svg" width="138.728" height="90.583" viewBox="0 0 138.728 90.583">
  <g id="Grupo_26" data-name="Grupo 26" transform="translate(-1352.226 -1089.412)">
    <g id="Grupo_25" data-name="Grupo 25" transform="translate(1352.726 1089.912)">
      <path id="Trazado_501" data-name="Trazado 501" d="M452.974,1352.939a24.69,24.69,0,0,1,24.2,19.373,24.433,24.433,0,0,1-2.968,18.234c-4.348,7.454-8.779,14.86-13.175,22.286-2.071,3.5-4.125,7.006-6.222,10.489-1.132,1.881-2.556,1.9-3.669.024q-8.252-13.887-16.457-27.8c-1.252-2.118-2.554-4.211-3.709-6.381a24.779,24.779,0,0,1,22.005-36.223Zm21.111,23.988a20.589,20.589,0,0,0-7.736-15.5,21.107,21.107,0,0,0-31.444,27.26c5.65,9.664,11.38,19.282,17.082,28.915,1.082,1.827.87,1.818,1.956-.015,5.487-9.264,10.924-18.557,16.445-27.8A23.826,23.826,0,0,0,474.085,1376.928Z" transform="translate(-383.652 -1352.937)" fill="#0065a5"/>
      <path id="Trazado_501_-_Contorno" data-name="Trazado 501 - Contorno" d="M453.3,1352.437a24.9,24.9,0,0,1,15.243,5.326,25.172,25.172,0,0,1,5.68,6.225,25.6,25.6,0,0,1,3.431,8.213,24.938,24.938,0,0,1-3.024,18.6c-3.059,5.244-6.21,10.551-9.257,15.682-1.285,2.165-2.615,4.4-3.919,6.606q-.87,1.47-1.738,2.942c-1.463,2.479-2.976,5.042-4.486,7.55-.827,1.374-1.7,1.662-2.28,1.662s-1.441-.285-2.247-1.641c-4.911-8.265-9.884-16.68-14.694-24.817l-1.764-2.985c-.316-.535-.641-1.078-.956-1.6-.932-1.556-1.9-3.166-2.765-4.8a24.492,24.492,0,0,1-2.461-7.055,25.409,25.409,0,0,1,1.583-14.495,24.608,24.608,0,0,1,3.915-6.358,25.4,25.4,0,0,1,8.688-6.714,26.542,26.542,0,0,1,10.712-2.336Zm-.351,71.8c.461,0,.966-.418,1.424-1.178,1.508-2.5,3.02-5.066,4.482-7.542q.869-1.472,1.739-2.943c1.3-2.2,2.634-4.442,3.919-6.607,3.046-5.13,6.2-10.435,9.253-15.676a23.967,23.967,0,0,0,2.913-17.872,24.313,24.313,0,0,0-23.379-18.986l-.322,0a24.279,24.279,0,0,0-21.571,35.488c.857,1.61,1.814,3.208,2.74,4.754.315.526.641,1.07.958,1.608l1.764,2.985c4.809,8.137,9.782,16.551,14.692,24.815C452.007,1423.832,452.5,1424.241,452.953,1424.241Zm0-68.119h0a21.317,21.317,0,0,1,13.714,4.918,22.559,22.559,0,0,1,5.853,7.364,20.381,20.381,0,0,1,2.061,8.512v.012a23.97,23.97,0,0,1-1.04,7.143,26.9,26.9,0,0,1-2.728,5.967c-3.452,5.78-6.929,11.677-10.292,17.38-2.014,3.416-4.1,6.948-6.152,10.419-.1.167-.187.319-.267.456-.452.779-.679,1.17-1.146,1.17s-.7-.393-1.151-1.177c-.076-.131-.16-.275-.254-.434q-2.2-3.719-4.406-7.435c-4.169-7.032-8.481-14.3-12.678-21.483a21.445,21.445,0,0,1,3.6-26.871,20.683,20.683,0,0,1,6.936-4.452A21.746,21.746,0,0,1,452.955,1356.122Zm20.63,20.811a20.051,20.051,0,0,0-7.557-15.128,20.316,20.316,0,0,0-13.071-4.684h0a20.193,20.193,0,0,0-14.188,5.658,20.448,20.448,0,0,0-3.43,25.65c4.2,7.176,8.506,14.446,12.674,21.478q2.2,3.717,4.406,7.436c.1.161.181.308.258.441.1.171.2.345.286.482.084-.135.183-.307.281-.475.081-.139.17-.293.271-.464,2.055-3.469,4.137-7,6.151-10.417,3.363-5.7,6.841-11.6,10.295-17.385A23.139,23.139,0,0,0,473.585,1376.934Z" transform="translate(-383.652 -1352.937)" fill="#0065a5"/>
      <path id="Trazado_502" data-name="Trazado 502" d="M721.285,1402a38.222,38.222,0,0,1-3.536,15.667c-.614,1.277-1.787,1.674-2.784.988a1.829,1.829,0,0,1-.536-2.473,38.529,38.529,0,0,0,2.592-8.351,34.4,34.4,0,0,0-3.406-21.991c-.637-1.256-.574-2.046.232-2.682,1.013-.8,2.2-.5,2.906.819a38.9,38.9,0,0,1,3.414,8.968A47.165,47.165,0,0,1,721.285,1402Z" transform="translate(-607.679 -1376.346)" fill="#0065a5"/>
      <path id="Trazado_502_-_Contorno" data-name="Trazado 502 - Contorno" d="M715.973,1419.49a2.28,2.28,0,0,1-1.291-.421,2.327,2.327,0,0,1-.713-3.078,37.77,37.77,0,0,0,2.56-8.243,34.09,34.09,0,0,0-3.359-21.679c-.468-.923-.939-2.269.368-3.3a2.372,2.372,0,0,1,1.467-.547,2.551,2.551,0,0,1,2.19,1.523,39.643,39.643,0,0,1,3.458,9.083,47.647,47.647,0,0,1,1.131,9.149v.042a38.792,38.792,0,0,1-3.585,15.868A2.548,2.548,0,0,1,715.973,1419.49ZM715,1383.222a1.388,1.388,0,0,0-.848.332c-.516.408-.7.876-.1,2.063a36.722,36.722,0,0,1,3.577,10.858,34.883,34.883,0,0,1-.125,11.445,38.731,38.731,0,0,1-2.624,8.459c-.474,1.126-.022,1.6.359,1.867a1.27,1.27,0,0,0,.724.245,1.565,1.565,0,0,0,1.326-1.037,37.8,37.8,0,0,0,3.486-15.446,46.706,46.706,0,0,0-1.1-8.937,38.638,38.638,0,0,0-3.37-8.854A1.58,1.58,0,0,0,715,1383.222Z" transform="translate(-607.679 -1376.346)" fill="#0065a5"/>
      <path id="Trazado_503" data-name="Trazado 503" d="M343.9,1382.744a1.8,1.8,0,0,1,1.209,2.492c-.349.857-.813,1.666-1.182,2.516a33.913,33.913,0,0,0-.272,27.613c.151.362.318.718.449,1.087a1.786,1.786,0,0,1-.856,2.356,1.814,1.814,0,0,1-2.44-.891,33.089,33.089,0,0,1-2.366-6.408,37.719,37.719,0,0,1,2.86-26.816C341.748,1383.77,342.166,1382.757,343.9,1382.744Z" transform="translate(-312.149 -1376.364)" fill="#0065a5"/>
      <path id="Trazado_503_-_Contorno" data-name="Trazado 503 - Contorno" d="M343.9,1382.244h0a1.8,1.8,0,0,1,1.424.878,2.47,2.47,0,0,1,.244,2.3c-.2.485-.43.954-.655,1.409-.181.365-.368.743-.531,1.118a33.575,33.575,0,0,0-.269,27.222c.046.11.093.219.14.328.109.252.222.513.318.784a2.3,2.3,0,0,1-2.112,3.206,2.36,2.36,0,0,1-2.1-1.351,33.775,33.775,0,0,1-2.4-6.5,38.13,38.13,0,0,1-1.062-13.854,40.615,40.615,0,0,1,3.956-13.306l.054-.111a3.007,3.007,0,0,1,2.99-2.12Zm-1.437,36.246a1.3,1.3,0,0,0,1.169-1.871c-.085-.239-.186-.474-.294-.722-.049-.113-.1-.226-.145-.34a35.288,35.288,0,0,1-2.84-14.034,36.064,36.064,0,0,1,3.115-13.971c.172-.4.365-.787.552-1.163.227-.458.441-.891.625-1.342a1.471,1.471,0,0,0-.15-1.37.871.871,0,0,0-.6-.432c-1.346.012-1.676.693-2.093,1.556l-.055.113a37.407,37.407,0,0,0-2.825,26.471,32.772,32.772,0,0,0,2.33,6.311A1.35,1.35,0,0,0,342.46,1418.49Z" transform="translate(-312.149 -1376.364)" fill="#0065a5"/>
      <path id="Trazado_504" data-name="Trazado 504" d="M381.759,1412.908c1.59.039,2.294,1.343,1.708,2.832a27.583,27.583,0,0,0-1.747,6.584,25.885,25.885,0,0,0,.834,10.561c.069.24.158.474.217.715a1.9,1.9,0,0,1-1.137,2.441,1.852,1.852,0,0,1-2.324-1.343,27.483,27.483,0,0,1-1.476-10.718,30.488,30.488,0,0,1,2.17-9.534C380.356,1413.564,380.9,1412.909,381.759,1412.908Z" transform="translate(-344.069 -1400.071)" fill="#0065a5"/>
      <path id="Trazado_504_-_Contorno" data-name="Trazado 504 - Contorno" d="M381.765,1412.408h.006a2.4,2.4,0,0,1,2.025,1.017,2.7,2.7,0,0,1,.136,2.5,26.951,26.951,0,0,0-1.717,6.465,25.538,25.538,0,0,0,.819,10.359c.026.09.055.18.086.276.048.146.1.3.136.459a2.39,2.39,0,0,1-1.466,3.035,2.236,2.236,0,0,1-.7.115,2.417,2.417,0,0,1-2.251-1.769,28.078,28.078,0,0,1-1.5-10.911,31.123,31.123,0,0,1,2.2-9.69c.611-1.53,1.544-1.853,2.219-1.853Zm-.677,23.224a1.237,1.237,0,0,0,.389-.064,1.408,1.408,0,0,0,.809-1.848c-.03-.125-.072-.252-.116-.386-.033-.1-.066-.2-.1-.31a26.532,26.532,0,0,1-.849-10.763,27.936,27.936,0,0,1,1.778-6.7,1.722,1.722,0,0,0-.039-1.579,1.415,1.415,0,0,0-1.21-.569c-.205,0-.8.015-1.285,1.224a30.124,30.124,0,0,0-2.135,9.378,27.084,27.084,0,0,0,1.449,10.525A1.45,1.45,0,0,0,381.088,1435.632Z" transform="translate(-344.069 -1400.071)" fill="#0065a5"/>
      <path id="Trazado_505" data-name="Trazado 505" d="M688.6,1425.872a29.978,29.978,0,0,1-1.482,8.69c-.486,1.384-1.672,1.945-2.731,1.329-.83-.483-1.06-1.312-.7-2.545a27.284,27.284,0,0,0,1.177-7.887,25.731,25.731,0,0,0-1.9-9.57,2.164,2.164,0,0,1,0-2.14,1.734,1.734,0,0,1,1.629-.833,1.868,1.868,0,0,1,1.674,1.295,28.784,28.784,0,0,1,1.884,6.443A32.161,32.161,0,0,1,688.6,1425.872Z" transform="translate(-583.699 -1400.076)" fill="#0065a5"/>
      <path id="Trazado_505_-_Contorno" data-name="Trazado 505 - Contorno" d="M685.262,1436.64a2.226,2.226,0,0,1-1.13-.316c-1.044-.608-1.356-1.657-.925-3.119a26.656,26.656,0,0,0,1.157-7.743,25.394,25.394,0,0,0-1.865-9.385,2.653,2.653,0,0,1,.043-2.6,2.225,2.225,0,0,1,1.923-1.06c.05,0,.1,0,.152,0a2.346,2.346,0,0,1,2.106,1.6,29.392,29.392,0,0,1,1.917,6.555,32.88,32.88,0,0,1,.457,5.3v.026a29.911,29.911,0,0,1-1.51,8.835A2.564,2.564,0,0,1,685.262,1436.64Zm-.8-23.226a1.236,1.236,0,0,0-1.088.612,1.7,1.7,0,0,0,.05,1.678,26.391,26.391,0,0,1,1.937,9.754,27.636,27.636,0,0,1-1.2,8.03c-.379,1.286.052,1.729.469,1.972a1.241,1.241,0,0,0,.627.181,1.606,1.606,0,0,0,1.381-1.243,28.935,28.935,0,0,0,1.454-8.532,31.893,31.893,0,0,0-.443-5.126,28.389,28.389,0,0,0-1.851-6.331,1.368,1.368,0,0,0-1.242-.991Z" transform="translate(-583.699 -1400.076)" fill="#0065a5"/>
      <path id="Trazado_506" data-name="Trazado 506" d="M491.325,1402.077a14.3,14.3,0,1,1,.036,28.592,14.3,14.3,0,1,1-.036-28.592Zm.065,24.855a10.632,10.632,0,0,0,10.6-10.4c0-5.513-3.885-10.778-10.633-10.814a10.505,10.505,0,0,0-10.654,10.9A10.634,10.634,0,0,0,491.39,1426.932Z" transform="translate(-422.044 -1391.554)" fill="#0065a5"/>
      <path id="Trazado_506_-_Contorno" data-name="Trazado 506 - Contorno" d="M491.689,1401.572a14.682,14.682,0,0,1,14.487,14.925,14.755,14.755,0,0,1-4.38,10.44,14.939,14.939,0,0,1-10.431,4.232,14.486,14.486,0,0,1-5.876-1.19,15,15,0,0,1-7.875-7.946,14.353,14.353,0,0,1-1.119-5.73,14.891,14.891,0,0,1,4.459-10.55,14.686,14.686,0,0,1,4.614-3.071,14.021,14.021,0,0,1,5.453-1.108c.1,0,.2,0,.3,0,.12,0,.243,0,.364,0Zm-.431,28.6h.1a13.8,13.8,0,0,0,.332-27.6h0c-.116,0-.234,0-.349,0h-.025c-.1,0-.194,0-.293,0a13.759,13.759,0,0,0-13.525,13.74,13.833,13.833,0,0,0,13.763,13.856Zm.036-24.95h.066a11.656,11.656,0,0,1,4.71.972,10.393,10.393,0,0,1,3.507,2.545,11.564,11.564,0,0,1,2.914,7.8,10.707,10.707,0,0,1-3.284,7.665,11.164,11.164,0,0,1-7.815,3.234h-.039a11.189,11.189,0,0,1-7.822-3.19,10.7,10.7,0,0,1-3.328-7.621,11.868,11.868,0,0,1,.833-4.5,11.061,11.061,0,0,1,2.43-3.732,10.532,10.532,0,0,1,3.437-2.315A11.331,11.331,0,0,1,491.294,1405.219Zm.059,21.213h.035a10.167,10.167,0,0,0,10.1-9.9c0-5.1-3.477-10.279-10.136-10.313h-.061a9.784,9.784,0,0,0-7.117,2.874,10.588,10.588,0,0,0-2.973,7.521A10.18,10.18,0,0,0,491.353,1426.432Z" transform="translate(-422.044 -1391.554)" fill="#0065a5"/>
      <g id="Grupo_24" data-name="Grupo 24" transform="translate(0 46.463)">
        <path id="Trazado_507" data-name="Trazado 507" d="M420.665,1575a2,2,0,0,0,.229-.013c4.878-.565,9.986-.954,15.193-1.162a35.757,35.757,0,0,0-2.912-3.818c-4.352.229-8.623.582-12.734,1.058a1.974,1.974,0,0,0,.225,3.936Z" transform="translate(-376.223 -1570.003)" fill="#0065a5"/>
        <path id="Trazado_507_-_Contorno" data-name="Trazado 507 - Contorno" d="M420.665,1575.5a2.474,2.474,0,0,1-.282-4.932c4.092-.474,8.387-.83,12.766-1.061l.239-.013.16.179a35.581,35.581,0,0,1,2.954,3.871l.5.744-.9.036c-5.214.209-10.313.6-15.155,1.16A2.519,2.519,0,0,1,420.665,1575.5Zm12.3-4.982c-4.274.23-8.466.58-12.463,1.043a1.474,1.474,0,1,0,.339,2.929c4.586-.531,9.4-.91,14.326-1.127A32.518,32.518,0,0,0,432.961,1570.515Z" transform="translate(-376.223 -1570.003)" fill="#0065a5"/>
        <path id="Trazado_508" data-name="Trazado 508" d="M722.737,1591.089a81.089,81.089,0,0,1,15.122,4.748,1.974,1.974,0,0,0,1.608-3.606,84.973,84.973,0,0,0-15.869-5,1.974,1.974,0,0,0-.861,3.853Z" transform="translate(-613.973 -1583.509)" fill="#0065a5"/>
        <path id="Trazado_508_-_Contorno" data-name="Trazado 508 - Contorno" d="M723.166,1586.688h0a2.5,2.5,0,0,1,.542.06,85.474,85.474,0,0,1,15.964,5.027,2.474,2.474,0,1,1-2.016,4.519,80.593,80.593,0,0,0-15.027-4.717,2.474,2.474,0,0,1,.537-4.889Zm15.5,8.821a1.474,1.474,0,0,0,.6-2.821,84.487,84.487,0,0,0-15.774-4.964,1.474,1.474,0,0,0-.643,2.877,81.586,81.586,0,0,1,15.216,4.78A1.459,1.459,0,0,0,738.662,1595.509Z" transform="translate(-613.973 -1583.509)" fill="#0065a5"/>
        <path id="Trazado_509" data-name="Trazado 509" d="M603.59,1571.323c-3.643-.419-7.41-.741-11.247-.967-.166.182-.333.363-.5.547-.931,1.046-1.817,2.13-2.67,3.24,4.78.216,9.468.586,13.961,1.1a2.007,2.007,0,0,0,.228.013,1.974,1.974,0,0,0,.223-3.936Z" transform="translate(-510.215 -1570.28)" fill="#0065a5"/>
        <path id="Trazado_509_-_Contorno" data-name="Trazado 509 - Contorno" d="M592.135,1569.843l.237.014c3.872.228,7.665.554,11.275.97a2.474,2.474,0,1,1-.566,4.916c-4.472-.515-9.158-.885-13.927-1.1l-.959-.043.585-.761c.921-1.2,1.8-2.267,2.693-3.267.166-.187.336-.373.5-.552Zm11.232,4.916a1.474,1.474,0,0,0,.166-2.939c-3.517-.4-7.211-.724-10.982-.951-.111.121-.222.244-.331.366-.683.767-1.36,1.575-2.056,2.454,4.459.221,8.838.578,13.031,1.06A1.507,1.507,0,0,0,603.367,1574.759Z" transform="translate(-510.215 -1570.28)" fill="#0065a5"/>
        <path id="Trazado_510" data-name="Trazado 510" d="M273.368,1596.173a1.968,1.968,0,0,0,.808-.174,80.426,80.426,0,0,1,15.11-4.772,1.974,1.974,0,1,0-.865-3.853,84.31,84.31,0,0,0-15.863,5.023,1.974,1.974,0,0,0,.81,3.775Z" transform="translate(-260.451 -1583.619)" fill="#0065a5"/>
        <path id="Trazado_510_-_Contorno" data-name="Trazado 510 - Contorno" d="M273.368,1596.673a2.474,2.474,0,0,1-1.015-4.731,84.8,84.8,0,0,1,15.959-5.055,2.474,2.474,0,1,1,1.084,4.828,79.941,79.941,0,0,0-15.015,4.74A2.457,2.457,0,0,1,273.368,1596.673Zm15.487-8.846a1.482,1.482,0,0,0-.325.036,83.814,83.814,0,0,0-15.768,4.991,1.474,1.474,0,1,0,1.208,2.689,80.927,80.927,0,0,1,15.205-4.8,1.474,1.474,0,0,0-.322-2.913Z" transform="translate(-260.451 -1583.619)" fill="#0065a5"/>
        <path id="Trazado_511" data-name="Trazado 511" d="M362.4,1736.985a153.591,153.591,0,0,1-15.839-2.619,1.974,1.974,0,0,0-.862,3.853,157.593,157.593,0,0,0,16.249,2.688,1.974,1.974,0,0,0,.452-3.922Z" transform="translate(-317.641 -1699.146)" fill="#0065a5"/>
        <path id="Trazado_511_-_Contorno" data-name="Trazado 511 - Contorno" d="M346.131,1733.818h0a2.493,2.493,0,0,1,.54.06,153.1,153.1,0,0,0,15.788,2.61,2.474,2.474,0,1,1-.568,4.916,158.1,158.1,0,0,1-16.3-2.7,2.474,2.474,0,0,1-1.874-2.955A2.491,2.491,0,0,1,346.131,1733.818Zm16.048,6.6a1.474,1.474,0,0,0,.166-2.939,154.065,154.065,0,0,1-15.891-2.628,1.474,1.474,0,0,0-1.76,1.117,1.474,1.474,0,0,0,1.117,1.76,157.118,157.118,0,0,0,16.2,2.679A1.472,1.472,0,0,0,362.179,1740.42Z" transform="translate(-317.641 -1699.146)" fill="#0065a5"/>
        <path id="Trazado_512" data-name="Trazado 512" d="M808.9,1662.313a1.974,1.974,0,0,0-1.973-1.946H806.9a1.974,1.974,0,0,0-1.946,2v.06c0,2.993-3.486,6.2-9.815,9.041a1.974,1.974,0,1,0,1.615,3.6c8.061-3.613,12.148-7.867,12.148-12.644Z" transform="translate(-671.172 -1641.025)" fill="#0065a5"/>
        <path id="Trazado_512_-_Contorno" data-name="Trazado 512 - Contorno" d="M806.894,1659.867h.033a2.484,2.484,0,0,1,2.473,2.439v.12c0,4.994-4.187,9.4-12.444,13.1a2.474,2.474,0,1,1-2.024-4.515,26.893,26.893,0,0,0,7.146-4.374c1.574-1.45,2.373-2.867,2.373-4.211v-.055a2.477,2.477,0,0,1,2.439-2.507Zm-10.948,14.879a1.466,1.466,0,0,0,.6-.13c7.865-3.526,11.852-7.626,11.852-12.187v-.113a1.479,1.479,0,0,0-1.473-1.449H806.9a1.476,1.476,0,0,0-1.45,1.5v.063c0,1.639-.907,3.3-2.7,4.951a27.855,27.855,0,0,1-7.415,4.551,1.475,1.475,0,0,0,.6,2.82Z" transform="translate(-671.172 -1641.025)" fill="#0065a5"/>
        <path id="Trazado_513" data-name="Trazado 513" d="M664.241,1734.317a153.445,153.445,0,0,1-15.838,2.624,1.974,1.974,0,1,0,.453,3.922,157.427,157.427,0,0,0,16.249-2.693,1.974,1.974,0,0,0-.864-3.853Z" transform="translate(-555.39 -1699.108)" fill="#0065a5"/>
        <path id="Trazado_513_-_Contorno" data-name="Trazado 513 - Contorno" d="M664.675,1733.769h0a2.49,2.49,0,0,1,2.412,1.934,2.474,2.474,0,0,1-1.873,2.955,157.934,157.934,0,0,1-16.3,2.7,2.51,2.51,0,0,1-.286.016,2.474,2.474,0,0,1-.281-4.932,152.917,152.917,0,0,0,15.786-2.615A2.486,2.486,0,0,1,664.675,1733.769Zm-16.049,6.608a1.481,1.481,0,0,0,.171-.01,156.9,156.9,0,0,0,16.2-2.685,1.474,1.474,0,0,0,1.116-1.761,1.483,1.483,0,0,0-1.436-1.152h0a1.486,1.486,0,0,0-.325.036,153.93,153.93,0,0,1-15.89,2.633,1.474,1.474,0,0,0,.167,2.939Z" transform="translate(-555.39 -1699.108)" fill="#0065a5"/>
        <path id="Trazado_514" data-name="Trazado 514" d="M513.134,1752.328h-.072c-5.31.19-10.818.191-16.123,0a1.974,1.974,0,1,0-.141,3.946c2.692.1,5.444.145,8.179.145s5.517-.049,8.227-.146a1.974,1.974,0,0,0-.07-3.947Z" transform="translate(-436.113 -1713.302)" fill="#0065a5"/>
        <path id="Trazado_514_-_Contorno" data-name="Trazado 514 - Contorno" d="M513.134,1751.828a2.474,2.474,0,0,1,.088,4.947c-2.709.1-5.483.147-8.245.147-2.743,0-5.5-.049-8.2-.145a2.474,2.474,0,0,1,.091-4.946h.085c5.27.188,10.814.188,16.088,0Zm-8.157,4.094c2.75,0,5.511-.049,8.209-.146a1.474,1.474,0,0,0-.052-2.948h-.049c-2.662.1-5.389.144-8.111.144-2.705,0-5.415-.048-8.053-.142h-.05a1.474,1.474,0,0,0-.055,2.947C499.5,1755.873,502.246,1755.922,504.977,1755.922Z" transform="translate(-436.113 -1713.302)" fill="#0065a5"/>
        <path id="Trazado_515" data-name="Trazado 515" d="M234.082,1671.972c-6.334-2.832-9.834-6.039-9.856-9.03a1.974,1.974,0,0,0-1.974-1.96h-.015a1.974,1.974,0,0,0-1.96,1.989c.035,4.763,4.137,9,12.193,12.606a1.974,1.974,0,0,0,1.612-3.6Z" transform="translate(-220.278 -1641.508)" fill="#0065a5"/>
        <path id="Trazado_515_-_Contorno" data-name="Trazado 515 - Contorno" d="M233.275,1676.249a2.455,2.455,0,0,1-1.009-.216c-8.25-3.689-12.452-8.082-12.489-13.058a2.477,2.477,0,0,1,2.456-2.492h.019a2.481,2.481,0,0,1,2.474,2.456c.01,1.344.817,2.76,2.4,4.209a27.057,27.057,0,0,0,7.161,4.367,2.475,2.475,0,0,1-1.011,4.734Zm-11.038-14.767a1.475,1.475,0,0,0-1.46,1.485c.033,4.549,4.036,8.638,11.9,12.153a1.474,1.474,0,0,0,1.2-2.692,28.021,28.021,0,0,1-7.429-4.543c-1.8-1.645-2.711-3.307-2.723-4.94a1.478,1.478,0,0,0-1.474-1.464Z" transform="translate(-220.278 -1641.508)" fill="#0065a5"/>
      </g>
    </g>
  </g>
</svg>
