<svg xmlns="http://www.w3.org/2000/svg" width="27.538" height="23.038" viewBox="0 0 27.538 23.038">
  <path id="Trazado_17553" data-name="Trazado 17553" d="M-589.978,1881.868a1.688,1.688,0,0,0-1.649-.881q-11.751.015-23.5,0a1.614,1.614,0,0,0-1.784,1.778q.042,9.5,0,19a1.658,1.658,0,0,0,.937,1.679,3.849,3.849,0,0,0,.8.086q11.787,0,23.574,0a1.5,1.5,0,0,0,1.719-1.71q0-9.552,0-19.1A2.9,2.9,0,0,0-589.978,1881.868Zm-1.713,20.527h-23.394c-.654,0-.691-.037-.691-.681,0-2.823.006-5.645-.008-8.468,0-.339.092-.434.428-.427,1.08.021,2.161,0,3.242.013a1.278,1.278,0,0,0,1.018-.4c.4-.413.831-.794,1.279-1.216l1.053,2.865c.072.2.15.389.216.586.1.3.273.541.625.516s.479-.29.555-.6c.317-1.285.639-2.569.96-3.853l.757-3.035c.13.064.1.173.106.259q.235,3.58.465,7.162.156,2.4.316,4.811c0,.037.007.073.011.11.03.321.147.579.509.62s.534-.175.637-.486c.292-.884.589-1.767.881-2.651q.884-2.669,1.765-5.339c.033-.1.07-.2.108-.306.141.073.164.2.219.308q.616,1.193,1.223,2.39c.136.271.272.544.626.542.374,0,.5-.294.634-.579.219-.479.456-.951.666-1.434a.406.406,0,0,1,.45-.279c.355.017.712.014,1.068,0a1.6,1.6,0,0,1,1.151.32,1.439,1.439,0,0,0,1.943-.3,1.568,1.568,0,0,0-.569-2.118,1.375,1.375,0,0,0-1.918.667.416.416,0,0,1-.464.293c-.577-.015-1.154,0-1.731-.006a.706.706,0,0,0-.721.461c-.155.355-.33.7-.5,1.055-.15-.078-.172-.209-.226-.313q-.685-1.323-1.36-2.651c-.129-.255-.285-.47-.6-.455-.337.016-.476.254-.571.541q-1.068,3.228-2.141,6.454a.513.513,0,0,1-.14.235c-.045-.623-.094-1.245-.135-1.868q-.237-3.617-.471-7.235c-.089-1.346-.187-2.692-.274-4.039-.022-.333-.145-.573-.5-.626-.31-.047-.54.136-.638.525q-.918,3.653-1.826,7.309c-.125.5-.249,1-.381,1.524a.678.678,0,0,1-.207-.384c-.253-.677-.491-1.36-.747-2.036-.222-.585-.65-.681-1.1-.255q-.833.781-1.656,1.572a.6.6,0,0,1-.454.189c-1.081-.007-2.161-.01-3.242,0-.26,0-.331-.08-.331-.335.008-2.909,0-5.817.006-8.726,0-.41.09-.5.49-.512.086,0,.172,0,.258,0h23.283a3.547,3.547,0,0,1,.4.011.332.332,0,0,1,.333.364c0,.1,0,.2,0,.294q0,9.462,0,18.924C-591,1902.359-591.04,1902.4-591.691,1902.4Z" transform="translate(617.162 -1880.733)" fill="#fff" stroke="#fff" stroke-width="0.5"/>
</svg>
