<svg xmlns="http://www.w3.org/2000/svg" width="86.854" height="113.414" viewBox="0 0 86.854 113.414">
  <g id="Grupo_31" data-name="Grupo 31" transform="translate(454.76 -1696.1)">
    <path id="Trazado_528" data-name="Trazado 528" d="M-309.484,1761.228a19.711,19.711,0,0,1-5.2-7.747,10.513,10.513,0,0,1-.6-3.266c-.062-4.913-.535-9.849.541-14.711.748-3.379,2.591-5.847,6.117-6.758a1.824,1.824,0,0,0,.721-.4c3.007-2.67,6.589-3.214,10.371-2.6A16.96,16.96,0,0,1-286.6,1731.7a11.776,11.776,0,0,1,2.724,7.46c.046,3.614.136,7.234-.019,10.841-.177,4.128-2.237,7.459-4.967,10.425-.229.249-.6.4-.657.91a19.094,19.094,0,0,1,7.19,2.264,18.893,18.893,0,0,1,5.7,4.989,2.425,2.425,0,0,1,.635,1.865,1.778,1.778,0,0,1-1.3,1.549,1.824,1.824,0,0,1-2.116-.7,17.057,17.057,0,0,0-2.651-2.891,15.021,15.021,0,0,0-7.7-3.215c-.908-.143-1.3.2-1.365,1.125a9.039,9.039,0,0,1-2.537,5.884,8.246,8.246,0,0,1-13.865-3.177,7.469,7.469,0,0,1-.532-2.793c.045-.853-.358-1.075-1.142-1.1-1.625-.054-3.248.094-4.877-.115a7.535,7.535,0,0,1-4.5-2.22c-2.084-2.073-4.186-4.127-6.236-6.234-.594-.61-.949-.613-1.483.054a43.473,43.473,0,0,1-3.047,3.5c-.716.72-.635,1.139.055,1.812,4.41,4.3,8.711,8.7,13.193,12.923a9.021,9.021,0,0,1,2.907,7.224c-.075,4.407.018,8.817-.022,13.225-.01,1.066.293,1.46,1.413,1.454q12.392-.061,24.784-.007c1,0,1.2-.418,1.192-1.287-.032-3.932-.027-7.864-.025-11.8a13.7,13.7,0,0,1,.094-2.137,1.841,1.841,0,0,1,2.025-1.75,1.842,1.842,0,0,1,1.783,1.991c.047,1.349.012,2.7.013,4.051,0,1.549.023,3.1-.007,4.647-.014.746.246,1.1,1.029,1.085,1.31-.031,2.621-.027,3.932-.017a.8.8,0,0,0,.924-.948c-.14-4,.338-8.022-.452-12-.282-1.421.3-2.452,1.451-2.715,1.118-.254,2.031.5,2.351,1.957a31.663,31.663,0,0,1,.565,6.987c-.017,4.528,0,9.056-.02,13.584a6.743,6.743,0,0,1-8.624,6.708c-1.109-.3-1.164.079-1.162.968q.03,11.737,0,23.474a9.76,9.76,0,0,1-2.781,6.649c-3.17,3.505-10.69,3.711-13.9-.03-.693-.809-1.11-.828-1.818-.008-2.607,3.016-7.612,3.313-10.72,2.1a9.438,9.438,0,0,1-5.952-8.961q0-6.494,0-12.988c0-.238-.008-.477.007-.715a1.969,1.969,0,0,1,1.871-2.077,2.039,2.039,0,0,1,2,1.976c.084,1.5.039,3.017.046,4.526.013,2.724.012,2.723,2.7,2.729,2.542.005,5.084-.019,7.625.035,1.027.022,1.475-.4,1.463-1.384-.03-2.536-.077-5.071-.086-7.607-.009-2.3-.07-4.6.068-6.891.11-1.829-.3-3.645,0-5.469.092-.551-.244-.783-.783-.782q-5,.005-10.008-.006c-.716,0-.99.348-.984,1.029.013,1.429,0,2.859.007,4.289a3.874,3.874,0,0,1-.262,1.635,1.8,1.8,0,0,1-2,1.169,1.776,1.776,0,0,1-1.6-1.537,7.7,7.7,0,0,1-.063-1.425c0-8.222-.017-16.443.009-24.665a4.143,4.143,0,0,0-1.323-3.173c-6.235-6.12-12.427-12.284-18.665-18.4-2.477-2.429-3.614-5.168-2.4-8.6a7.04,7.04,0,0,1,10.358-3.725,12.789,12.789,0,0,1,2.375,1.975c3.286,3.286,6.642,6.506,9.834,9.88a5.983,5.983,0,0,0,5.262,2.139C-311.062,1761.174-310.434,1761.228-309.484,1761.228Zm21.718-11.741c.007-1.8.009-1.813-1.677-2.076a8.956,8.956,0,0,1-4.551-2.189q-1.348-1.171-2.666-2.378a7.3,7.3,0,0,0-5.431-1.992c-2.057.075-2.046.032-2.314,2.01a15.7,15.7,0,0,1-.427,2.217,4.358,4.358,0,0,1-3.45,3.248,6.645,6.645,0,0,1-2.01.158c-.971-.079-1.3.361-1.191,1.261.044.354.05.714.125,1.06.943,4.31,3.584,7.328,7.264,9.569,3.248,1.978,6.41,1.695,9.52-.3a12.633,12.633,0,0,0,1.449-1.042C-290.189,1756.5-287.94,1753.569-287.767,1749.487Zm-9.886,62.333h.006c0,3.254.015,6.509-.011,9.763-.006.756.131,1.191,1.029,1.183q4.762-.045,9.524.014c1.024.014,1.276-.452,1.273-1.374q-.036-9.822-.009-19.644c0-.814-.292-1.133-1.116-1.127-3.135.024-6.271.029-9.405-.014-.979-.014-1.321.337-1.308,1.317C-297.626,1805.232-297.653,1808.526-297.653,1811.821Zm9.875-71.281a8.344,8.344,0,0,0-2.942-7.559,13.823,13.823,0,0,0-8.52-3.536c-2.55-.165-4.9.321-6.678,2.39a1.771,1.771,0,0,1-1.169.534c-2.323.3-3.379,1.877-3.919,3.931a28.218,28.218,0,0,0-.465,7.457.734.734,0,0,0,.311.719,1.947,1.947,0,0,0,2.82-1.313c.128-.862.147-1.744.327-2.593a3.888,3.888,0,0,1,3.107-3.381c3.6-.638,7.05-.247,10.024,2.144.988.794,1.928,1.65,2.875,2.495a7.018,7.018,0,0,0,2.833,1.694c.877.233,1.495.045,1.4-1.079C-287.82,1741.813-287.778,1741.175-287.778,1740.54Zm-3.961,86.138v0c-1.625,0-3.25.019-4.875-.008-.754-.013-1.065.266-1.056,1.046a15.076,15.076,0,0,0,.27,3.071,5.392,5.392,0,0,0,4.626,4.188,5.81,5.81,0,0,0,5.962-2.294c1.066-1.523.951-3.212.962-4.917.005-.825-.314-1.119-1.132-1.1C-288.567,1826.709-290.153,1826.677-291.739,1826.677Zm-15.49.006v-.012c-1.03,0-2.06-.02-3.089,0-3.2.074-2.975-.6-2.86,3.008.1,3.149,2.275,5.192,5.625,5.4a5.551,5.551,0,0,0,5.99-4.755c.164-.959-.071-1.9.031-2.84.069-.642-.225-.821-.827-.811C-303.982,1826.7-305.606,1826.683-307.229,1826.683Zm12.28-60.828c-.139-.356.325-1.321-.732-.937a11.513,11.513,0,0,1-7.918-.012c-.423-.146-.659-.076-.713.444a5.745,5.745,0,0,0,3.26,5.37C-298.139,1771.769-295.051,1769.337-294.95,1765.855Zm-41.114-12.886c-.018,1.927,1.785,4.636,2.951,5.124.436.182.562-.154.757-.374.732-.831,1.45-1.674,2.18-2.507,2.059-2.348,2.027-2.583-.553-4.378a3.26,3.26,0,0,0-3.573-.37A3.141,3.141,0,0,0-336.063,1752.969Zm57.139,42.488c-3.058-.02-3.058-.02-3,2.846.037,1.926,1.2,3.2,2.916,3.195,1.8-.008,2.886-1.169,2.932-3.141C-276.012,1795.476-276.012,1795.476-278.925,1795.457Z" transform="translate(-95.759 -29.417)" fill="#0065a5"/>
    <path id="Trazado_533" data-name="Trazado 533" d="M-394.169,1730.262c.7,0,1.055-.017,1.411,0a1.817,1.817,0,0,1,1.966,1.664,1.8,1.8,0,0,1-1.675,2.063c-1.33.2-2.688.215-4.014.435a23.128,23.128,0,0,0-19.347,22.293,2.27,2.27,0,0,1-1.176,2.284,1.757,1.757,0,0,1-2-.287,2.323,2.323,0,0,1-.728-2.052,26.772,26.772,0,0,1,4.481-14.232,26.97,26.97,0,0,1,19.993-12.113C-394.785,1730.263-394.306,1730.269-394.169,1730.262Z" transform="translate(-35.025 -33.026)" fill="#0065a5"/>
    <path id="Trazado_534" data-name="Trazado 534" d="M-384.707,1784.3a20.058,20.058,0,0,1,17.294-19.09,18.767,18.767,0,0,1,2.378-.093,1.838,1.838,0,0,1,2.088,1.787,1.864,1.864,0,0,1-2.026,1.987,16.074,16.074,0,0,0-10.682,4.318,15.926,15.926,0,0,0-5.167,11.271c-.085,1.658-.841,2.462-2.185,2.3C-384.1,1786.652-384.739,1785.715-384.707,1784.3Z" transform="translate(-61.703 -59.579)" fill="#0065a5"/>
  </g>
</svg>
