<svg xmlns="http://www.w3.org/2000/svg" width="19.712" height="11.475" viewBox="0 0 19.712 11.475">
  <g id="Grupo_22975" data-name="Grupo 22975" transform="translate(-11781.5 -1268.1)">
    <g id="Grupo_22921" data-name="Grupo 22921" transform="translate(10562 1244.472)">
      <g id="Grupo_22916" data-name="Grupo 22916" transform="translate(-79 -2.161)">
        <path id="Trazado_23" data-name="Trazado 23" d="M100.2,299.828a11.628,11.628,0,0,1,9.55,5.29.762.762,0,0,1-.006.924,11.611,11.611,0,0,1-19.3.189.984.984,0,0,1,.009-1.322,11.676,11.676,0,0,1,7.787-4.915c.3-.053.61-.078.916-.1S99.769,299.853,100.2,299.828Zm-.242,1.536c-.408.037-.89.056-1.364.128A10.023,10.023,0,0,0,92,305.38a.26.26,0,0,0-.008.385,10.221,10.221,0,0,0,1.716,1.759,10.076,10.076,0,0,0,14.352-1.747.27.27,0,0,0,.007-.4A10.176,10.176,0,0,0,99.958,301.364Z" transform="translate(1208.309 -274.04)" fill="#0065a5"/>
        <path id="Trazado_24" data-name="Trazado 24" d="M236.724,356.989a3.057,3.057,0,1,1-3.128,3.039A3.084,3.084,0,0,1,236.724,356.989Zm.011,1.528a1.527,1.527,0,1,0,1.565,1.529A1.589,1.589,0,0,0,236.735,358.517Z" transform="translate(1071.611 -328.506)" fill="#0065a5"/>
      </g>
    </g>
  </g>
</svg>
