<svg xmlns="http://www.w3.org/2000/svg" width="130" height="72.682" viewBox="0 0 130 72.682">
  <g id="Grupo_21" data-name="Grupo 21" transform="translate(-78.397 -90.921)">
    <path id="Trazado_51" data-name="Trazado 51" d="M186.628,105.676a29.7,29.7,0,1,1-29.7,29.492A29.652,29.652,0,0,1,186.628,105.676ZM210.667,135.4c.286-13.458-10.944-24.019-23.719-24.195a24.14,24.14,0,1,0-.561,48.277C199.689,159.56,210.95,148.614,210.667,135.4Z" transform="translate(-43.154 -8.109)" fill="#0065a5"/>
    <path id="Trazado_52" data-name="Trazado 52" d="M348.488,127.266a57.841,57.841,0,0,1-.072,7.068,50.089,50.089,0,0,1-.833,5.154c-.415,1.794-.793,3.6-1.271,5.384a61.445,61.445,0,0,1-4.637,11.923c-.937,1.844-1.953,3.644-3.068,5.39A2.754,2.754,0,0,1,335,163.308a2.7,2.7,0,0,1-1.2-3.753c.869-1.718,2-3.289,2.857-5.021a73.853,73.853,0,0,0,3.94-9.683,79.1,79.1,0,0,0,2.206-9.774,33.207,33.207,0,0,0,.318-5.023,97.334,97.334,0,0,0-.25-10.08,37.533,37.533,0,0,0-.876-4.607c-.208-1.083-.424-2.157-.7-3.231A61.287,61.287,0,0,0,336.573,99.8c-.808-1.6-1.753-3.106-2.64-4.653a2.673,2.673,0,0,1,1.033-3.87c1.226-.732,2.649-.272,3.587,1.113a54.869,54.869,0,0,1,5.963,11.816c.941,2.539,1.668,5.12,2.376,7.729A52.447,52.447,0,0,1,348.488,127.266Z" transform="translate(-140.169 -0.004)" fill="#0065a5"/>
    <path id="Trazado_53" data-name="Trazado 53" d="M78.4,127.753a65.006,65.006,0,0,1,.831-11.447,73.331,73.331,0,0,1,3.263-11.822,65.994,65.994,0,0,1,5.98-12.062c1.053-1.656,2.718-1.969,4.095-.8a2.714,2.714,0,0,1,.474,3.431c-1.271,2.316-2.69,4.55-3.777,6.968a69.571,69.571,0,0,0-3.557,9.953,56.71,56.71,0,0,0-1.968,16.313,59.147,59.147,0,0,0,1.315,11.47,64.522,64.522,0,0,0,4.971,14.309c.9,1.864,2.062,3.6,3.05,5.418a2.651,2.651,0,1,1-4.659,2.514,66.657,66.657,0,0,1-5.246-10.178A61.8,61.8,0,0,1,79.8,141.009a43.432,43.432,0,0,1-1.278-9.424A24.9,24.9,0,0,0,78.4,127.753Z" fill="#0065a5"/>
    <path id="Trazado_54" data-name="Trazado 54" d="M321.992,145.04a41.817,41.817,0,0,1-.744,9.052,45.319,45.319,0,0,1-3.617,11.362,2.577,2.577,0,0,1-2.945,1.224,2.287,2.287,0,0,1-1.943-2.225,5.789,5.789,0,0,1,.519-2.691,44.641,44.641,0,0,0,1.96-6.182,43.252,43.252,0,0,0,1.18-12.526,36.162,36.162,0,0,0-1.137-8.34,52.149,52.149,0,0,0-2.319-7.19,3.025,3.025,0,0,1,.369-3.341,2.756,2.756,0,0,1,3.067-.665c1.245.38,1.483,1.586,1.907,2.566a54.339,54.339,0,0,1,2.26,6.667,26.854,26.854,0,0,1,.6,2.706A49.513,49.513,0,0,1,321.992,145.04Z" transform="translate(-128.716 -17.811)" fill="#0065a5"/>
    <path id="Trazado_55" data-name="Trazado 55" d="M112.109,145.569a60.894,60.894,0,0,1,1.18-10.915,47.816,47.816,0,0,1,3.054-9.3,2.576,2.576,0,0,1,3.463-1.467,2.791,2.791,0,0,1,1.3,3.738,38.863,38.863,0,0,0-3.082,10.421,47.237,47.237,0,0,0,1.051,19.208,34.372,34.372,0,0,0,2.01,5.624,2.928,2.928,0,0,1-.377,3.208,2.645,2.645,0,0,1-3.061.594c-1.1-.434-1.4-1.523-1.763-2.449a58.192,58.192,0,0,1-3.227-11.707C112.242,150.1,112.588,147.666,112.109,145.569Z" transform="translate(-18.527 -17.99)" fill="#0065a5"/>
    <path id="Trazado_56" data-name="Trazado 56" d="M216.583,137.795c0-2.791,0-5.583,0-8.375a3.249,3.249,0,0,1,2.076-3.087c1.473-.572,3.48,1.013,3.492,2.82.026,4.116.005,8.232.012,12.348,0,2.549-.236,2.33,2.285,2.334,3.186,0,6.371,0,9.556,0a2.791,2.791,0,1,1,.05,5.574q-7.14.015-14.28,0a3.054,3.054,0,0,1-3.191-3.244C216.577,143.378,216.583,140.587,216.583,137.795Z" transform="translate(-75.94 -19.396)" fill="#0065a5"/>
  </g>
</svg>
