<svg xmlns="http://www.w3.org/2000/svg" width="93.884" height="93.946" viewBox="0 0 93.884 93.946">
  <g id="Grupo_23" data-name="Grupo 23" transform="translate(-479.183 -899.434)">
    <path id="Trazado_500" data-name="Trazado 500" d="M525.5,949.52c-8.4,0-16.8.014-25.207,0a20.281,20.281,0,0,1-20.605-20.478c-.044-12,8.56-20.959,20.4-21.029q21.966-.129,43.934.015c2.728.017,4.593-.457,6.121-3.145a10.3,10.3,0,0,1,11.917-4.505c4.257,1.244,7.873,6.027,7.988,10.566a11.972,11.972,0,0,1-7.918,10.969,10.064,10.064,0,0,1-11.906-4.4c-1.605-2.719-3.471-3.389-6.394-3.363-14.283.126-28.568.05-42.853.065-8.943.009-15.115,5.851-15.156,14.3-.042,8.736,6.077,14.771,15.071,14.778,16.8.013,33.61-.03,50.415-.018,9.492.007,16.957,5.128,20.009,13.644a20.877,20.877,0,0,1-6.556,23.4,19.986,19.986,0,0,1-13.347,4.5c-15.364-.017-30.73.04-46.094-.046-2.605-.014-4.372.478-5.835,2.993a10.391,10.391,0,0,1-12.527,4.527c-4.154-1.363-7.239-5.866-7.259-10.6a11.327,11.327,0,0,1,7.846-10.893,10.429,10.429,0,0,1,12.089,4.865c1.361,2.349,2.974,2.979,5.506,2.964,15.244-.09,30.489-.024,45.734-.053,9.165-.017,15.4-5.892,15.425-14.45.03-8.784-6.156-14.612-15.587-14.639-8.4-.023-16.8-.005-25.207-.005Zm38.261-38.552a4.895,4.895,0,0,0-4.942-4.632,4.584,4.584,0,0,0-4.448,4.982,4.387,4.387,0,0,0,4.783,4.576A4.783,4.783,0,0,0,563.756,910.968ZM490.673,986.45c2.636-.1,4.461-2.231,4.319-5.138-.138-2.84-1.61-4.445-4.519-4.467-2.77-.02-4.581,1.976-4.553,4.888A4.533,4.533,0,0,0,490.673,986.45Z" fill="#0065a5"/>
    <path id="Trazado_500_-_Contorno" data-name="Trazado 500 - Contorno" d="M490.558,993.38a12.07,12.07,0,0,1-3.766-.612,10.816,10.816,0,0,1-5.436-4.228,12.337,12.337,0,0,1-2.167-6.84,12.16,12.16,0,0,1,2.284-7.1,11.355,11.355,0,0,1,5.921-4.272,11.093,11.093,0,0,1,3.157-.46,10.918,10.918,0,0,1,9.507,5.554c1.162,2,2.466,2.715,4.985,2.715h.085c7.433-.044,14.745-.05,20.918-.05l7.553,0,7.553,0c3.745,0,6.832,0,9.713-.008,8.9-.017,14.9-5.623,14.926-13.951a13.557,13.557,0,0,0-4.088-10.238c-2.7-2.539-6.5-3.887-11-3.9-2.915-.008-6.035-.012-9.821-.012q-3.846,0-7.692,0l-7.193,0v.034h-.5l-7.863,0-7.864,0c-3.64,0-6.653,0-9.482-.008a20.781,20.781,0,0,1-21.1-20.976,21.72,21.72,0,0,1,5.884-15.338,19.87,19.87,0,0,1,6.633-4.526,21.86,21.86,0,0,1,8.377-1.666c6.6-.039,13.415-.058,20.256-.058,7.672,0,15.64.025,23.684.073h.131c2.534,0,4.17-.461,5.551-2.892a10.088,10.088,0,0,1,3.976-3.884,11.119,11.119,0,0,1,5.283-1.316A10.874,10.874,0,0,1,568,904.122a12.009,12.009,0,0,1,2.542,6.808,11.614,11.614,0,0,1-2.33,6.979,12.013,12.013,0,0,1-5.935,4.478,11.2,11.2,0,0,1-3.422.538,10.426,10.426,0,0,1-9.068-5.158c-1.54-2.608-3.294-3.118-5.8-3.118h-.156c-7.48.066-14.889.074-20.509.074-3.018,0-6.088,0-9.056-.005s-6.035-.005-9.053-.005l-4.239,0c-8.726.009-14.616,5.558-14.656,13.807a13.981,13.981,0,0,0,3.891,10.2,14.663,14.663,0,0,0,10.68,4.077l6.778,0c6.251,0,12.607-.006,18.753-.011s12.5-.011,18.754-.011l6.129,0c9.69.007,17.346,5.232,20.479,13.975a21.242,21.242,0,0,1,.514,12.961,22.117,22.117,0,0,1-7.219,10.989,20.369,20.369,0,0,1-13.638,4.614h-.03c-2.045,0-4.231,0-6.683,0q-4.471,0-8.943,0t-8.942,0c-5.924,0-13.725-.006-21.529-.049H505.2c-2.4,0-3.953.438-5.3,2.745a10.628,10.628,0,0,1-4.038,4A10.912,10.912,0,0,1,490.558,993.38Zm-.008-22.515a10.1,10.1,0,0,0-2.872.419,10.889,10.889,0,0,0-7.489,10.412c.019,4.483,2.992,8.835,6.915,10.123a11.073,11.073,0,0,0,3.454.562,9.592,9.592,0,0,0,8.485-4.865c1.571-2.7,3.522-3.242,6.16-3.242h.111c7.8.044,15.6.049,21.523.049q4.471,0,8.941,0t8.943,0c2.453,0,4.639,0,6.684,0h.029a19.409,19.409,0,0,0,13-4.382,20.291,20.291,0,0,0,6.406-22.846c-2.985-8.329-10.289-13.305-19.538-13.312l-6.128,0c-6.251,0-12.607.006-18.754.011s-12.5.011-18.754.011l-6.779,0a17.657,17.657,0,0,1-6.412-1.147,14.231,14.231,0,0,1-4.976-3.225,13.9,13.9,0,0,1-3.106-4.806,16.568,16.568,0,0,1-1.077-6.1,15.682,15.682,0,0,1,1.166-5.99,13.61,13.61,0,0,1,3.23-4.69,14.482,14.482,0,0,1,4.95-3.041,18.149,18.149,0,0,1,6.309-1.081l4.24,0c3.018,0,6.086,0,9.054.005s6.037.005,9.055.005c5.618,0,13.025-.008,20.5-.074h.164a8.2,8.2,0,0,1,3.813.734,6.978,6.978,0,0,1,2.852,2.875,9.435,9.435,0,0,0,8.206,4.667,10.2,10.2,0,0,0,3.117-.491,11.433,11.433,0,0,0,7.571-10.48c-.109-4.3-3.6-8.922-7.629-10.1a10.525,10.525,0,0,0-2.952-.422,9.459,9.459,0,0,0-8.39,4.694c-1.608,2.83-3.649,3.4-6.421,3.4h-.138c-8.042-.049-16.009-.073-23.678-.073-6.839,0-13.652.02-20.25.058-11.574.068-19.943,8.7-19.9,20.527a19.679,19.679,0,0,0,20.106,19.979c2.828.006,5.84.008,9.48.008l7.863,0,7.364,0v-.034h.5q3.846,0,7.692,0t7.693,0c3.786,0,6.908,0,9.823.012,4.754.013,8.794,1.456,11.682,4.171a14.531,14.531,0,0,1,4.4,10.97,15.791,15.791,0,0,1-1.172,6.056,13.647,13.647,0,0,1-3.272,4.734,14.687,14.687,0,0,1-5.036,3.065,18.773,18.773,0,0,1-6.444,1.092c-2.882.005-5.969.008-9.715.008l-7.553,0-7.553,0c-6.171,0-13.482.006-20.912.05h-.091c-2.394,0-4.3-.546-5.85-3.213A9.928,9.928,0,0,0,490.551,970.865Zm-.07,16.089h0a4.958,4.958,0,0,1-3.6-1.488,5.38,5.38,0,0,1-1.456-3.728,5.529,5.529,0,0,1,1.469-4,4.855,4.855,0,0,1,3.542-1.391h.045a4.975,4.975,0,0,1,3.651,1.326,5.344,5.344,0,0,1,1.364,3.617,5.6,5.6,0,0,1-1.363,4.114,4.86,4.86,0,0,1-3.436,1.548C490.622,986.953,490.55,986.954,490.48,986.954Zm-.048-9.609a3.878,3.878,0,0,0-2.832,1.1,4.483,4.483,0,0,0-1.18,3.289,4.035,4.035,0,0,0,4.059,4.225h0c.057,0,.116,0,.174,0a3.817,3.817,0,0,0,2.737-1.225,4.616,4.616,0,0,0,1.1-3.39c-.129-2.667-1.445-3.972-4.023-3.991ZM558.883,916.4a4.878,4.878,0,0,1-5.017-5.066,5.447,5.447,0,0,1,1.409-3.949,4.993,4.993,0,0,1,3.524-1.548l.15,0a5.4,5.4,0,0,1,5.306,5.115,5.178,5.178,0,0,1-1.407,3.757,5.333,5.333,0,0,1-3.678,1.687C559.075,916.4,558.978,916.4,558.883,916.4Zm.067-9.566-.12,0A4,4,0,0,0,556,908.069a4.456,4.456,0,0,0-1.138,3.233,3.886,3.886,0,0,0,4.017,4.1c.08,0,.162,0,.243-.006a4.3,4.3,0,0,0,4.13-4.407A4.406,4.406,0,0,0,558.949,906.834Z" fill="#fff"/>
  </g>
</svg>
