<svg xmlns="http://www.w3.org/2000/svg" width="105" height="75.618" viewBox="0 0 105 75.618">
  <g id="Grupo_34" data-name="Grupo 34" transform="translate(460.149 -1773.298)">
    <path id="Trazado_540" data-name="Trazado 540" d="M-378.111,1839.036c-1.671,0-3.343-.016-5.014.007-.683.009-.855-.252-.6-.864a29.588,29.588,0,0,0,1.593-5.173c.138-.644.573-.652,1.074-.666,2.385-.063,4.768.051,7.156-.123a12.954,12.954,0,0,0,11.884-11.863,12.678,12.678,0,0,0-10.437-13.675c-2.1-.332-2.732-1.091-3.258-3.009a14.224,14.224,0,0,0-12.747-10.335,13.889,13.889,0,0,0-9.455,2.545c-.75.527-1.059.412-1.357-.448a22.506,22.506,0,0,0-20.35-15.2,22.65,22.65,0,0,0-23.622,19.141,22.658,22.658,0,0,0-.142,6.108c.1.972-.233,1.3-1.075,1.579a12.314,12.314,0,0,0-8.7,10.069,12.749,12.749,0,0,0,7.8,14.174,18.289,18.289,0,0,0,7.335,1.044c1.468.006,1.469.007,1.757,1.476a27.052,27.052,0,0,0,1.361,4.282c.145.386.434.934-.379.921-3.365-.054-6.737.264-10.075-.569a19.951,19.951,0,0,1-14.575-16.129,19.683,19.683,0,0,1,5.467-16.889,14.563,14.563,0,0,1,3.428-2.735,1.459,1.459,0,0,0,.757-1.322c.908-11.484,6.423-20.031,16.777-25.067,11.814-5.746,25.271-3.091,34.36,6.393a21.231,21.231,0,0,1,2.952,3.785,1.073,1.073,0,0,0,1.391.6,21.35,21.35,0,0,1,24.826,12.35,2.068,2.068,0,0,0,1.324,1.149c7.775,2.89,12.434,8.445,13.361,16.67.8,7.1-1.822,13.054-7.431,17.569a18.754,18.754,0,0,1-12.319,4.215C-376.064,1839.026-377.088,1839.036-378.111,1839.036Z" fill="#0065a5"/>
    <path id="Trazado_541" data-name="Trazado 541" d="M-276.953,1928.808c.819,0,1.638.021,2.456-.006.645-.022.911.233.929.892a20.855,20.855,0,0,1-7.571,17.159,20.305,20.305,0,0,1-15.763,4.955,20.5,20.5,0,0,1-16.832-11.181,21.231,21.231,0,0,1,7.463-28.262,18.96,18.96,0,0,1,8.4-3c.923-.091,1.3-.443,1.245-1.416-.08-1.462-.022-2.932-.017-4.4,0-.233-.07-.531.148-.667.287-.179.508.094.716.249,3.911,2.913,7.812,5.841,11.732,8.742.7.518.55.847-.059,1.3q-5.833,4.328-11.639,8.692c-.211.157-.41.446-.705.292s-.187-.485-.189-.744c-.01-1.5-.022-3,0-4.5.01-.681-.2-.881-.918-.762a14.69,14.69,0,0,0-11.9,13.2,14.506,14.506,0,0,0,11.917,15.514,14.488,14.488,0,0,0,17.126-13.026,7.11,7.11,0,0,0,.03-2.034c-.151-.756.225-1.049.976-1.014.817.038,1.637.009,2.456.009Z" transform="translate(-114.372 -103.012)" fill="#0065a5"/>
  </g>
</svg>
